<?xml version="1.0" encoding="utf-8"?>
<!-- Generator: Adobe Illustrator 16.0.0, SVG Export Plug-In . SVG Version: 6.00 Build 0)  -->
<!DOCTYPE svg PUBLIC "-//W3C//DTD SVG 1.1//EN" "http://www.w3.org/Graphics/SVG/1.1/DTD/svg11.dtd">
<svg version="1.1" id="Layer_1" xmlns="http://www.w3.org/2000/svg" xmlns:xlink="http://www.w3.org/1999/xlink" x="0px" y="0px"
	 width="38px" height="41px" viewBox="0 0 38 41" enable-background="new 0 0 38 41" xml:space="preserve">
<g>
	<path fill="#A6A6A6" d="M31.643,6.879C30.169,2.778,26.254,0,21.787,0c-3.731,0-7.231,2.05-9.074,5.239
		c-3.178,0.091-5.85,2.323-6.541,5.33C2.718,10.842,0,13.667,0,17.129c0,3.644,2.994,6.605,6.679,6.605H29.34
		c4.79,0,8.659-3.827,8.659-8.564C38.045,11.252,35.42,7.881,31.643,6.879z M29.386,21.32H6.725c-2.349,0-4.238-1.868-4.238-4.191
		c0-2.324,1.889-4.191,4.238-4.191c0.138,0,0.276,0,0.415,0c0.322,0.046,0.645-0.091,0.921-0.273
		c0.276-0.228,0.415-0.546,0.415-0.865c0.092-2.324,2.073-4.191,4.422-4.191c0.138,0,0.276,0,0.415,0
		c0.507,0.045,1.013-0.228,1.244-0.684c1.29-2.779,4.145-4.556,7.231-4.556c3.593,0,6.771,2.415,7.692,5.832
		c0.138,0.455,0.506,0.774,0.967,0.865c2.994,0.501,5.158,3.052,5.158,6.059C35.604,18.541,32.84,21.32,29.386,21.32z"/>
	<path fill="#A6A6A6" d="M24.089,32.982c-0.093,0-0.185,0.045-0.276,0.137c-0.691,0.911-2.533,3.508-2.533,5.102
		c0,2.005,1.475,2.779,2.81,2.779c1.336,0,2.81-0.774,2.81-2.779c0-1.594-1.842-4.19-2.533-5.102
		C24.274,33.027,24.182,32.982,24.089,32.982z M24.089,39.178c-0.968,0-0.968-0.592-0.968-0.957c0-0.364,0.323-1.23,0.968-2.277
		c0.646,1.047,0.968,1.913,0.968,2.277C25.057,38.586,25.057,39.178,24.089,39.178z"/>
	<path fill="#A6A6A6" d="M14.048,32.982c-0.092,0-0.184,0.045-0.276,0.137c-0.691,0.911-2.533,3.508-2.533,5.102
		c0,2.005,1.474,2.779,2.81,2.779c1.336,0,2.81-0.774,2.81-2.779c0-1.594-1.842-4.19-2.533-5.102
		C14.279,33.027,14.187,32.982,14.048,32.982z M14.048,39.178c-0.967,0-0.967-0.592-0.967-0.957c0-0.364,0.323-1.23,0.967-2.277
		c0.645,1.047,0.967,1.913,0.967,2.277C15.062,38.586,15.062,39.178,14.048,39.178z"/>
	<path fill="#A6A6A6" d="M29.064,25.102c-0.093,0-0.185,0.045-0.276,0.137c-0.691,0.91-2.533,3.507-2.533,5.102
		c0,2.004,1.474,2.779,2.81,2.779c1.335,0,2.81-0.775,2.81-2.779c0-1.595-1.842-4.191-2.533-5.102
		C29.249,25.146,29.156,25.102,29.064,25.102z M29.064,31.297c-0.968,0-0.968-0.592-0.968-0.957c0-0.364,0.322-1.23,0.968-2.278
		c0.645,1.048,0.968,1.914,0.968,2.278C30.032,30.658,30.032,31.297,29.064,31.297z"/>
	<path fill="#A6A6A6" d="M19.345,25.238c-0.046-0.092-0.184-0.137-0.276-0.137s-0.184,0.045-0.276,0.137
		c-0.691,0.91-2.533,3.507-2.533,5.102c0,2.004,1.474,2.779,2.81,2.779c1.336,0,2.81-0.774,2.81-2.779
		C21.878,28.745,20.036,26.148,19.345,25.238z M19.069,31.297c-0.967,0-0.967-0.592-0.967-0.957c0-0.364,0.323-1.23,0.967-2.278
		c0.645,1.048,0.967,1.914,0.967,2.278C20.036,30.658,20.036,31.297,19.069,31.297z"/>
	<path fill="#A6A6A6" d="M9.351,25.238c-0.046-0.092-0.185-0.137-0.277-0.137c-0.092,0-0.184,0.045-0.276,0.137
		c-0.69,0.91-2.533,3.507-2.533,5.102c0,2.004,1.474,2.779,2.81,2.779c1.336,0,2.81-0.774,2.81-2.779
		C11.884,28.745,10.042,26.148,9.351,25.238z M9.074,31.297c-0.967,0-0.967-0.592-0.967-0.957c0-0.364,0.322-1.23,0.967-2.278
		c0.645,1.048,0.968,1.914,0.968,2.278C10.042,30.658,10.042,31.297,9.074,31.297z"/>
</g>
</svg>
