<?xml version="1.0" encoding="utf-8"?>
<!-- Generator: Adobe Illustrator 16.0.0, SVG Export Plug-In . SVG Version: 6.00 Build 0)  -->
<!DOCTYPE svg PUBLIC "-//W3C//DTD SVG 1.1//EN" "http://www.w3.org/Graphics/SVG/1.1/DTD/svg11.dtd">
<svg version="1.1" id="Layer_1" xmlns="http://www.w3.org/2000/svg" xmlns:xlink="http://www.w3.org/1999/xlink" x="0px" y="0px"
	 width="137.938px" height="42.239px" viewBox="0 0 137.938 42.239" enable-background="new 0 0 137.938 42.239"
	 xml:space="preserve">
<g>
	<g>
		<defs>
			<path id="SVGID_1_" d="M19.341,19.278v-5.141c0-0.241-0.188-0.44-0.429-0.456c-0.688-0.042-0.881-0.318-1.188-1.238
				c-0.698-2.158-2.691-9.104-2.748-9.638c0-0.331,0-0.467,0.614-0.467c0.252,0,0.457-0.204,0.457-0.456V0.666
				c0-0.252-0.205-0.456-0.457-0.456H8.435c-0.252,0-0.456,0.204-0.456,0.456v1.217c0,0.252,0.204,0.456,0.456,0.456
				c0.677,0,0.677,0.146,0.678,0.447c-0.057,0.559-2.188,7.299-3.018,9.624c-0.321,0.901-0.56,1.229-1.255,1.271
				c-0.241,0.015-0.429,0.215-0.429,0.456v5.141c0,0.252,0.204,0.456,0.457,0.456h1.217c0.228,0,0.42-0.168,0.452-0.395
				c0.303-2.187,0.567-3.429,2.466-3.529l5.724,0c1.923,0.101,2.187,1.343,2.489,3.53c0.031,0.226,0.224,0.395,0.452,0.395h1.217
				C19.137,19.734,19.341,19.53,19.341,19.278 M8.791,0.754c-0.038,0-0.069,0.03-0.069,0.068v1.215c0,0.019-0.008,0.037-0.021,0.05
				C8.688,2.1,8.671,2.107,8.653,2.107c-0.001,0-0.003,0-0.005,0c-0.027-0.002-0.054-0.005-0.08-0.008
				c-0.041-0.005-0.083-0.01-0.134-0.01c-0.114,0-0.206-0.092-0.206-0.206V0.666c0-0.113,0.092-0.206,0.206-0.206h7.156
				c0.114,0,0.206,0.092,0.206,0.206v0.02c0,0.038-0.031,0.068-0.068,0.068H8.791z M6.818,12.697
				c-0.354,0.991-0.684,1.472-1.598,1.529c-0.036,0.001-0.064,0.032-0.064,0.068v5.121c0,0.038-0.03,0.068-0.069,0.068H4.868
				c-0.114,0-0.207-0.092-0.207-0.205v-5.141c0-0.108,0.085-0.199,0.194-0.205c0.842-0.052,1.137-0.485,1.477-1.438
				c0.809-2.27,2.968-9.068,3.032-9.715C9.362,2.533,9.308,2.372,9.185,2.265c-0.022-0.021-0.03-0.054-0.016-0.082
				c0.013-0.028,0.044-0.042,0.074-0.037c0.429,0.082,0.613,0.32,0.614,0.797C9.788,3.643,7.546,10.651,6.818,12.697z M9.206,12.752
				c0-0.596,0.197-1.657,2.561-8.851c2.025,6.933,2.422,8.418,2.422,8.956c0,0.277,0,0.404-0.97,0.404h-3
				C9.206,13.261,9.206,13.173,9.206,12.752z M13.575,13.806h-3c-0.613,0-0.962-0.034-1.175-0.223
				c-0.023-0.021-0.03-0.054-0.016-0.082c0.014-0.027,0.043-0.043,0.074-0.037c0.172,0.034,0.399,0.048,0.76,0.048h3
				c0.831,0,1.221-0.064,1.221-0.655c0-0.55-0.302-1.736-2.432-9.026L11.911,3.5c-0.004-0.014-0.004-0.027,0.001-0.041l0.164-0.5
				c0.01-0.028,0.036-0.055,0.067-0.047c0.029,0.001,0.056,0.021,0.064,0.049l0.288,0.989c2.135,7.306,2.439,8.499,2.439,9.064
				C14.934,13.751,14.396,13.806,13.575,13.806z M17.935,19.46c-0.013,0.015-0.032,0.023-0.052,0.023h-0.216
				c-0.101,0-0.188-0.076-0.203-0.177c-0.196-1.419-0.381-2.759-1.385-3.374c-0.03-0.019-0.041-0.057-0.025-0.089
				c0.016-0.031,0.054-0.045,0.086-0.033c1.39,0.557,1.604,2.101,1.811,3.595C17.954,19.425,17.947,19.444,17.935,19.46z
				 M19.064,14.176c-0.013,0.012-0.03,0.019-0.047,0.019c-0.003,0-0.008,0-0.011-0.001c-0.211-0.036-0.386-0.102-0.535-0.2
				c-0.028-0.018-0.039-0.055-0.024-0.084c0.014-0.031,0.049-0.047,0.081-0.038c0.126,0.034,0.245,0.054,0.369,0.062
				c0.1,0.006,0.179,0.084,0.189,0.188C19.087,14.141,19.079,14.162,19.064,14.176z M94.489,14.137c0-0.237-0.182-0.435-0.417-0.454
				c-0.478-0.041-0.801-0.221-1.052-1.025c-0.221-0.706-0.648-2.008-1.124-3.452c-0.818-2.485-2.054-6.24-2.106-6.609
				c0-0.192,0-0.257,0.51-0.257c0.251,0,0.456-0.204,0.456-0.456V0.666c0-0.252-0.205-0.456-0.456-0.456h-6.694
				c-0.253,0-0.457,0.204-0.457,0.456v1.217c0,0.246,0.195,0.447,0.438,0.456c0.696,0.026,0.696,0.104,0.696,0.247
				c-0.052,0.662-2.505,7.612-3.412,10.024c-0.331,0.87-0.607,1.033-1.1,1.073c-0.238,0.018-0.42,0.217-0.42,0.455v1.217
				c0,0.252,0.203,0.457,0.456,0.457h5.099c0.251,0,0.457-0.204,0.457-0.457v-1.217c0-0.247-0.196-0.448-0.442-0.456
				c-1.194-0.038-1.194-0.456-1.194-0.614c0-0.404,0.246-1.158,0.482-1.888l0.043-0.131h4.752c0.285,0.871,0.562,1.816,0.566,2.02
				c0,0.343,0,0.614-0.845,0.614c-0.253,0-0.456,0.204-0.456,0.457v1.217c0,0.252,0.203,0.457,0.456,0.457h5.308
				c0.253,0,0.456-0.204,0.456-0.457V14.137z M84.124,13.804c0.248,0.078,0.498,0.119,0.789,0.128
				c0.106,0.004,0.191,0.089,0.196,0.196c0.001,0.02-0.007,0.039-0.021,0.053c-0.013,0.012-0.03,0.02-0.048,0.02
				c-0.002,0-0.005,0-0.006,0c-0.44-0.037-0.758-0.127-0.97-0.274c-0.028-0.02-0.037-0.056-0.023-0.087
				C84.056,13.81,84.091,13.794,84.124,13.804z M83.961,0.754c-0.038,0-0.069,0.03-0.069,0.068v1.21c0,0.019-0.008,0.037-0.021,0.05
				c-0.013,0.012-0.029,0.019-0.046,0.019c-0.003,0-0.004,0-0.006,0l-0.05-0.002c-0.058-0.005-0.114-0.008-0.172-0.01
				c-0.111-0.004-0.199-0.095-0.199-0.206V0.666c0-0.113,0.093-0.206,0.207-0.206h6.694c0.113,0,0.204,0.092,0.204,0.206v0.02
				c0,0.038-0.029,0.068-0.067,0.068H83.961z M86.752,3.85l1.538,4.836h-3.225L86.752,3.85z M81.589,12.904
				c-0.355,0.932-0.717,1.265-1.432,1.322c-0.037,0.002-0.063,0.032-0.063,0.068v1.197c0,0.038-0.031,0.068-0.068,0.068h-0.219
				c-0.114,0-0.207-0.092-0.207-0.205v-1.217c0-0.109,0.082-0.196,0.19-0.205c0.658-0.052,0.978-0.353,1.313-1.235
				c0.831-2.206,3.37-9.362,3.429-10.117c-0.001-0.127-0.041-0.22-0.137-0.304c-0.023-0.021-0.029-0.054-0.016-0.082
				c0.013-0.028,0.043-0.044,0.073-0.038c0.245,0.044,0.572,0.153,0.572,0.585C84.965,3.529,82.447,10.623,81.589,12.904z
				 M89.139,9.204c-0.014,0.017-0.034,0.028-0.056,0.028h-4.111c-0.021,0-0.043-0.012-0.056-0.029
				c-0.012-0.019-0.016-0.042-0.009-0.063l0.056-0.156c0.009-0.027,0.035-0.046,0.063-0.046h3.605l-1.734-5.459
				c-0.005-0.015-0.005-0.03,0-0.044l0.161-0.46c0.01-0.027,0.035-0.046,0.064-0.046h0.001c0.028,0,0.056,0.02,0.064,0.048
				l1.959,6.165C89.155,9.163,89.152,9.186,89.139,9.204z M89.082,14.226c-0.038,0-0.069,0.03-0.069,0.068v1.197
				c0,0.038-0.03,0.068-0.067,0.068h-0.22c-0.113,0-0.207-0.092-0.207-0.205v-1.217c0-0.113,0.094-0.206,0.207-0.206
				c0.916,0,1.095-0.32,1.095-0.872c-0.006-0.314-0.444-1.68-0.578-2.09l-0.02-0.063c-0.007-0.021-0.003-0.043,0.009-0.062
				c0.013-0.018,0.034-0.029,0.056-0.029h0.306c0.029,0,0.056,0.02,0.065,0.048l0.07,0.22c0.175,0.532,0.578,1.806,0.585,2.132
				C90.313,13.822,90.104,14.226,89.082,14.226z M94.208,14.15c-0.015,0.015-0.032,0.022-0.05,0.022
				c-0.006,0-0.011-0.001-0.016-0.002c-0.157-0.036-0.3-0.095-0.427-0.177c-0.028-0.018-0.039-0.055-0.024-0.084
				c0.013-0.032,0.044-0.051,0.08-0.039l0.061,0.017c0.073,0.02,0.141,0.04,0.219,0.046c0.08,0.006,0.146,0.065,0.172,0.152
				C94.23,14.107,94.223,14.132,94.208,14.15z M75.826,7.357c1.185-0.847,1.826-1.976,1.826-3.25c0-1.519-0.696-4.065-5.366-4.065
				c-0.541,0-1.066,0.034-1.648,0.071c-0.705,0.045-1.505,0.097-2.526,0.097h-2.204c-0.252,0-0.456,0.204-0.456,0.456v1.217
				c0,0.252,0.204,0.456,0.456,0.456c1.118,0,1.118,0,1.118,0.74v9.757c0,0.732,0,0.845-1.118,0.845
				c-0.252,0-0.456,0.204-0.456,0.457v1.217c0,0.252,0.204,0.457,0.456,0.457h2.854c0.46,0,1.086,0.025,1.721,0.051
				c0.67,0.026,1.352,0.054,1.868,0.054c4.255,0,5.765-2.597,5.765-4.821C78.114,9.777,77.392,8.175,75.826,7.357z M67.769,12.993
				c0,1.014-0.269,1.233-1.506,1.233c-0.038,0-0.069,0.03-0.069,0.068v1.197c0,0.038-0.029,0.068-0.068,0.068h-0.219
				c-0.113,0-0.205-0.092-0.205-0.205v-1.217c0-0.113,0.092-0.206,0.205-0.206c1.176,0,1.367-0.153,1.367-1.096V3.079
				c0-0.442-0.057-0.675-0.2-0.805c-0.022-0.021-0.028-0.054-0.014-0.082c0.013-0.027,0.042-0.043,0.073-0.036
				c0.48,0.089,0.636,0.352,0.636,1.08V12.993z M70.41,6.881h1.08c2.005,0,2.919-1.231,2.919-2.375c0-1.065-0.416-1.844-1.203-2.255
				c-0.031-0.017-0.045-0.054-0.031-0.087c0.013-0.033,0.05-0.05,0.085-0.039c1.06,0.354,1.644,1.255,1.644,2.537
				c0,1.21-0.957,2.513-3.058,2.513H70.41c-0.039,0-0.069-0.031-0.069-0.068V6.95C70.34,6.912,70.371,6.881,70.41,6.881z
				 M70.372,6.63V2.427c0.399-0.142,1.035-0.235,1.474-0.235c1.471,0,2.313,0.844,2.313,2.314c0,1.022-0.836,2.124-2.669,2.124
				H70.372z M70.372,12.878V8.865h1.684c1.714,0,2.481,1.183,2.481,2.355c0,1.226-0.819,2.46-2.649,2.46
				C70.372,13.681,70.372,13.178,70.372,12.878z M72.244,14.226c-0.677,0-1.154-0.097-1.459-0.294
				c-0.028-0.019-0.039-0.055-0.024-0.086c0.014-0.032,0.049-0.045,0.082-0.037c0.273,0.083,0.615,0.123,1.045,0.123
				c1.992,0,2.899-1.405,2.899-2.711c0-0.967-0.507-1.837-1.324-2.271c-0.031-0.017-0.045-0.056-0.03-0.088
				c0.015-0.033,0.05-0.049,0.086-0.037c1.07,0.378,1.762,1.381,1.762,2.553C75.28,12.75,74.331,14.226,72.244,14.226z
				 M75.469,1.037h-0.004c-0.009,0-0.018-0.002-0.024-0.005c-0.754-0.295-1.695-0.445-2.799-0.445c-0.536,0-1.064,0.034-1.623,0.069
				c-0.707,0.046-1.508,0.098-2.552,0.098h-2.204c-0.038,0-0.069,0.03-0.069,0.068v1.199c0,0.019-0.006,0.036-0.02,0.049
				s-0.03,0.02-0.049,0.02l0,0L66.069,2.09c-0.051-0.001-0.104-0.001-0.162-0.001c-0.113,0-0.205-0.092-0.205-0.206V0.666
				c0-0.113,0.092-0.206,0.205-0.206h2.204c1.04,0,1.838-0.052,2.543-0.097c0.562-0.037,1.092-0.07,1.632-0.07
				c1.303,0,2.38,0.205,3.199,0.609c0.03,0.008,0.052,0.034,0.052,0.067C75.537,1.006,75.506,1.037,75.469,1.037z M20.484,15.454
				c0.039,0.173,0.176,0.308,0.348,0.346c0.023,0.004,0.54,0.115,1.335,0.115c2.415,0,3.145-2.151,3.733-3.878
				c0.568-1.673,0.991-2.689,2.059-2.689h1.515v3.488c0,0.683,0,0.845-1.117,0.845c-0.251,0-0.456,0.204-0.456,0.457v1.217
				c0,0.252,0.204,0.457,0.456,0.457h5.583c0.251,0,0.455-0.204,0.455-0.457v-1.217c0-0.252-0.204-0.457-0.455-0.457
				c-1.118,0-1.118-0.162-1.118-0.845V2.974c0-0.423,0-0.635,1.118-0.635c0.251,0,0.455-0.204,0.455-0.456V0.666
				c0-0.252-0.204-0.456-0.455-0.456h-2.204c-1.021,0-1.734-0.052-2.364-0.097c-0.524-0.037-0.995-0.071-1.538-0.071
				c-5.034,0-5.786,2.915-5.786,4.652c0,1.307,0.68,2.876,2.151,3.703c-0.688,0.515-0.963,1.293-1.268,2.156
				c-0.058,0.164-0.118,0.333-0.184,0.509c-0.119,0.32-0.216,0.61-0.303,0.875c-0.44,1.32-0.559,1.674-1.813,1.745
				c-0.133,0.008-0.257,0.073-0.339,0.181c-0.08,0.107-0.11,0.244-0.081,0.375L20.484,15.454z M33.151,13.864
				c0.197,0.046,0.447,0.068,0.788,0.068c0.114,0,0.206,0.092,0.206,0.206c0,0.019-0.008,0.043-0.021,0.056s-0.03,0.026-0.048,0.026
				h-0.001c-0.494-0.016-0.797-0.089-0.981-0.236c-0.025-0.02-0.033-0.055-0.019-0.083C33.088,13.871,33.119,13.855,33.151,13.864z
				 M25.604,4.59c0-1.462,0.936-2.335,2.502-2.335c0.542,0,1.056,0.104,1.368,0.182v4.655H28.21
				C26.419,7.092,25.604,5.795,25.604,4.59z M30.219,12.993c0,0.94-0.208,1.233-1.506,1.233c-0.038,0-0.069,0.03-0.069,0.068v1.197
				c0,0.038-0.03,0.068-0.069,0.068h-0.219c-0.113,0-0.206-0.092-0.206-0.205v-1.217c0-0.113,0.092-0.206,0.206-0.206
				c1.207,0,1.368-0.22,1.368-1.096V9.185c0-0.037,0.031-0.068,0.069-0.068h0.357c0.038,0,0.069,0.031,0.069,0.068V12.993z
				 M30.219,7.568c0,0.038-0.031,0.069-0.069,0.069h-1.583c-0.556,0-1.066-0.123-1.522-0.362C27.014,7.258,27,7.22,27.014,7.187
				c0.015-0.032,0.052-0.049,0.086-0.037c0.363,0.13,0.727,0.193,1.11,0.193h1.514V2.258c0-0.021,0.01-0.041,0.026-0.054
				c0.016-0.013,0.038-0.018,0.059-0.013l0.357,0.087c0.031,0.007,0.053,0.035,0.053,0.066V7.568z M20.494,14.014
				c0.035-0.048,0.09-0.078,0.151-0.081c1.425-0.081,1.591-0.581,2.037-1.917c0.089-0.268,0.185-0.554,0.3-0.864
				c0.057-0.154,0.11-0.304,0.161-0.448l0.024-0.067c0.296-0.841,0.552-1.567,1.182-2.038l0.308-0.231l-0.335-0.189
				c-1.494-0.84-2.024-2.401-2.024-3.484c0-2.008,0.96-4.401,5.536-4.401c0.541,0,1.017,0.034,1.52,0.07
				c0.63,0.045,1.345,0.097,2.382,0.097h2.204c0.114,0,0.206,0.092,0.206,0.206v0.02c0,0.038-0.031,0.068-0.068,0.068h-1.984
				c-1.043,0-1.761-0.052-2.393-0.098c-0.5-0.035-0.973-0.069-1.51-0.069c-4.461,0-5.398,2.319-5.398,4.265
				c0,1.045,0.512,2.553,1.954,3.364l0.427,0.24c0.02,0.012,0.034,0.033,0.035,0.055c0.001,0.023-0.009,0.045-0.028,0.06
				l-0.392,0.293c-0.595,0.446-0.845,1.154-1.135,1.975l-0.023,0.065c-0.052,0.146-0.105,0.296-0.162,0.451
				c-0.115,0.307-0.207,0.582-0.299,0.86c-0.441,1.322-0.642,1.924-2.158,2.011c-0.021,0.001-0.04,0.011-0.051,0.027
				c-0.013,0.016-0.017,0.036-0.013,0.056l0.266,1.185c0.005,0.01,0.009,0.021,0.009,0.035c0,0.038-0.03,0.069-0.068,0.069h-0.004
				c-0.002,0-0.006,0-0.009-0.001c-0.124-0.018-0.221-0.033-0.251-0.04c-0.08-0.018-0.142-0.079-0.159-0.156l-0.273-1.217
				C20.443,14.123,20.457,14.062,20.494,14.014z M35.917,19.734h1.218c0.228,0,0.42-0.168,0.452-0.395
				c0.303-2.187,0.567-3.429,2.465-3.529l5.726,0c1.922,0.101,2.185,1.343,2.488,3.53c0.031,0.226,0.224,0.395,0.452,0.395h1.217
				c0.252,0,0.457-0.204,0.457-0.456v-5.141c0-0.241-0.188-0.44-0.429-0.456c-0.688-0.042-0.881-0.318-1.189-1.238
				c-0.698-2.158-2.691-9.104-2.748-9.638c0-0.331,0-0.467,0.614-0.467c0.252,0,0.457-0.204,0.457-0.456V0.666
				c0-0.252-0.204-0.456-0.457-0.456h-7.156c-0.252,0-0.456,0.204-0.456,0.456v1.217c0,0.252,0.204,0.456,0.456,0.456
				c0.678,0,0.678,0.146,0.678,0.447c-0.057,0.559-2.188,7.299-3.017,9.624c-0.322,0.901-0.561,1.229-1.256,1.271
				c-0.241,0.015-0.428,0.215-0.428,0.456v5.141C35.461,19.53,35.666,19.734,35.917,19.734z M49.577,13.871
				c0.127,0.034,0.245,0.054,0.369,0.062c0.1,0.006,0.179,0.084,0.189,0.188c0.001,0.021-0.006,0.042-0.022,0.057
				c-0.013,0.012-0.029,0.019-0.046,0.019c-0.004,0-0.008,0-0.012-0.001c-0.21-0.036-0.385-0.102-0.534-0.2
				c-0.028-0.018-0.039-0.055-0.025-0.084C49.511,13.878,49.545,13.861,49.577,13.871z M47.19,15.811
				c1.39,0.557,1.604,2.101,1.811,3.595c0.003,0.019-0.003,0.039-0.016,0.054c-0.014,0.015-0.033,0.023-0.052,0.023h-0.215
				c-0.102,0-0.188-0.076-0.203-0.177c-0.196-1.419-0.381-2.759-1.385-3.374c-0.03-0.019-0.042-0.057-0.026-0.089
				C47.12,15.812,47.157,15.798,47.19,15.811z M40.255,12.752c0-0.596,0.198-1.657,2.561-8.851c2.026,6.933,2.424,8.418,2.424,8.956
				c0,0.277,0,0.404-0.971,0.404h-3C40.255,13.261,40.255,13.173,40.255,12.752z M44.625,13.806h-3
				c-0.612,0-0.962-0.034-1.175-0.223c-0.023-0.021-0.03-0.054-0.016-0.082c0.013-0.027,0.045-0.043,0.074-0.037
				c0.172,0.034,0.399,0.048,0.76,0.048h3c0.83,0,1.221-0.064,1.221-0.655c0-0.55-0.303-1.736-2.432-9.026L42.961,3.5
				c-0.004-0.014-0.004-0.027,0-0.041l0.165-0.5c0.009-0.028,0.031-0.055,0.066-0.047c0.03,0.001,0.056,0.021,0.064,0.049
				l0.289,0.989c2.134,7.306,2.438,8.499,2.438,9.064C45.983,13.751,45.446,13.806,44.625,13.806z M39.84,0.754
				c-0.037,0-0.068,0.03-0.068,0.068v1.215c0,0.019-0.008,0.037-0.022,0.05c-0.012,0.012-0.03,0.019-0.047,0.019
				c-0.002,0-0.003,0-0.005,0c-0.028-0.002-0.054-0.005-0.081-0.008c-0.041-0.005-0.081-0.01-0.134-0.01
				c-0.113,0-0.206-0.092-0.206-0.206V0.666c0-0.113,0.092-0.206,0.206-0.206h7.156c0.114,0,0.206,0.092,0.206,0.206v0.02
				c0,0.038-0.031,0.068-0.068,0.068H39.84z M35.711,14.137c0-0.108,0.085-0.199,0.194-0.205c0.842-0.052,1.136-0.485,1.477-1.438
				c0.808-2.27,2.967-9.068,3.031-9.715c-0.001-0.247-0.056-0.407-0.178-0.514c-0.023-0.021-0.03-0.054-0.018-0.082
				c0.014-0.028,0.044-0.042,0.075-0.037c0.429,0.082,0.613,0.32,0.614,0.797c-0.069,0.7-2.311,7.708-3.039,9.754
				c-0.355,0.991-0.684,1.472-1.599,1.529c-0.036,0.001-0.064,0.032-0.064,0.068v5.121c0,0.038-0.03,0.068-0.068,0.068h-0.219
				c-0.113,0-0.206-0.092-0.206-0.205V14.137z M57.146,15.979c4.184,0,6.583-2.912,6.583-7.99C63.729,2.837,61.391,0,57.146,0
				c-4.246,0-6.583,2.837-6.583,7.989C50.562,13.066,52.962,15.979,57.146,15.979z M57.502,14.121c-0.475,0-0.915-0.106-1.309-0.315
				c-0.032-0.017-0.045-0.055-0.031-0.087c0.015-0.034,0.052-0.048,0.085-0.038c0.283,0.098,0.585,0.146,0.898,0.146
				c1.466,0,3.214-1.013,3.214-5.838c0-2.995-0.664-4.866-1.974-5.561c-0.031-0.017-0.045-0.055-0.03-0.088
				c0.014-0.033,0.05-0.049,0.085-0.037c1.601,0.549,2.412,2.515,2.412,5.843C60.853,13.084,59.031,14.121,57.502,14.121z
				 M54.182,7.989c0-2.558,0.514-5.607,2.963-5.607c2.449,0,2.964,3.049,2.964,5.607c0,2.549-0.515,5.587-2.964,5.587
				C54.696,13.576,54.182,10.538,54.182,7.989z M57.146,0.25c1.083,0,2.061,0.204,2.905,0.606c0.029,0.007,0.051,0.034,0.051,0.067
				c0,0.037-0.03,0.068-0.068,0.068c-0.002,0-0.002,0-0.004,0c-0.008,0-0.017-0.001-0.024-0.005
				c-0.746-0.293-1.588-0.442-2.503-0.442c-3.996,0-6.196,2.699-6.196,7.602c0,3.512,1.171,5.934,3.388,7.004
				c0.032,0.016,0.047,0.055,0.032,0.088c-0.011,0.026-0.036,0.042-0.063,0.042c-0.008,0-0.017-0.002-0.025-0.005
				c-2.467-0.981-3.826-3.569-3.826-7.287C50.813,2.999,53.061,0.25,57.146,0.25z"/>
		</defs>
		<use xlink:href="#SVGID_1_"  overflow="visible" fill="#FFFFFF"/>
		<clipPath id="SVGID_2_">
			<use xlink:href="#SVGID_1_"  overflow="visible"/>
		</clipPath>
		<rect x="4.411" clip-path="url(#SVGID_2_)" fill="#FFFFFF" width="90.078" height="19.734"/>
	</g>
	<g>
		<defs>
			<path id="SVGID_3_" d="M21.146,24.698c2.039,0,2.644,2.821,2.781,3.685c0.036,0.222,0.227,0.385,0.451,0.385h1.237
				c0.252,0,0.456-0.204,0.456-0.456V23.17c0-0.251-0.204-0.456-0.456-0.456h-1.196c-0.146,0-0.283,0.069-0.368,0.188
				c-0.098,0.135-0.138,0.19-0.407,0.19c-0.148,0-0.338-0.091-0.579-0.206c-0.448-0.214-1.063-0.508-2.023-0.508
				c-4.144,0-6.52,2.957-6.52,8.115c0,5.153,2.181,7.99,6.142,7.99c1.352,0,2.148-0.178,2.851-0.336
				c0.503-0.113,0.939-0.21,1.493-0.21c0.228,0,0.422-0.167,0.453-0.393l0.607-4.343c0.019-0.131-0.021-0.263-0.107-0.362
				c-0.087-0.1-0.212-0.157-0.344-0.157h-1.28c-0.2,0-0.377,0.131-0.437,0.323c-0.651,2.127-1.544,3.161-2.731,3.161
				c-2.501,0-3.027-3.084-3.027-5.671C18.14,28.75,18.434,24.698,21.146,24.698 M20.158,36.3c0.014-0.032,0.052-0.048,0.084-0.038
				c0.292,0.103,0.604,0.154,0.924,0.154c1.313,0,2.284-1.092,2.973-3.337c0.025-0.086,0.106-0.146,0.196-0.146h1.28
				c0.06,0,0.116,0.026,0.155,0.071c0.04,0.045,0.057,0.103,0.048,0.164c0,0.037-0.029,0.06-0.068,0.06h-1.059
				c-0.03,0-0.057,0.02-0.065,0.048c-0.708,2.311-1.722,3.435-3.102,3.435c-0.484,0-0.934-0.108-1.335-0.321
				C20.157,36.372,20.144,36.333,20.158,36.3z M23.247,23.318c0.015-0.034,0.052-0.052,0.086-0.038
				c0.121,0.043,0.219,0.064,0.31,0.064c0.339,0,0.462-0.091,0.611-0.294c0.038-0.053,0.1-0.084,0.165-0.084h1.196
				c0.113,0,0.206,0.092,0.206,0.205v0.021c0,0.038-0.031,0.069-0.069,0.069h-0.977c-0.021,0-0.043,0.01-0.055,0.028
				c-0.169,0.232-0.328,0.35-0.721,0.35c-0.231,0-0.457-0.108-0.718-0.231C23.248,23.39,23.233,23.351,23.247,23.318z
				 M24.659,28.438c0.002,0.019-0.003,0.04-0.017,0.055c-0.012,0.016-0.031,0.025-0.051,0.025h-0.214
				c-0.101,0-0.188-0.073-0.203-0.174c-0.104-0.656-0.552-2.855-1.945-3.623c-0.031-0.017-0.044-0.055-0.029-0.088
				c0.014-0.032,0.049-0.048,0.084-0.037C23.954,25.168,24.501,27.473,24.659,28.438z M18.434,37.691
				c0.033,0.016,0.047,0.055,0.032,0.089c-0.011,0.026-0.036,0.041-0.063,0.041c-0.008,0-0.017-0.002-0.025-0.005
				c-2.359-0.946-3.607-3.478-3.607-7.322c0-4.997,2.286-7.864,6.27-7.864c0.822,0,1.355,0.219,1.83,0.445
				c0.03,0.007,0.053,0.034,0.053,0.066c0,0.038-0.031,0.07-0.069,0.07h-0.003c-0.009,0-0.018-0.002-0.026-0.006
				c-0.319-0.131-0.771-0.28-1.429-0.28c-3.898,0-6.133,2.817-6.133,7.727C15.265,34.228,16.36,36.662,18.434,37.691z"/>
		</defs>
		<use xlink:href="#SVGID_3_"  overflow="visible" fill="#FFFFFF"/>
		<clipPath id="SVGID_4_">
			<use xlink:href="#SVGID_3_"  overflow="visible"/>
		</clipPath>
		<rect x="14.521" y="22.379" clip-path="url(#SVGID_4_)" fill="#FFFFFF" width="11.564" height="16.104"/>
	</g>
	<path fill="#FFFFFF" d="M87.845,22.715h-5.582c-0.252,0-0.457,0.204-0.457,0.456v1.218c0,0.252,0.205,0.456,0.457,0.456
		c1.117,0,1.117,0.155,1.117,0.53v3.867h-5.13v-3.909c0-0.355,0-0.488,1.118-0.488c0.251,0,0.456-0.204,0.456-0.456V23.17
		c0-0.251-0.205-0.456-0.456-0.456h-5.582c-0.253,0-0.456,0.204-0.456,0.456v1.218c0,0.252,0.203,0.456,0.456,0.456
		c1.117,0,1.117,0.155,1.117,0.53v9.968c0,0.683,0,0.845-1.117,0.845c-0.253,0-0.456,0.203-0.456,0.456v1.217
		c0,0.252,0.203,0.456,0.456,0.456h5.582c0.251,0,0.456-0.204,0.456-0.456v-1.217c0-0.252-0.205-0.456-0.456-0.456
		c-1.118,0-1.118-0.172-1.118-0.805v-3.865h5.13v3.825c0,0.683,0,0.845-1.117,0.845c-0.252,0-0.457,0.203-0.457,0.456v1.217
		c0,0.252,0.205,0.456,0.457,0.456h5.582c0.251,0,0.456-0.204,0.456-0.456v-1.217c0-0.252-0.205-0.456-0.456-0.456
		c-1.118,0-1.118-0.172-1.118-0.805v-10.05c0-0.355,0-0.488,1.118-0.488c0.251,0,0.456-0.204,0.456-0.456V23.17
		C88.301,22.919,88.096,22.715,87.845,22.715z M78.496,36.401c0.014-0.028,0.048-0.045,0.078-0.036
		c0.198,0.048,0.458,0.072,0.795,0.072c0.112,0,0.205,0.092,0.205,0.206c0,0.018-0.008,0.043-0.021,0.056
		c-0.014,0.012-0.031,0.026-0.05,0.026l0,0c-0.499-0.017-0.804-0.09-0.989-0.239C78.49,36.464,78.482,36.431,78.496,36.401z
		 M86.972,36.401c0.014-0.028,0.047-0.045,0.078-0.036c0.198,0.048,0.458,0.072,0.795,0.072c0.112,0,0.204,0.092,0.204,0.206
		c0,0.018-0.007,0.043-0.02,0.056c-0.014,0.012-0.032,0.026-0.05,0.026h-0.001c-0.498-0.017-0.803-0.09-0.988-0.239
		C86.966,36.464,86.958,36.431,86.972,36.401z M74.143,23.26c-0.038,0-0.069,0.031-0.069,0.068v1.202
		c0,0.018-0.008,0.036-0.02,0.048c-0.014,0.013-0.03,0.02-0.049,0.02h-0.002l-0.069-0.001c-0.048,0-0.095-0.003-0.147-0.003
		c-0.114,0-0.207-0.091-0.207-0.205V23.17c0-0.112,0.093-0.205,0.207-0.205h5.582c0.112,0,0.205,0.092,0.205,0.205v0.021
		c0,0.038-0.031,0.069-0.068,0.069H74.143z M75.647,35.498c0,0.94-0.207,1.233-1.504,1.233c-0.038,0-0.069,0.03-0.069,0.069v1.196
		c0,0.038-0.03,0.069-0.068,0.069h-0.219c-0.114,0-0.207-0.093-0.207-0.206v-1.217c0-0.114,0.093-0.206,0.207-0.206
		c1.206,0,1.367-0.22,1.367-1.095v-9.968c0-0.282-0.063-0.458-0.206-0.574c-0.023-0.02-0.031-0.054-0.017-0.083
		c0.014-0.028,0.045-0.041,0.076-0.036c0.454,0.101,0.64,0.347,0.64,0.85V35.498z M84.125,35.498c0,0.94-0.209,1.233-1.506,1.233
		c-0.038,0-0.068,0.03-0.068,0.069v1.196c0,0.038-0.031,0.069-0.069,0.069h-0.219c-0.113,0-0.205-0.093-0.205-0.206v-1.217
		c0-0.114,0.092-0.206,0.205-0.206c1.207,0,1.368-0.22,1.368-1.095v-3.987c0-0.038,0.03-0.069,0.068-0.069h0.356
		c0.038,0,0.069,0.031,0.069,0.069V35.498z M84.125,29.717c0,0.038-0.031,0.069-0.069,0.069h-5.768
		c-0.038,0-0.069-0.031-0.069-0.069V29.56c0-0.037,0.031-0.068,0.069-0.068h5.343v-4.118c0-0.282-0.064-0.458-0.205-0.574
		c-0.024-0.02-0.032-0.054-0.019-0.083c0.014-0.028,0.046-0.041,0.076-0.036c0.455,0.101,0.642,0.347,0.642,0.85V29.717z
		 M88.049,23.191c0,0.038-0.03,0.069-0.067,0.069H82.62c-0.038,0-0.068,0.031-0.068,0.068v1.202c0,0.018-0.008,0.036-0.021,0.048
		c-0.013,0.013-0.03,0.02-0.048,0.02h-0.001l-0.07-0.001c-0.046,0-0.095-0.003-0.147-0.003c-0.113,0-0.205-0.091-0.205-0.205V23.17
		c0-0.112,0.092-0.205,0.205-0.205h5.582c0.112,0,0.204,0.092,0.204,0.205V23.191z"/>
	<g>
		<defs>
			<path id="SVGID_5_" d="M13.592,22.715H8.431c-0.252,0-0.457,0.204-0.457,0.456v1.218c0,0.241,0.188,0.44,0.428,0.456
				c0.958,0.06,0.958,0.323,0.958,0.656c-0.005,0.35-0.669,2.547-1.424,4.749c-0.286-0.508-0.552-0.982-0.8-1.42
				c-0.926-1.638-1.726-3.052-1.774-3.329c0-0.366,0-0.656,0.762-0.656c0.251,0,0.456-0.204,0.456-0.456V23.17
				c0-0.251-0.205-0.456-0.456-0.456H0.457C0.204,22.715,0,22.919,0,23.17v1.218c0,0.24,0.186,0.438,0.425,0.456
				c0.615,0.042,0.894,0.467,1.4,1.327l4.66,7.984c-0.627,1.836-0.982,1.989-1.349,1.989c-0.856,0-1.472-0.986-1.882-3.012
				c-0.043-0.214-0.23-0.367-0.448-0.367H1.464c-0.132,0-0.257,0.059-0.344,0.158c-0.086,0.1-0.126,0.233-0.107,0.362l0.608,4.324
				c0.03,0.212,0.206,0.376,0.42,0.391c0.345,0.022,0.673,0.103,1.054,0.195c0.558,0.136,1.191,0.289,2.02,0.289
				c1.969,0,2.984-0.539,4.165-3.871c0.669-1.872,1.372-3.891,2-5.694c0.358-1.027,0.691-1.984,0.979-2.801
				c0.319-0.882,0.69-1.228,1.365-1.273c0.238-0.018,0.424-0.215,0.424-0.456V23.17C14.048,22.919,13.844,22.715,13.592,22.715
				 M2.956,33.31H1.821c-0.02,0-0.039,0.01-0.053,0.024c-0.012,0.014-0.018,0.035-0.015,0.054l0.607,4.315
				c0.003,0.021-0.004,0.043-0.019,0.058c-0.013,0.013-0.031,0.02-0.049,0.02c-0.003,0-0.005,0-0.009,0
				c-0.029-0.004-0.058-0.008-0.087-0.013c-0.045-0.007-0.091-0.015-0.138-0.018c-0.097-0.007-0.176-0.08-0.189-0.177L1.261,33.25
				c-0.008-0.058,0.009-0.118,0.047-0.162c0.042-0.045,0.097-0.072,0.156-0.072h1.343c0.097,0,0.182,0.07,0.202,0.166l0.006,0.025
				c0.006,0.009,0.01,0.022,0.01,0.035C3.024,33.28,2.994,33.31,2.956,33.31z M0.765,24.59c0,0.037-0.03,0.068-0.068,0.068
				c-0.002,0-0.002,0-0.003,0c-0.005,0-0.011,0-0.017-0.002c-0.03-0.007-0.058-0.017-0.087-0.026
				c-0.049-0.016-0.094-0.032-0.147-0.036c-0.107-0.007-0.191-0.097-0.191-0.205V23.17c0-0.112,0.092-0.205,0.206-0.205h5.666
				c0.113,0,0.205,0.092,0.205,0.205v0.021c0,0.038-0.031,0.069-0.068,0.069H0.813c-0.037,0-0.068,0.031-0.068,0.068v1.213
				C0.757,24.553,0.765,24.57,0.765,24.59z M7.207,34.436c-0.649,1.904-1.087,2.253-1.714,2.253c-0.271,0-0.526-0.073-0.757-0.218
				c-0.029-0.018-0.041-0.054-0.026-0.085c0.014-0.033,0.049-0.048,0.081-0.038c0.112,0.031,0.229,0.047,0.347,0.047
				c0.563,0,0.963-0.334,1.586-2.16l0.037-0.109l-0.058-0.098l-4.659-7.985c-0.32-0.543-0.595-0.977-0.971-1.224
				c-0.028-0.019-0.038-0.055-0.024-0.087c0.014-0.03,0.047-0.049,0.082-0.036c0.61,0.181,0.945,0.685,1.389,1.435l4.733,8.111
				c0.01,0.018,0.012,0.037,0.005,0.057L7.207,34.436z M8.659,30.531l-0.232,0.674c-0.009,0.025-0.032,0.043-0.058,0.045
				c-0.002,0-0.004,0-0.006,0c-0.025,0-0.047-0.013-0.06-0.034l-0.254-0.455c-0.01-0.016-0.012-0.038-0.005-0.055l0.13-0.378
				c0.592-1.726,1.431-4.367,1.437-4.83c0-0.333-0.085-0.535-0.283-0.672c-0.028-0.018-0.037-0.055-0.023-0.085
				c0.014-0.03,0.05-0.046,0.08-0.037c0.632,0.169,0.72,0.558,0.72,0.953C10.097,26.164,9.214,28.915,8.659,30.531z M13.798,23.191
				c0,0.038-0.031,0.069-0.068,0.069H8.787c-0.037,0-0.068,0.031-0.068,0.068v1.195c0.003,0.008,0.004,0.017,0.004,0.026
				c0,0.039-0.03,0.07-0.068,0.07c-0.003-0.001-0.003-0.001-0.003-0.001c-0.003,0.001-0.006,0-0.009-0.001l-0.041-0.004
				c-0.059-0.007-0.118-0.015-0.186-0.019c-0.107-0.007-0.192-0.098-0.192-0.205V23.17c0-0.112,0.092-0.205,0.206-0.205h5.162
				c0.113,0,0.206,0.092,0.206,0.205V23.191z"/>
		</defs>
		<use xlink:href="#SVGID_5_"  overflow="visible" fill="#FFFFFF"/>
		<clipPath id="SVGID_6_">
			<use xlink:href="#SVGID_5_"  overflow="visible"/>
		</clipPath>
		<rect y="22.715" clip-path="url(#SVGID_6_)" fill="#FFFFFF" width="14.048" height="15.769"/>
	</g>
	<g>
		<defs>
			<path id="SVGID_7_" d="M71.703,36.188c-0.478-0.042-0.801-0.221-1.051-1.025c-0.222-0.706-0.649-2.008-1.125-3.453
				c-0.817-2.486-2.054-6.241-2.106-6.61c0-0.192,0-0.256,0.509-0.256c0.253,0,0.456-0.204,0.456-0.456V23.17
				c0-0.251-0.203-0.456-0.456-0.456h-6.694c-0.252,0-0.457,0.204-0.457,0.456v1.218c0,0.246,0.194,0.447,0.44,0.456
				c0.694,0.025,0.694,0.104,0.694,0.247c-0.052,0.663-2.504,7.613-3.412,10.024c-0.332,0.87-0.606,1.034-1.099,1.073
				c-0.239,0.019-0.421,0.217-0.421,0.455v1.217c0,0.252,0.205,0.456,0.457,0.456h5.099c0.252,0,0.456-0.204,0.456-0.456v-1.217
				c0-0.246-0.195-0.449-0.441-0.456c-1.195-0.039-1.195-0.457-1.195-0.615c0-0.402,0.246-1.159,0.484-1.887l0.043-0.132h4.752
				c0.285,0.872,0.562,1.816,0.565,2.02c0,0.344,0,0.615-0.845,0.615c-0.253,0-0.456,0.203-0.456,0.456v1.217
				c0,0.252,0.203,0.456,0.456,0.456h5.308c0.254,0,0.457-0.204,0.457-0.456v-1.217C72.121,36.406,71.938,36.208,71.703,36.188
				 M61.672,36.346c0.015-0.031,0.048-0.047,0.083-0.037c0.248,0.078,0.498,0.118,0.789,0.128c0.107,0.004,0.19,0.088,0.196,0.196
				c0.001,0.02-0.007,0.039-0.021,0.052c-0.012,0.013-0.03,0.02-0.047,0.02c-0.002,0-0.004,0-0.006,0
				c-0.441-0.038-0.758-0.127-0.97-0.274C61.667,36.411,61.658,36.375,61.672,36.346z M61.592,23.26
				c-0.038,0-0.069,0.031-0.069,0.068v1.21c0,0.02-0.008,0.037-0.021,0.049c-0.013,0.013-0.03,0.02-0.046,0.02
				c-0.002,0-0.003,0-0.005,0l-0.051-0.003c-0.057-0.003-0.113-0.008-0.17-0.01c-0.112-0.003-0.198-0.094-0.198-0.205V23.17
				c0-0.112,0.092-0.205,0.206-0.205h6.694c0.114,0,0.206,0.092,0.206,0.205v0.021c0,0.038-0.03,0.069-0.068,0.069H61.592z
				 M64.383,26.356l1.538,4.836h-3.225L64.383,26.356z M59.221,35.408c-0.356,0.933-0.717,1.266-1.432,1.323
				c-0.037,0.003-0.063,0.031-0.063,0.069v1.196c0,0.038-0.031,0.069-0.069,0.069h-0.219c-0.114,0-0.206-0.093-0.206-0.206v-1.217
				c0-0.109,0.083-0.197,0.19-0.205c0.658-0.053,0.978-0.353,1.314-1.235c0.831-2.206,3.369-9.362,3.428-10.117
				c0-0.127-0.042-0.219-0.137-0.305c-0.023-0.02-0.029-0.053-0.016-0.081s0.044-0.044,0.074-0.037
				c0.245,0.044,0.572,0.153,0.572,0.584C62.597,26.033,60.079,33.127,59.221,35.408z M66.769,31.708
				c-0.013,0.017-0.033,0.028-0.055,0.028h-4.111c-0.022,0-0.042-0.011-0.055-0.028c-0.013-0.018-0.017-0.041-0.009-0.063
				l0.055-0.157c0.009-0.027,0.035-0.047,0.064-0.047h3.606l-1.735-5.458c-0.004-0.014-0.004-0.031,0.001-0.044l0.16-0.46
				c0.01-0.026,0.036-0.045,0.064-0.045c0.021,0,0.056,0.019,0.065,0.047l1.96,6.167C66.786,31.668,66.782,31.691,66.769,31.708z
				 M66.712,36.731c-0.038,0-0.069,0.03-0.069,0.069v1.196c0,0.038-0.03,0.069-0.068,0.069h-0.219c-0.114,0-0.206-0.093-0.206-0.206
				v-1.217c0-0.114,0.092-0.206,0.206-0.206c0.916,0,1.095-0.32,1.095-0.873c-0.006-0.313-0.443-1.679-0.577-2.09l-0.021-0.063
				c-0.007-0.021-0.003-0.044,0.01-0.063c0.013-0.019,0.033-0.028,0.055-0.028h0.306c0.029,0,0.056,0.02,0.065,0.048l0.071,0.22
				c0.174,0.532,0.578,1.807,0.585,2.132C67.945,36.328,67.735,36.731,66.712,36.731z M71.838,36.655
				c-0.015,0.014-0.032,0.021-0.05,0.021c-0.005,0-0.011,0-0.016-0.002c-0.157-0.035-0.3-0.096-0.427-0.176
				c-0.028-0.018-0.038-0.055-0.024-0.085c0.013-0.031,0.046-0.049,0.08-0.038l0.061,0.017c0.072,0.021,0.141,0.039,0.22,0.046
				c0.079,0.006,0.146,0.065,0.172,0.151C71.861,36.613,71.855,36.637,71.838,36.655z"/>
		</defs>
		<use xlink:href="#SVGID_7_"  overflow="visible" fill="#FFFFFF"/>
		<clipPath id="SVGID_8_">
			<use xlink:href="#SVGID_7_"  overflow="visible"/>
		</clipPath>
		<rect x="56.981" y="22.715" clip-path="url(#SVGID_8_)" fill="#FFFFFF" width="15.14" height="15.601"/>
	</g>
	<g>
		<defs>
			<path id="SVGID_9_" d="M56.629,36.349c-0.087-0.103-0.215-0.162-0.35-0.162c-1.793,0-1.919-0.902-2.128-2.42
				c-0.235-1.683-0.751-3.439-2.697-4.048c0.707-0.964,2.171-2.934,3.064-3.932c0.634-0.696,0.964-0.943,1.553-0.943
				c0.252,0,0.456-0.204,0.456-0.456V23.17c0-0.251-0.203-0.456-0.456-0.456h-5.477c-0.252,0-0.456,0.204-0.456,0.456v1.218
				c0,0.252,0.204,0.456,0.456,0.456c0.928,0,0.928,0.25,0.932,0.344c-0.063,0.261-0.826,1.291-1.33,1.973l-0.324,0.437
				c-0.849,1.14-1.259,1.644-2.069,1.644h-0.718v-3.909c0-0.355,0-0.488,1.118-0.488c0.252,0,0.456-0.204,0.456-0.456V23.17
				c0-0.251-0.204-0.456-0.456-0.456h-5.582c-0.252,0-0.457,0.204-0.457,0.456v1.218c0,0.252,0.205,0.456,0.457,0.456
				c1.117,0,1.117,0.155,1.117,0.53v9.968c0,0.683,0,0.845-1.117,0.845c-0.252,0-0.457,0.203-0.457,0.456v1.217
				c0,0.252,0.205,0.456,0.457,0.456h5.582c0.252,0,0.456-0.204,0.456-0.456v-1.217c0-0.252-0.204-0.456-0.456-0.456
				c-1.118,0-1.118-0.172-1.118-0.805v-3.865h0.677c1.958,0,2.403,1.497,2.921,3.231c0.521,1.751,1.113,3.736,3.563,3.736
				c1.357,0,1.911-0.173,1.97-0.192c0.16-0.053,0.277-0.189,0.306-0.354l0.209-1.218C56.752,36.588,56.716,36.451,56.629,36.349
				 M47.33,36.401c0.014-0.028,0.044-0.045,0.078-0.036c0.198,0.048,0.458,0.072,0.794,0.072c0.113,0,0.206,0.092,0.206,0.206
				c0,0.018-0.007,0.043-0.021,0.056c-0.013,0.012-0.03,0.026-0.049,0.026h-0.001c-0.498-0.017-0.802-0.09-0.988-0.239
				C47.323,36.464,47.316,36.431,47.33,36.401z M52.026,30.239c0.031,0.019,0.043,0.058,0.027,0.089
				c-0.011,0.025-0.036,0.04-0.062,0.04c-0.009,0-0.018-0.001-0.025-0.005c-0.035-0.014-0.068-0.03-0.103-0.046
				c-0.056-0.026-0.109-0.05-0.168-0.069l-0.426-0.133c-0.021-0.006-0.037-0.023-0.044-0.043c-0.006-0.021-0.002-0.044,0.01-0.063
				l0.027-0.038c0.018-0.023,0.047-0.034,0.076-0.024l0.043,0.014C51.607,30.031,51.819,30.122,52.026,30.239z M50.951,23.26
				c-0.039,0-0.069,0.031-0.069,0.068v1.202c0,0.019-0.008,0.037-0.021,0.049c-0.013,0.013-0.03,0.02-0.048,0.02
				c-0.001,0-0.001,0-0.003-0.001c-0.083-0.002-0.159-0.004-0.216-0.004c-0.114,0-0.206-0.091-0.206-0.205V23.17
				c0-0.112,0.092-0.205,0.206-0.205h5.477c0.114,0,0.206,0.092,0.206,0.205v0.021c0,0.038-0.031,0.069-0.069,0.069H50.951z
				 M42.977,23.26c-0.038,0-0.069,0.031-0.069,0.068v1.202c0,0.018-0.007,0.036-0.021,0.048c-0.013,0.013-0.03,0.02-0.048,0.02
				h-0.001l-0.071-0.001c-0.047,0-0.095-0.003-0.147-0.003c-0.114,0-0.207-0.091-0.207-0.205V23.17c0-0.112,0.092-0.205,0.207-0.205
				h5.582c0.113,0,0.206,0.092,0.206,0.205v0.021c0,0.038-0.03,0.069-0.069,0.069H42.977z M44.481,35.498
				c0,0.94-0.207,1.233-1.504,1.233c-0.038,0-0.069,0.03-0.069,0.069v1.196c0,0.038-0.031,0.069-0.068,0.069h-0.219
				c-0.114,0-0.207-0.093-0.207-0.206v-1.217c0-0.114,0.092-0.206,0.207-0.206c1.207,0,1.367-0.22,1.367-1.095v-9.968
				c0-0.282-0.063-0.458-0.205-0.574c-0.024-0.02-0.031-0.054-0.018-0.083c0.014-0.028,0.046-0.041,0.077-0.036
				c0.454,0.101,0.64,0.347,0.64,0.85V35.498z M47.122,29.786c-0.038,0-0.069-0.031-0.069-0.069V29.56
				c0-0.037,0.031-0.068,0.069-0.068h0.681c0.97,0,1.459-0.657,2.271-1.744l0.341-0.461c0.85-1.15,1.293-1.781,1.355-2.04
				l0.008-0.035l-0.002-0.036c-0.006-0.159-0.071-0.278-0.206-0.376c-0.027-0.02-0.035-0.055-0.021-0.084
				c0.013-0.029,0.047-0.045,0.078-0.038c0.414,0.1,0.63,0.318,0.642,0.65l0.001,0.043c0,0.006,0,0.011-0.001,0.017l-0.01,0.045
				c-0.069,0.287-0.481,0.877-1.378,2.091l-0.342,0.461c-0.837,1.122-1.342,1.8-2.381,1.8H47.122z M53.215,37.99
				c-0.012,0.024-0.037,0.039-0.062,0.039c-0.009,0-0.017-0.002-0.025-0.006c-1.363-0.521-1.812-2.023-2.206-3.348
				c-0.365-1.223-0.742-2.488-1.745-3.063c-0.031-0.019-0.043-0.057-0.028-0.088c0.014-0.033,0.051-0.046,0.086-0.035
				c1.338,0.5,1.763,1.927,2.174,3.304c0.369,1.235,0.749,2.51,1.778,3.108C53.218,37.919,53.23,37.958,53.215,37.99z
				 M56.457,36.694c-0.013,0.013-0.03,0.019-0.047,0.019c-0.001,0-0.002,0-0.004,0c-0.497-0.024-0.889-0.123-1.197-0.301
				c-0.03-0.018-0.042-0.056-0.028-0.087c0.014-0.032,0.05-0.048,0.084-0.038c0.312,0.104,0.633,0.151,1.015,0.151
				c0.061,0,0.118,0.026,0.157,0.072c0.036,0.044,0.042,0.095,0.042,0.136C56.479,36.664,56.47,36.681,56.457,36.694z"/>
		</defs>
		<use xlink:href="#SVGID_9_"  overflow="visible" fill="#FFFFFF"/>
		<clipPath id="SVGID_10_">
			<use xlink:href="#SVGID_9_"  overflow="visible"/>
		</clipPath>
		<rect x="42.164" y="22.715" clip-path="url(#SVGID_10_)" fill="#FFFFFF" width="14.588" height="15.769"/>
	</g>
	<g>
		<defs>
			<path id="SVGID_11_" d="M121.382,24.844c0.254,0,0.456-0.204,0.456-0.456V23.17c0-0.251-0.202-0.456-0.456-0.456h-5.58
				c-0.253,0-0.456,0.204-0.456,0.456v1.218c0,0.252,0.203,0.456,0.456,0.456c1.118,0,1.118,0.022,1.118,0.593v10.392h-5.132V25.437
				c0-0.537,0-0.593,1.118-0.593c0.253,0,0.456-0.204,0.456-0.456V23.17c0-0.251-0.203-0.456-0.456-0.456h-5.582
				c-0.252,0-0.456,0.204-0.456,0.456v1.218c0,0.252,0.204,0.456,0.456,0.456c1.117,0,1.117,0.036,1.117,0.635v9.863
				c0,0.49,0,0.845-1.117,0.845c-0.252,0-0.456,0.203-0.456,0.456v1.217c0,0.252,0.204,0.456,0.456,0.456l9.796-0.001
				c1.974,0.104,2.309,1.466,2.594,3.531c0.032,0.226,0.225,0.394,0.452,0.394h1.216c0.254,0,0.456-0.203,0.456-0.457v-5.14
				c0-0.252-0.202-0.456-0.456-0.456c-1.117,0-1.117-0.355-1.117-0.845v-9.863C120.265,24.917,120.265,24.844,121.382,24.844
				 M107.681,23.26c-0.038,0-0.068,0.031-0.068,0.068v1.2c0,0.018-0.008,0.035-0.021,0.048c-0.013,0.013-0.031,0.021-0.049,0.021
				l-0.054,0c-0.053-0.001-0.104-0.002-0.165-0.002c-0.113,0-0.205-0.091-0.205-0.205V23.17c0-0.112,0.092-0.205,0.205-0.205h5.582
				c0.113,0,0.206,0.092,0.206,0.205v0.021c0,0.038-0.031,0.069-0.069,0.069H107.681z M109.187,35.498
				c0,0.649-0.116,1.233-1.506,1.233c-0.038,0-0.068,0.03-0.068,0.069v1.196c0,0.038-0.031,0.069-0.069,0.069h-0.219
				c-0.113,0-0.205-0.093-0.205-0.206v-1.217c0-0.114,0.092-0.206,0.205-0.206c1.267,0,1.368-0.475,1.368-1.095v-9.863
				c0-0.367-0.058-0.577-0.192-0.699c-0.023-0.02-0.03-0.054-0.016-0.08c0.013-0.027,0.039-0.044,0.074-0.037
				c0.463,0.087,0.628,0.341,0.628,0.973V35.498z M117.664,36.306c0,0.038-0.03,0.068-0.068,0.068h-5.769
				c-0.038,0-0.068-0.03-0.068-0.068v-0.156c0-0.039,0.03-0.07,0.068-0.07h5.343V25.437c0-0.342-0.056-0.546-0.182-0.664
				c-0.021-0.02-0.027-0.053-0.015-0.08c0.015-0.028,0.042-0.045,0.073-0.038c0.45,0.081,0.617,0.335,0.617,0.938V36.306z
				 M120.593,36.395c0.014-0.028,0.049-0.045,0.078-0.036c0.199,0.052,0.434,0.078,0.711,0.078c0.114,0,0.207,0.092,0.207,0.206
				c0,0.018-0.009,0.042-0.021,0.054c-0.014,0.013-0.031,0.023-0.049,0.023h-0.003c-0.408-0.022-0.702-0.1-0.9-0.238
				C120.588,36.461,120.579,36.425,120.593,36.395z M120.45,41.911c0.002,0.02-0.003,0.039-0.017,0.053
				c-0.013,0.016-0.032,0.024-0.052,0.024h-0.215c-0.103,0-0.188-0.074-0.202-0.178c-0.199-1.431-0.462-2.767-1.483-3.375
				c-0.031-0.019-0.042-0.057-0.026-0.089c0.016-0.031,0.054-0.045,0.086-0.033C119.916,38.854,120.228,40.323,120.45,41.911z
				 M116.159,23.26c-0.038,0-0.069,0.031-0.069,0.068v1.197c0,0.019-0.007,0.036-0.02,0.05c-0.013,0.013-0.03,0.021-0.048,0.021
				h-0.001l-0.219-0.002c-0.114,0-0.206-0.091-0.206-0.205V23.17c0-0.112,0.092-0.205,0.206-0.205h5.58
				c0.114,0,0.207,0.092,0.207,0.205v0.021c0,0.038-0.031,0.069-0.069,0.069H116.159z"/>
		</defs>
		<use xlink:href="#SVGID_11_"  overflow="visible" fill="#FFFFFF"/>
		<clipPath id="SVGID_12_">
			<use xlink:href="#SVGID_11_"  overflow="visible"/>
		</clipPath>
		<rect x="106.869" y="22.715" clip-path="url(#SVGID_12_)" fill="#FFFFFF" width="14.97" height="19.524"/>
	</g>
	<g>
		<defs>
			<path id="SVGID_13_" d="M41.127,22.715h-5.161c-0.252,0-0.457,0.204-0.457,0.456v1.218c0,0.241,0.188,0.44,0.428,0.456
				c0.957,0.06,0.957,0.323,0.957,0.656c-0.003,0.35-0.667,2.547-1.423,4.749c-0.285-0.508-0.552-0.982-0.8-1.42
				c-0.926-1.638-1.726-3.052-1.773-3.329c0-0.366,0-0.656,0.761-0.656c0.252,0,0.457-0.204,0.457-0.456V23.17
				c0-0.251-0.204-0.456-0.457-0.456h-5.666c-0.252,0-0.457,0.204-0.457,0.456v1.218c0,0.24,0.185,0.438,0.424,0.456
				c0.616,0.042,0.894,0.467,1.401,1.327l4.659,7.984c-0.626,1.836-0.982,1.989-1.348,1.989c-0.857,0-1.473-0.986-1.882-3.012
				c-0.043-0.214-0.23-0.367-0.448-0.367h-1.343c-0.131,0-0.257,0.059-0.344,0.158c-0.087,0.1-0.126,0.233-0.108,0.362l0.609,4.324
				c0.03,0.212,0.205,0.376,0.42,0.391c0.344,0.022,0.674,0.103,1.055,0.195c0.558,0.136,1.191,0.289,2.02,0.289
				c1.968,0,2.983-0.539,4.164-3.871c0.669-1.872,1.372-3.891,2-5.694c0.357-1.027,0.69-1.984,0.979-2.801
				c0.319-0.882,0.689-1.228,1.365-1.273c0.239-0.018,0.425-0.215,0.425-0.456V23.17C41.584,22.919,41.38,22.715,41.127,22.715
				 M30.492,33.31h-1.137c-0.019,0-0.038,0.01-0.051,0.024c-0.013,0.014-0.018,0.035-0.016,0.054l0.608,4.315
				c0.003,0.021-0.004,0.043-0.02,0.058c-0.013,0.013-0.03,0.02-0.048,0.02c-0.003,0-0.006,0-0.009,0
				c-0.029-0.004-0.058-0.008-0.087-0.013c-0.045-0.007-0.091-0.015-0.139-0.018c-0.096-0.007-0.175-0.08-0.188-0.177l-0.609-4.323
				c-0.007-0.058,0.01-0.118,0.048-0.162c0.041-0.045,0.097-0.072,0.155-0.072h1.343c0.097,0,0.182,0.07,0.201,0.166l0.006,0.025
				c0.006,0.009,0.01,0.022,0.01,0.035C30.56,33.28,30.529,33.31,30.492,33.31z M28.301,24.59c0,0.037-0.03,0.068-0.068,0.068
				c-0.003,0-0.003,0-0.004,0c-0.005,0-0.011,0-0.017-0.002c-0.03-0.007-0.059-0.017-0.087-0.026
				c-0.048-0.016-0.093-0.032-0.146-0.036c-0.107-0.007-0.191-0.097-0.191-0.205V23.17c0-0.112,0.092-0.205,0.206-0.205h5.666
				c0.114,0,0.206,0.092,0.206,0.205v0.021c0,0.038-0.031,0.069-0.069,0.069h-5.446c-0.038,0-0.069,0.031-0.069,0.068v1.213
				C28.292,24.553,28.301,24.57,28.301,24.59z M34.743,34.436c-0.649,1.904-1.087,2.253-1.714,2.253
				c-0.271,0-0.526-0.073-0.758-0.218c-0.029-0.018-0.04-0.054-0.026-0.085c0.013-0.033,0.048-0.048,0.08-0.038
				c0.112,0.031,0.229,0.047,0.347,0.047c0.563,0,0.962-0.334,1.585-2.16l0.038-0.109l-0.057-0.098l-4.66-7.985
				c-0.321-0.543-0.595-0.977-0.971-1.224c-0.029-0.019-0.039-0.055-0.025-0.087c0.014-0.03,0.047-0.049,0.082-0.036
				c0.61,0.181,0.945,0.685,1.388,1.435l4.733,8.111c0.009,0.018,0.011,0.037,0.005,0.057L34.743,34.436z M36.194,30.531
				l-0.231,0.674c-0.008,0.025-0.032,0.043-0.059,0.045c-0.002,0-0.003,0-0.006,0c-0.024,0-0.048-0.013-0.06-0.034l-0.254-0.455
				c-0.009-0.016-0.011-0.038-0.005-0.055l0.129-0.378c0.593-1.726,1.432-4.367,1.437-4.83c0-0.333-0.084-0.535-0.282-0.672
				c-0.028-0.018-0.038-0.055-0.023-0.085c0.014-0.03,0.049-0.046,0.08-0.037c0.632,0.169,0.72,0.558,0.72,0.953
				C37.632,26.164,36.749,28.915,36.194,30.531z M41.333,23.191c0,0.038-0.031,0.069-0.069,0.069h-4.942
				c-0.038,0-0.069,0.031-0.069,0.068v1.195c0.003,0.008,0.005,0.017,0.005,0.026c0,0.039-0.03,0.07-0.067,0.07
				c-0.004-0.001-0.003-0.001-0.003-0.001c-0.003,0.001-0.006,0-0.009-0.001l-0.041-0.004c-0.059-0.007-0.118-0.015-0.186-0.019
				c-0.108-0.007-0.192-0.098-0.192-0.205V23.17c0-0.112,0.092-0.205,0.206-0.205h5.161c0.113,0,0.206,0.092,0.206,0.205V23.191z"/>
		</defs>
		<use xlink:href="#SVGID_13_"  overflow="visible" fill="#FFFFFF"/>
		<clipPath id="SVGID_14_">
			<use xlink:href="#SVGID_13_"  overflow="visible"/>
		</clipPath>
		<rect x="27.536" y="22.715" clip-path="url(#SVGID_14_)" fill="#FFFFFF" width="14.048" height="15.769"/>
	</g>
	<g>
		<defs>
			<path id="SVGID_15_" d="M137.519,36.188c-0.476-0.042-0.8-0.221-1.05-1.025c-0.223-0.706-0.65-2.008-1.127-3.453
				c-0.815-2.486-2.053-6.241-2.104-6.61c0-0.192,0-0.256,0.508-0.256c0.253,0,0.457-0.204,0.457-0.456V23.17
				c0-0.251-0.204-0.456-0.457-0.456h-6.694c-0.251,0-0.455,0.204-0.455,0.456v1.218c0,0.246,0.193,0.447,0.439,0.456
				c0.693,0.025,0.693,0.104,0.693,0.247c-0.052,0.663-2.504,7.613-3.411,10.024c-0.331,0.87-0.605,1.034-1.1,1.073
				c-0.237,0.019-0.421,0.217-0.421,0.455v1.217c0,0.252,0.205,0.456,0.457,0.456h5.099c0.253,0,0.456-0.204,0.456-0.456v-1.217
				c0-0.246-0.194-0.449-0.442-0.456c-1.193-0.039-1.193-0.457-1.193-0.615c0-0.402,0.246-1.159,0.484-1.887l0.044-0.132h4.751
				c0.285,0.872,0.561,1.816,0.564,2.02c0,0.344,0,0.615-0.845,0.615c-0.252,0-0.456,0.203-0.456,0.456v1.217
				c0,0.252,0.204,0.456,0.456,0.456h5.31c0.251,0,0.456-0.204,0.456-0.456v-1.217C137.938,36.406,137.756,36.208,137.519,36.188
				 M127.49,36.346c0.014-0.031,0.049-0.047,0.082-0.037c0.247,0.078,0.497,0.118,0.788,0.128c0.107,0.004,0.19,0.088,0.196,0.196
				c0.002,0.02-0.006,0.039-0.02,0.052c-0.014,0.013-0.03,0.02-0.049,0.02c-0.001,0-0.003,0-0.005,0
				c-0.441-0.038-0.759-0.127-0.971-0.274C127.484,36.411,127.474,36.375,127.49,36.346z M127.408,23.26
				c-0.036,0-0.067,0.031-0.067,0.068v1.21c0,0.02-0.009,0.037-0.022,0.049c-0.013,0.013-0.028,0.02-0.047,0.02
				c-0.001,0-0.003,0-0.004,0l-0.052-0.003c-0.056-0.003-0.113-0.008-0.171-0.01c-0.111-0.003-0.197-0.094-0.197-0.205V23.17
				c0-0.112,0.092-0.205,0.204-0.205h6.694c0.114,0,0.207,0.092,0.207,0.205v0.021c0,0.038-0.031,0.069-0.069,0.069H127.408z
				 M130.202,26.356l1.535,4.836h-3.224L130.202,26.356z M125.038,35.408c-0.354,0.933-0.716,1.266-1.433,1.323
				c-0.037,0.003-0.063,0.031-0.063,0.069v1.196c0,0.038-0.03,0.069-0.069,0.069h-0.219c-0.113,0-0.205-0.093-0.205-0.206v-1.217
				c0-0.109,0.082-0.197,0.189-0.205c0.658-0.053,0.979-0.353,1.314-1.235c0.83-2.208,3.37-9.367,3.427-10.117
				c0-0.127-0.04-0.219-0.136-0.305c-0.023-0.02-0.029-0.053-0.017-0.081c0.014-0.027,0.044-0.044,0.074-0.037
				c0.245,0.044,0.572,0.153,0.572,0.584C128.414,26.028,125.896,33.126,125.038,35.408z M132.585,31.708
				c-0.012,0.017-0.033,0.028-0.056,0.028h-4.109c-0.022,0-0.042-0.011-0.056-0.028c-0.014-0.018-0.017-0.041-0.01-0.063
				l0.055-0.157c0.011-0.027,0.036-0.047,0.065-0.047h3.606l-0.104-0.326l-1.633-5.133c-0.004-0.014-0.004-0.029,0-0.043
				l0.162-0.461c0.009-0.026,0.035-0.045,0.064-0.045c0.03,0,0.056,0.021,0.064,0.048l1.96,6.166
				C132.602,31.668,132.599,31.691,132.585,31.708z M132.529,36.731c-0.037,0-0.068,0.03-0.068,0.069v1.196
				c0,0.038-0.031,0.069-0.069,0.069h-0.219c-0.113,0-0.205-0.093-0.205-0.206v-1.217c0-0.114,0.092-0.206,0.205-0.206
				c0.916,0,1.096-0.32,1.096-0.873c-0.007-0.313-0.443-1.679-0.577-2.09l-0.021-0.063c-0.007-0.021-0.004-0.044,0.009-0.063
				c0.014-0.019,0.034-0.028,0.057-0.028h0.306c0.028,0,0.055,0.02,0.063,0.048l0.073,0.22c0.173,0.532,0.578,1.807,0.585,2.132
				C133.762,36.328,133.552,36.731,132.529,36.731z M137.655,36.655c-0.013,0.014-0.031,0.021-0.051,0.021
				c-0.004,0-0.009,0-0.015-0.002c-0.157-0.035-0.3-0.096-0.425-0.176c-0.029-0.018-0.039-0.055-0.026-0.085
				c0.014-0.031,0.047-0.049,0.079-0.038l0.063,0.017c0.071,0.021,0.14,0.039,0.219,0.046c0.081,0.006,0.147,0.065,0.172,0.151
				C137.678,36.613,137.671,36.637,137.655,36.655z"/>
		</defs>
		<use xlink:href="#SVGID_15_"  overflow="visible" fill="#FFFFFF"/>
		<clipPath id="SVGID_16_">
			<use xlink:href="#SVGID_15_"  overflow="visible"/>
		</clipPath>
		<rect x="122.797" y="22.715" clip-path="url(#SVGID_16_)" fill="#FFFFFF" width="15.141" height="15.601"/>
	</g>
	<g>
		<defs>
			<path id="SVGID_17_" d="M104.437,24.844c0.24-0.017,0.427-0.215,0.427-0.456V23.17c0-0.251-0.203-0.456-0.457-0.456h-3.377
				c-0.158,0-0.307,0.082-0.391,0.217l-5.826,9.512v-7.111c0-0.355,0-0.488,1.118-0.488c0.252,0,0.455-0.204,0.455-0.456V23.17
				c0-0.251-0.203-0.456-0.455-0.456h-5.582c-0.252,0-0.457,0.204-0.457,0.456v1.218c0,0.252,0.205,0.456,0.457,0.456
				c1.117,0,1.117,0.155,1.117,0.53v9.863c0,0.529,0,0.95-1.013,0.95c-0.251,0-0.456,0.203-0.456,0.456v1.217
				c0,0.252,0.205,0.456,0.456,0.456h3.274c0.156,0,0.303-0.081,0.387-0.214l5.83-9.368v6.609c0,0.683,0,0.845-1.118,0.845
				c-0.253,0-0.456,0.203-0.456,0.456v1.217c0,0.252,0.203,0.456,0.456,0.456h5.58c0.254,0,0.457-0.204,0.457-0.456v-1.217
				c0-0.252-0.203-0.456-0.457-0.456c-1.117,0-1.117-0.215-1.117-0.845v-9.338C103.29,25.085,103.29,24.919,104.437,24.844
				 M103.566,36.406c0.015-0.029,0.046-0.044,0.078-0.038c0.193,0.046,0.444,0.069,0.763,0.069c0.114,0,0.207,0.092,0.207,0.206
				c0,0.018-0.008,0.043-0.021,0.056c-0.014,0.012-0.03,0.025-0.049,0.025h-0.001c-0.47-0.017-0.765-0.089-0.955-0.234
				C103.56,36.47,103.551,36.436,103.566,36.406z M92.211,35.394c0,0.533,0,1.337-1.401,1.337c-0.037,0-0.067,0.03-0.067,0.069
				v1.196c0,0.038-0.031,0.069-0.069,0.069h-0.22c-0.113,0-0.205-0.093-0.205-0.206v-1.217c0-0.114,0.092-0.206,0.205-0.206
				c1.264,0,1.264-0.666,1.264-1.2v-9.863c0-0.282-0.063-0.458-0.205-0.574c-0.024-0.02-0.031-0.054-0.019-0.083
				c0.014-0.028,0.046-0.041,0.076-0.036c0.455,0.101,0.642,0.347,0.642,0.85V35.394z M90.706,23.26
				c-0.038,0-0.068,0.031-0.068,0.068v1.202c0,0.018-0.008,0.036-0.021,0.048c-0.012,0.013-0.03,0.02-0.048,0.02h-0.001l-0.07-0.001
				c-0.046,0-0.095-0.003-0.147-0.003c-0.113,0-0.206-0.091-0.206-0.205V23.17c0-0.112,0.093-0.205,0.206-0.205h5.582
				c0.113,0,0.206,0.092,0.206,0.205v0.021c0,0.038-0.031,0.069-0.069,0.069H90.706z M100.688,35.498
				c0,0.94-0.207,1.233-1.505,1.233c-0.038,0-0.069,0.03-0.069,0.069v1.196c0,0.038-0.03,0.069-0.067,0.069h-0.22
				c-0.114,0-0.206-0.093-0.206-0.206v-1.217c0-0.114,0.092-0.206,0.206-0.206c1.207,0,1.367-0.22,1.367-1.095v-6.995
				c0-0.014,0.004-0.027,0.011-0.037l0.356-0.573c0.016-0.028,0.047-0.04,0.076-0.03c0.03,0.008,0.051,0.035,0.051,0.065V35.498z
				 M101.386,23.26c-0.024,0-0.047,0.013-0.06,0.031L94.91,33.768c-0.013,0.021-0.036,0.033-0.059,0.033
				c-0.006,0-0.013,0-0.019-0.002c-0.03-0.009-0.05-0.036-0.05-0.065v-0.74c0-0.012,0.004-0.025,0.01-0.035l6.062-9.894
				c0.037-0.061,0.104-0.098,0.176-0.098h3.377c0.114,0,0.207,0.092,0.207,0.205v0.021c0,0.038-0.031,0.069-0.069,0.069H101.386z"/>
		</defs>
		<use xlink:href="#SVGID_17_"  overflow="visible" fill="#FFFFFF"/>
		<clipPath id="SVGID_18_">
			<use xlink:href="#SVGID_17_"  overflow="visible"/>
		</clipPath>
		<rect x="89.892" y="22.715" clip-path="url(#SVGID_18_)" fill="#FFFFFF" width="14.972" height="15.601"/>
	</g>
</g>
</svg>
