<?xml version="1.0" encoding="utf-8"?>
<!-- Generator: Adobe Illustrator 16.0.0, SVG Export Plug-In . SVG Version: 6.00 Build 0)  -->
<!DOCTYPE svg PUBLIC "-//W3C//DTD SVG 1.1//EN" "http://www.w3.org/Graphics/SVG/1.1/DTD/svg11.dtd">
<svg version="1.1" id="Layer_1" xmlns="http://www.w3.org/2000/svg" xmlns:xlink="http://www.w3.org/1999/xlink" x="0px" y="0px"
	 width="31.506px" height="30.289px" viewBox="0 0 31.506 30.289" enable-background="new 0 0 31.506 30.289" xml:space="preserve">
<g>
	<path fill="#E1A954" d="M22.485,3.249C21.623,1.28,19.633,0,17.411,0c-1.592,0-3.117,0.689-4.146,1.87
		c-0.63-0.131-1.261-0.196-1.891-0.196c-5.174,0-9.353,4.134-9.353,9.221c0,1.018,0.166,2.035,0.498,2.987
		C0.929,15.194,0,17.13,0,19.197c0,3.807,3.117,6.891,6.964,6.891c0.531,0,1.028-0.065,1.559-0.164
		c2.123,2.725,5.406,4.365,8.889,4.365c6.168,0,11.176-4.955,11.176-11.059l0,0c1.857-1.74,2.919-4.168,2.919-6.695
		C31.506,7.482,27.493,3.413,22.485,3.249z M27.36,18.311c-0.166,0.165-0.266,0.361-0.266,0.591c0,0.099,0,0.197,0,0.296
		c0,5.283-4.344,9.582-9.684,9.582c-3.184,0-6.169-1.543-7.96-4.135c-0.132-0.197-0.364-0.328-0.63-0.328
		c-0.066,0-0.166,0-0.232,0.033c-0.53,0.164-1.061,0.229-1.625,0.229c-3.018,0-5.472-2.396-5.472-5.382
		c0-1.772,0.896-3.446,2.354-4.43c0.299-0.197,0.398-0.558,0.266-0.886c-0.398-0.952-0.598-1.937-0.598-2.954
		c0-4.266,3.516-7.745,7.827-7.745c0.663,0,1.326,0.099,1.99,0.263c0.298,0.065,0.63-0.033,0.796-0.295
		c0.763-1.017,1.956-1.641,3.25-1.641c1.758,0,3.283,1.115,3.813,2.756c0.1,0.295,0.398,0.525,0.729,0.525c0,0,0,0,0.033,0
		c0.066,0,0.133,0,0.199,0c4.345-0.066,7.86,3.413,7.86,7.711C30.014,14.702,29.019,16.834,27.36,18.311z"/>
	<path fill="#E1A954" d="M16.217,9.057c-3.416,0-6.201,2.757-6.201,6.137s2.785,6.136,6.201,6.136s6.202-2.756,6.202-6.136
		S19.633,9.057,16.217,9.057z M16.217,19.854c-2.587,0-4.709-2.1-4.709-4.66c0-2.56,2.122-4.661,4.709-4.661s4.71,2.101,4.71,4.661
		C20.927,17.754,18.804,19.854,16.217,19.854z"/>
	<path fill="#E1A954" d="M16.167,10.308c-2.957,0-5.354,2.373-5.354,5.299c0,2.926,2.397,5.298,5.354,5.298
		c2.958,0,5.354-2.372,5.354-5.298C21.521,12.68,19.125,10.308,16.167,10.308z M16.25,13.422c-0.995,0-1.791,0.787-1.791,1.772
		c0,0.426-0.331,0.754-0.763,0.754c-0.431,0-0.763-0.328-0.763-0.754c0-1.772,1.46-3.249,3.283-3.249
		c0.398,0,0.763,0.328,0.796,0.722C17.013,13.093,16.682,13.422,16.25,13.422z"/>
</g>
</svg>
