<?xml version="1.0" encoding="utf-8"?>
<!-- Generator: Adobe Illustrator 16.0.0, SVG Export Plug-In . SVG Version: 6.00 Build 0)  -->
<!DOCTYPE svg PUBLIC "-//W3C//DTD SVG 1.1//EN" "http://www.w3.org/Graphics/SVG/1.1/DTD/svg11.dtd">
<svg version="1.1" id="Layer_1" xmlns="http://www.w3.org/2000/svg" xmlns:xlink="http://www.w3.org/1999/xlink" x="0px" y="0px"
	 width="31px" height="14.88px" viewBox="77.497 92.56 31 14.88" enable-background="new 77.497 92.56 31 14.88"
	 xml:space="preserve">
<path fill="#E1A956" d="M108.033,99.225c-0.62-0.62-5.426-3.875-11.315-3.875c-0.658,0-1.298,0.039-1.926,0.101l-5.205-2.891
	c0,1.397,0.394,2.794,0.737,3.748c-3.009,0.808-5.611,1.833-7.867,1.833l-4.96-3.1c0,2.48,1.24,4.96,1.24,4.96
	s-1.24,2.479-1.24,4.961l4.96-3.101c2.256,0,4.858,1.025,7.867,1.833c-0.343,0.953-0.737,2.351-0.737,3.747l5.205-2.892
	c0.628,0.063,1.268,0.102,1.926,0.102c5.89,0,10.695-3.255,11.315-3.875C108.652,100.155,108.65,99.843,108.033,99.225z
	 M104.003,100c-0.429,0-0.775-0.347-0.775-0.775s0.347-0.775,0.775-0.775c0.428,0,0.774,0.347,0.774,0.775S104.431,100,104.003,100z
	"/>
</svg>
