<?xml version="1.0" encoding="utf-8"?>
<!-- Generator: Adobe Illustrator 16.0.0, SVG Export Plug-In . SVG Version: 6.00 Build 0)  -->
<!DOCTYPE svg PUBLIC "-//W3C//DTD SVG 1.1//EN" "http://www.w3.org/Graphics/SVG/1.1/DTD/svg11.dtd">
<svg version="1.1" id="Layer_1" xmlns="http://www.w3.org/2000/svg" xmlns:xlink="http://www.w3.org/1999/xlink" x="0px" y="0px"
	 width="31px" height="26.374px" viewBox="77.499 86.814 31 26.374" enable-background="new 77.499 86.814 31 26.374"
	 xml:space="preserve">
<path fill="#E1A956" d="M101.87,91.581h-0.252c-0.188-2.659-2.404-4.767-5.11-4.767h-12.38c-2.827,0-5.129,2.3-5.129,5.13
	c0,1.653,0.807,3.203,2.136,4.16v9.462c0,1.575,1.282,2.856,2.857,2.856h2.505v1.909c0,1.575,1.283,2.856,2.858,2.856h12.65
	c1.576,0,2.857-1.281,2.857-2.856v-9.461c1.33-0.958,2.136-2.508,2.136-4.162C106.999,93.88,104.697,91.581,101.87,91.581z
	 M103.526,99.609l-0.45,0.258v10.464c0,0.59-0.479,1.071-1.07,1.071h-12.65c-0.59,0-1.071-0.481-1.071-1.071V99.866l-0.449-0.258
	c-1.04-0.596-1.687-1.707-1.687-2.9c0-1.843,1.499-3.342,3.341-3.342h12.381c1.843,0,3.341,1.499,3.341,3.342
	C105.213,97.902,104.567,99.012,103.526,99.609z"/>
<rect x="90.553" y="96.779" transform="matrix(0.9478 0.319 -0.319 0.9478 35.9324 -24.07)" fill="#E1A956" width="1.788" height="1.76"/>
<rect x="94.826" y="100.853" transform="matrix(0.9814 0.1918 -0.1918 0.9814 21.2901 -16.4706)" fill="#E1A956" width="1.787" height="1.759"/>
<rect x="90.858" y="104.016" transform="matrix(-0.4141 -0.9103 0.9103 -0.4141 34.2268 231.8527)" fill="#E1A956" width="1.759" height="1.788"/>
<rect x="98.294" y="96.588" transform="matrix(0.9935 -0.1137 0.1137 0.9935 -10.4362 11.9064)" fill="#E1A956" width="1.787" height="1.759"/>
<rect x="99" y="104.215" transform="matrix(-0.3202 -0.9473 0.9473 -0.3202 32.2898 233.3868)" fill="#E1A956" width="1.76" height="1.787"/>
<rect x="95.023" y="107.606" transform="matrix(-0.9868 -0.1617 0.1617 -0.9868 173.0245 231.0579)" fill="#E1A956" width="1.787" height="1.761"/>
</svg>
