<?xml version="1.0" encoding="utf-8"?>
<!-- Generator: Adobe Illustrator 16.0.0, SVG Export Plug-In . SVG Version: 6.00 Build 0)  -->
<!DOCTYPE svg PUBLIC "-//W3C//DTD SVG 1.1//EN" "http://www.w3.org/Graphics/SVG/1.1/DTD/svg11.dtd">
<svg version="1.1" id="Layer_1" xmlns="http://www.w3.org/2000/svg" xmlns:xlink="http://www.w3.org/1999/xlink" x="0px" y="0px"
	 width="31px" height="17.817px" viewBox="0 0 31 17.817" enable-background="new 0 0 31 17.817" xml:space="preserve">
<g>
	<path fill="#E1A956" d="M28.519,7.668c-0.6,0-1.098-0.445-1.183-1.021l-5.563-0.272c0.002,0.032,0.005,0.064,0.005,0.097
		c0,0.853-0.694,1.547-1.547,1.547c-0.854,0-1.547-0.694-1.547-1.547c0-0.084,0.009-0.166,0.021-0.247l-2.897-0.141v2.121
		c0.053-0.007,0.107-0.011,0.161-0.011c0.757,0,1.372,0.616,1.372,1.372s-0.614,1.372-1.372,1.372c-0.054,0-0.108-0.005-0.161-0.012
		v2.298l3.633,0.181c-0.452-0.271-0.757-0.764-0.757-1.33c0-0.851,0.693-1.546,1.547-1.546c0.853,0,1.547,0.695,1.547,1.546
		c0,0.62-0.366,1.153-0.894,1.401l9.332,0.464c0.41-0.79,0.646-2.044,0.742-3.325c-0.816-0.024-1.475-0.693-1.475-1.516
		c0-0.809,0.638-1.471,1.438-1.514c-0.033-0.285-0.075-0.544-0.123-0.768l-1.119-0.054C29.548,7.282,29.078,7.668,28.519,7.668z
		 M25.075,10.004c-0.5,0-0.905-0.407-0.905-0.906s0.405-0.905,0.905-0.905c0.498,0,0.905,0.406,0.905,0.905
		S25.573,10.004,25.075,10.004z M29.716,12.016c0,0.887-0.721,1.607-1.605,1.607s-1.604-0.721-1.604-1.607
		c0-0.883,0.72-1.604,1.604-1.604S29.716,11.133,29.716,12.016z"/>
	<path fill="#E1A956" d="M5.595,17.429v-0.006c-0.783-1.972-0.66-5.202,0.363-6.654c-3.19-1.043-5.188-2.54-5.651-4.208
		c-0.57,2.537-0.252,5.826,0.199,7.102c0.615,1.734,2.43,3.161,5.267,4.155C5.73,17.734,5.69,17.648,5.652,17.56
		c-0.011-0.024-0.022-0.047-0.033-0.072L5.595,17.429z"/>
	<path fill="#E1A956" d="M15.281,6.243L14.51,6.651c0.281,0.01,0.558,0.237,0.558,0.732c0,0.497-0.293,1.069-0.667,1.305
		c-0.121,0.077-0.245,0.116-0.368,0.116c-0.287,0-0.577-0.227-0.577-0.735c0-0.375,0.168-0.794,0.413-1.078l-6.52,3.447
		c0.122-0.045,0.242-0.067,0.36-0.067c0.575,0,0.947,0.506,0.947,1.289c0,0.984-0.574,2.118-1.307,2.584
		C7.134,14.38,6.919,14.45,6.712,14.45c-0.471,0-0.948-0.4-0.948-1.291c0-0.964,0.549-2.066,1.257-2.548l-0.447,0.236
		c-0.987,0.995-1.229,3.739-0.727,5.684c0.143-0.273,0.337-0.505,0.553-0.643c0.145-0.091,0.291-0.137,0.433-0.137
		c0.331,0,0.665,0.268,0.665,0.867c0,0.313-0.094,0.65-0.246,0.943l8.03-4.248v-2.551V8.365V6.243z M10.297,15.563
		c-0.133,0.084-0.268,0.128-0.399,0.128c-0.309,0-0.619-0.247-0.619-0.797s0.323-1.186,0.736-1.448
		c0.134-0.084,0.269-0.128,0.4-0.128c0.308,0,0.618,0.247,0.618,0.799C11.034,14.667,10.71,15.303,10.297,15.563z M11.905,12.739
		c-0.192,0.122-0.383,0.185-0.569,0.185c-0.423,0-0.851-0.354-0.851-1.146c0-0.856,0.5-1.844,1.139-2.248
		c0.192-0.122,0.384-0.183,0.568-0.183c0.424,0,0.852,0.354,0.852,1.146C13.043,11.351,12.543,12.338,11.905,12.739z M14.386,13.317
		c-0.147,0.094-0.295,0.143-0.44,0.143c-0.335,0-0.673-0.272-0.673-0.881c0-0.624,0.365-1.344,0.832-1.639
		c0.147-0.094,0.297-0.141,0.441-0.141c0.335,0,0.674,0.272,0.674,0.879C15.22,12.305,14.854,13.023,14.386,13.317z"/>
	<circle fill="#E1A956" cx="28.111" cy="12.016" r="1.08"/>
	<circle fill="#E1A956" cx="25.075" cy="9.098" r="0.379"/>
	<circle fill="#E1A956" cx="20.23" cy="12.076" r="1.022"/>
	<path fill="#E1A956" d="M20.23,7.493c0.563,0,1.021-0.458,1.021-1.021c0-0.042-0.004-0.083-0.009-0.123l-2.01-0.098
		c-0.017,0.071-0.024,0.145-0.024,0.221C19.209,7.035,19.666,7.493,20.23,7.493z"/>
	<path fill="#E1A956" d="M28.519,7.143c0.277,0,0.515-0.168,0.617-0.407l-1.258-0.062C27.964,6.946,28.219,7.143,28.519,7.143z"/>
	<path fill="#E1A956" d="M30.01,9.098c0,0.54,0.433,0.98,0.97,0.993c0.032-0.688,0.026-1.366-0.02-1.984
		C30.433,8.128,30.01,8.565,30.01,9.098z"/>
	<path fill="#E1A956" d="M16.815,9.565c0-0.521-0.494-0.934-1.008-0.831v1.662c0.052,0.01,0.106,0.015,0.161,0.015
		C16.435,10.411,16.815,10.032,16.815,9.565z"/>
	<path fill="#E1A956" d="M0.729,5.807c0,1.744,2.112,3.439,5.656,4.545l9.1-4.812l15.182,0.743C29.635,2.511,23.638,0,15.544,0
		C7.375,0,0.729,2.605,0.729,5.807z"/>
	<path fill="#E1A956" d="M10.416,13.844c-0.014,0-0.054,0.005-0.118,0.046c-0.263,0.167-0.493,0.636-0.493,1.004
		c0,0.168,0.048,0.271,0.094,0.271c0.014,0,0.053-0.004,0.118-0.045c0.263-0.166,0.493-0.634,0.493-1.003
		C10.509,13.948,10.46,13.844,10.416,13.844z"/>
	<path fill="#E1A956" d="M14.493,7.175c-0.017,0-0.049,0.01-0.091,0.036c-0.223,0.142-0.419,0.542-0.419,0.858
		c0,0.146,0.042,0.204,0.052,0.211V8.278c0.005,0,0.035-0.002,0.086-0.035c0.226-0.142,0.422-0.543,0.422-0.86
		C14.542,7.238,14.502,7.181,14.493,7.175z"/>
	<path fill="#E1A956" d="M6.29,13.159c0,0.353,0.111,0.765,0.422,0.765c0.104,0,0.228-0.042,0.357-0.125
		c0.576-0.365,1.063-1.345,1.063-2.14c0-0.353-0.111-0.766-0.422-0.766c-0.105,0-0.229,0.045-0.359,0.127
		C6.775,11.385,6.29,12.363,6.29,13.159z"/>
	<path fill="#E1A956" d="M14.545,11.324c-0.024,0-0.078,0.008-0.159,0.06c-0.318,0.203-0.589,0.749-0.589,1.195
		c0,0.171,0.046,0.354,0.148,0.354c0.024,0,0.078-0.008,0.158-0.06c0.315-0.197,0.59-0.756,0.59-1.195
		C14.694,11.509,14.647,11.324,14.545,11.324z"/>
	<path fill="#E1A956" d="M6.129,17.343c0.072,0.166,0.154,0.319,0.242,0.456c0.009-0.004,0.019-0.009,0.028-0.016
		c0.312-0.196,0.573-0.729,0.573-1.164c0-0.169-0.048-0.341-0.139-0.341c-0.024,0-0.075,0.006-0.153,0.056
		C6.415,16.502,6.18,16.938,6.129,17.343z"/>
	<path fill="#E1A956" d="M12.519,10.494c0-0.287-0.085-0.622-0.327-0.622c-0.083,0-0.182,0.036-0.287,0.103
		c-0.484,0.308-0.894,1.132-0.894,1.804c0,0.287,0.085,0.621,0.325,0.621c0.083,0,0.183-0.036,0.288-0.104
		C12.109,11.99,12.519,11.164,12.519,10.494z"/>
</g>
</svg>
