<?xml version="1.0" encoding="utf-8"?>
<!-- Generator: Adobe Illustrator 16.0.0, SVG Export Plug-In . SVG Version: 6.00 Build 0)  -->
<!DOCTYPE svg PUBLIC "-//W3C//DTD SVG 1.1//EN" "http://www.w3.org/Graphics/SVG/1.1/DTD/svg11.dtd">
<svg version="1.1" id="Layer_1" xmlns="http://www.w3.org/2000/svg" xmlns:xlink="http://www.w3.org/1999/xlink" x="0px" y="0px"
	 width="31px" height="17.693px" viewBox="78.243 83.861 31 17.693" enable-background="new 78.243 83.861 31 17.693"
	 xml:space="preserve">
<path fill="#E1A956" d="M108.459,92.25L108.459,92.25c-0.634-2.501-7.038-3.636-10.606-4.27c-0.4-0.066-0.801-0.167-1.067-0.2
	c-0.733-0.133-1.834-0.667-3.135-1.267c-3.302-1.534-7.838-3.602-11.274-2.168c-1.667,0.7-2.901,2.168-3.669,4.369
	c-0.1,0.3-0.2,0.634-0.2,0.967l0,0c-0.067,0.267-1.234,6.371,1.934,8.838c1.134,0.901,7.004,3.035,15.876,3.035
	c3.235,0,6.438-0.267,9.639-0.834l0.101-0.033c1.101-0.167,2.067-0.8,2.635-1.768C109.493,97.486,109.426,95.218,108.459,92.25z
	 M79.308,88.947c0.734-2.035,1.834-3.369,3.335-4.002c0.733-0.3,1.534-0.467,2.368-0.434c2.768,0,5.937,1.468,8.405,2.602
	c1.334,0.634,2.501,1.167,3.302,1.301c0.3,0.067,0.667,0.134,1.101,0.2c2.769,0.5,10.272,1.834,10.039,4.136
	c-0.066,0.634-0.367,1.201-0.9,1.601c-1.901,1.567-6.938,1.935-14.509,1.134c-7.504-0.833-11.74-2.201-13.008-4.202
	C79.042,90.548,78.975,89.681,79.308,88.947z M108.092,98.62c-0.5,0.801-1.301,1.301-2.201,1.435l-0.1,0.033
	c-13.708,2.301-23.581-1-24.982-2.102c-1.868-1.467-2.035-4.536-1.901-6.47l0.034,0.066c1.4,2.202,5.67,3.636,13.475,4.503
	c2.335,0.267,4.669,0.434,7.004,0.434c3.936,0,6.604-0.567,7.972-1.701c0.367-0.3,0.634-0.633,0.834-1.067
	C108.759,95.918,108.726,97.553,108.092,98.62z"/>
<path fill="#E1A956" d="M96.052,88.847c-2.869-0.567-12.741-7.905-15.61,0.133c-1.367,3.803,6.137,5.303,12.007,5.97
	c5.87,0.667,13.575,1.034,13.875-2.268C106.524,90.248,98.152,89.281,96.052,88.847z M86.012,89.081
	c-1.434,0.134-2.635-0.267-2.702-0.867c-0.067-0.6,1.067-1.201,2.501-1.334s2.635,0.267,2.702,0.867
	C88.58,88.347,87.446,88.947,86.012,89.081L86.012,89.081z"/>
</svg>
