<?xml version="1.0" encoding="utf-8"?>
<!-- Generator: Adobe Illustrator 16.0.0, SVG Export Plug-In . SVG Version: 6.00 Build 0)  -->
<!DOCTYPE svg PUBLIC "-//W3C//DTD SVG 1.1//EN" "http://www.w3.org/Graphics/SVG/1.1/DTD/svg11.dtd">
<svg version="1.1" id="Layer_1" xmlns="http://www.w3.org/2000/svg" xmlns:xlink="http://www.w3.org/1999/xlink" x="0px" y="0px"
	 width="31px" height="24.398px" viewBox="-5.708 0 31 24.398" enable-background="new -5.708 0 31 24.398" xml:space="preserve">
<g>
	<path fill="#E1A956" d="M8.102,2.617c-0.149,0.28-0.49,0.535-0.824,0.816C6.942,3.716,6.616,4.027,6.389,4.457
		C6.161,4.886,6.034,5.436,5.913,5.937c-0.121,0.5-0.234,0.95-0.583,1.296c-0.349,0.347-0.932,0.585-1.422,0.69
		C3.418,8.028,3.021,8,2.758,7.761c-0.264-0.24-0.391-0.69-0.362-1.183C2.424,6.085,2.609,5.549,2.915,4.95
		c0.306-0.6,0.731-1.262,1.25-1.755c0.52-0.493,1.131-0.816,1.649-1.056C6.333,1.9,6.758,1.744,7.135,1.688
		C7.512,1.632,7.838,1.674,8.024,1.85C8.208,2.024,8.25,2.335,8.102,2.617z M19.585,9.381C19.585,4.2,15.201,0,9.792,0
		C4.384,0,0,4.2,0,9.381C0.601,9.487,1.2,9.593,2.143,9.71c0.943,0.118,2.229,0.247,3.561,0.316c0.359,0.02,0.722,0.034,1.087,0.045
		c0.989,0.031,1.995,0.037,3.002,0.045c1.007-0.008,2.014-0.015,3.001-0.045c0.365-0.011,0.729-0.025,1.088-0.045
		c1.332-0.069,2.617-0.198,3.561-0.316C18.384,9.593,18.984,9.487,19.585,9.381z"/>
	<path fill="#E1A956" d="M9.792,10.709c-1.007-0.007-2.013-0.016-3.002-0.046c-0.146,0.917-0.302,1.838-0.503,2.779
		c-0.251,1.181-0.572,2.396-0.874,3.63c-0.301,1.235-0.583,2.489-0.583,3.536c0,1.045,0.282,1.883,0.674,2.439
		s0.894,0.836,1.426,1.006c0.532,0.17,1.095,0.229,1.577,0.268l1.285,0.077l1.286-0.077c0.481-0.037,1.045-0.098,1.576-0.268
		c0.532-0.17,1.035-0.449,1.428-1.006c0.392-0.559,0.672-1.396,0.672-2.439c0-1.047-0.28-2.301-0.582-3.536
		c-0.301-1.233-0.623-2.449-0.873-3.63c-0.201-0.941-0.356-1.862-0.504-2.779C11.806,10.694,10.798,10.702,9.792,10.709z"/>
</g>
</svg>
