<?xml version="1.0" encoding="utf-8"?>
<!-- Generator: Adobe Illustrator 16.0.0, SVG Export Plug-In . SVG Version: 6.00 Build 0)  -->
<!DOCTYPE svg PUBLIC "-//W3C//DTD SVG 1.1//EN" "http://www.w3.org/Graphics/SVG/1.1/DTD/svg11.dtd">
<svg version="1.1" id="Layer_1" xmlns="http://www.w3.org/2000/svg" xmlns:xlink="http://www.w3.org/1999/xlink" x="0px" y="0px"
	 width="29px" height="25.375px" viewBox="66.005 63.021 29 25.375" enable-background="new 66.005 63.021 29 25.375"
	 xml:space="preserve">
<path fill="#E1A956" d="M93.242,72.689c1.096-1.445,1.93-2.891,1.734-3.766c-0.241-1.078-1.162-1.361-2.147-1.361
	c-1.088,0-2.252,0.346-2.661,0.346c-0.78,0,2.241-2.426-1.546-3.342c-0.998-0.242-1.765-0.342-2.363-0.342
	c-1.2,0-1.742,0.402-2.169,0.883c0.074-0.949,0.054-1.637-0.124-1.854c-0.135-0.162-0.281-0.232-0.439-0.232
	c-0.775,0-1.854,1.623-3.271,1.623c-0.078,0-0.156-0.004-0.235-0.014c-1.213-0.156-1.444-1.42-2.728-1.42
	c-0.65,0-1.575,0.324-3.037,1.291c-3.273,2.162-0.155,3.781-0.86,4.025c-0.271,0.096-0.933,0.121-1.651,0.264l-1.105-0.639l0,0
	l-2.618-1.506c-1.115,1.938-1.036,4.236,0.008,6.041h-2.022v2.418c0,5.373,2.922,10.061,7.262,12.566
	c-0.008,0.039-0.013,0.078-0.013,0.121c0,0.332,0.271,0.604,0.604,0.604h13.291c0.333,0,0.604-0.27,0.604-0.604
	c0-0.043-0.004-0.082-0.014-0.121c4.343-2.506,7.264-7.193,7.264-12.566v-2.418h-1.762V72.689z M84.757,66.195
	c0.201-0.25,0.36-0.449,0.551-0.566c0.076-0.049,0.316-0.195,0.952-0.195c0.535,0,1.235,0.104,2.08,0.307
	c0.763,0.186,0.989,0.393,1.033,0.441c0,0.143-0.173,0.488-0.249,0.641c-0.071,0.146-0.141,0.285-0.195,0.436
	c-0.207,0.568-0.063,0.988,0.094,1.24c0.24,0.387,0.669,0.617,1.148,0.617c0.269,0,0.563-0.055,0.971-0.131
	c0.503-0.096,1.128-0.213,1.689-0.213c0.467,0,0.69,0.084,0.784,0.135c0.074,0.039,0.141,0.088,0.184,0.275
	c0.002,0.043,0.03,0.906-2.094,3.508h-1.593c0.208-1.014-0.12-2.082-0.89-2.805c0.012-0.016,0.024-0.033,0.035-0.049
	c0.175-0.285,0.087-0.658-0.197-0.834c-0.283-0.176-0.655-0.088-0.831,0.197c-0.011,0.018-0.02,0.033-0.029,0.051
	c-0.339-0.125-0.692-0.186-1.044-0.186c-1.012,0-2.001,0.508-2.57,1.432c-0.423,0.682-0.54,1.465-0.392,2.193h-0.268
	c-0.498-1.406-1.841-2.418-3.418-2.418c-0.044,0-0.089,0.002-0.132,0.004c-0.57-1.471-0.827-2.336-0.94-2.83
	c0.055,0.018,0.108,0.033,0.156,0.049c0.549,0.174,1.23,0.391,2.004,0.391c0.508,0,0.996-0.098,1.452-0.285
	C83.924,67.234,84.405,66.635,84.757,66.195z M85.442,72.689c-0.021-0.063-0.04-0.125-0.057-0.188
	c-0.111-0.473-0.031-0.959,0.223-1.369c0.333-0.539,0.912-0.859,1.545-0.859l0,0l0,0c0.333,0,0.662,0.094,0.951,0.273
	c0.737,0.457,1.033,1.357,0.755,2.143H85.442L85.442,72.689z M78.439,72.645c0.425-0.697,1.191-1.164,2.065-1.164
	c0.892,0,1.674,0.486,2.092,1.207h-4.111c0.002-0.004,0.005-0.008,0.007-0.014L78.439,72.645z M73.793,69.67
	c0.409-0.143,0.718-0.451,0.85-0.846c0.223-0.666-0.134-1.191-0.367-1.539c-0.212-0.316-0.371-0.572-0.332-0.764
	c0.02-0.1,0.149-0.463,0.979-1.012c1.439-0.951,2.104-1.092,2.37-1.092c0.179,0,0.264,0.051,0.633,0.389
	c0.416,0.379,0.987,0.9,1.941,1.023c0.128,0.018,0.26,0.023,0.39,0.023c1.107,0,1.981-0.588,2.647-1.086
	c-0.024,0.387-0.075,0.922-0.173,1.648c-0.048,0.023-0.098,0.045-0.149,0.066c-0.335,0.139-0.665,0.191-0.988,0.191
	c-1.056,0-2.018-0.57-2.695-0.57c-0.283,0-0.517,0.098-0.685,0.379c-0.276,0.453,0.235,2.145,0.963,4.043
	c-0.749,0.295-1.374,0.834-1.783,1.518l-3.962-2.283C73.562,69.738,73.681,69.707,73.793,69.67z M73.824,71.381
	c-0.182,0.061-0.374,0.094-0.57,0.094c-0.314,0-0.626-0.084-0.901-0.244c-0.464-0.266-0.765-0.709-0.868-1.195L73.824,71.381z
	 M68.589,70.918c-0.228-0.848-0.223-1.721,0.009-2.545l1.655,0.955c-0.126,1.156,0.423,2.334,1.496,2.951
	c0.475,0.273,0.993,0.404,1.504,0.404c0.645,0,1.278-0.207,1.801-0.594l1.04,0.6h-6.607C69.073,72.174,68.768,71.574,68.589,70.918z
	 M67.214,73.896h26.583v1.211H67.214V73.896z M86.051,87.189H74.96c-2.241-1.029-4.145-2.658-5.521-4.717
	c-1.231-1.85-1.972-3.957-2.171-6.158h0.55c0,0.334,0.271,0.604,0.604,0.604c0.334,0,0.604-0.27,0.604-0.604h1.209
	c0,0.334,0.271,0.604,0.604,0.604s0.604-0.27,0.604-0.604h1.208c0,0.334,0.271,0.604,0.604,0.604c0.335,0,0.604-0.27,0.604-0.604
	h1.208c0,0.334,0.271,0.604,0.604,0.604c0.334,0,0.604-0.27,0.604-0.604h1.209c0,0.334,0.271,0.604,0.604,0.604
	s0.604-0.27,0.604-0.604h1.208c0,0.334,0.271,0.604,0.604,0.604c0.334,0,0.603-0.27,0.603-0.604h1.21
	c0,0.334,0.271,0.604,0.604,0.604c0.334,0,0.604-0.27,0.604-0.604h1.207c0,0.334,0.272,0.604,0.605,0.604
	c0.332,0,0.604-0.27,0.604-0.604h1.208c0,0.334,0.27,0.604,0.604,0.604s0.604-0.27,0.604-0.604h1.21
	c0,0.334,0.268,0.604,0.603,0.604s0.605-0.27,0.605-0.604h1.207c0,0.334,0.271,0.604,0.604,0.604c0.333,0,0.604-0.27,0.604-0.604
	h0.55c-0.199,2.201-0.939,4.309-2.17,6.158C90.196,84.531,88.292,86.16,86.051,87.189z"/>
</svg>
