<?xml version="1.0" encoding="utf-8"?>
<!-- Generator: Adobe Illustrator 16.0.0, SVG Export Plug-In . SVG Version: 6.00 Build 0)  -->
<!DOCTYPE svg PUBLIC "-//W3C//DTD SVG 1.1//EN" "http://www.w3.org/Graphics/SVG/1.1/DTD/svg11.dtd">
<svg version="1.1" id="Layer_1" xmlns="http://www.w3.org/2000/svg" xmlns:xlink="http://www.w3.org/1999/xlink" x="0px" y="0px"
	 width="31px" height="28.041px" viewBox="428.64 219.019 31 28.041" enable-background="new 428.64 219.019 31 28.041"
	 xml:space="preserve">
<g>
	<g>
		<path fill="#E1A954" d="M436.786,220.611c-0.202,0-0.381-0.101-0.487-0.256c-0.106,0.155-0.284,0.256-0.486,0.256
			c-0.327,0-0.593-0.265-0.593-0.593c0-0.55,0.483-0.999,1.079-0.999c0.615,0,1.08,0.429,1.08,0.999
			C437.379,220.346,437.113,220.611,436.786,220.611z"/>
	</g>
	<g>
		<path fill="#E1A954" d="M432.846,220.611c-0.202,0-0.382-0.101-0.488-0.256c-0.106,0.155-0.285,0.256-0.487,0.256
			c-0.327,0-0.593-0.265-0.593-0.593c0-0.55,0.485-0.999,1.08-0.999c0.616,0,1.08,0.429,1.08,0.999
			C433.438,220.346,433.173,220.611,432.846,220.611z"/>
	</g>
	<g>
		<path fill="#E1A954" d="M433.333,221.017c-0.596,0-1.08-0.448-1.08-0.999c0-0.327,0.267-0.592,0.594-0.592
			c0.201,0,0.38,0.101,0.486,0.256c0.106-0.155,0.285-0.256,0.487-0.256c0.327,0,0.593,0.265,0.593,0.592
			C434.413,220.588,433.948,221.017,433.333,221.017z"/>
	</g>
	<g>
		<path fill="#E1A954" d="M434.836,220.611c-0.202,0-0.381-0.101-0.486-0.256c-0.107,0.155-0.285,0.256-0.487,0.256
			c-0.327,0-0.593-0.265-0.593-0.593c0-0.55,0.483-0.999,1.08-0.999c0.614,0,1.08,0.429,1.08,0.999
			C435.429,220.346,435.163,220.611,434.836,220.611z"/>
	</g>
	<g>
		<path fill="#E1A954" d="M435.323,221.017c-0.595,0-1.08-0.448-1.08-0.999c0-0.327,0.266-0.592,0.593-0.592
			c0.202,0,0.381,0.101,0.487,0.256c0.107-0.155,0.286-0.256,0.488-0.256c0.327,0,0.592,0.265,0.592,0.592
			C436.403,220.588,435.939,221.017,435.323,221.017z"/>
	</g>
</g>
<g>
	<path fill="#E1A954" d="M450.112,247.06h-2.479c-4.678,0-9.071-1.817-12.374-5.12c-3.301-3.302-5.118-7.695-5.118-12.374v-2.722
		c0-2.298,1.888-4.167,4.208-4.167h0.324c2.299,0,4.168,1.87,4.168,4.167v3.779c0,4.467,3.635,8.102,8.103,8.102h3.169
		c2.299,0,4.168,1.87,4.168,4.168C454.28,245.19,452.411,247.06,450.112,247.06z M434.349,223.861c-1.667,0-3.023,1.339-3.023,2.982
		v2.722c0,8.993,7.316,16.31,16.309,16.31h2.479c1.646,0,2.982-1.338,2.982-2.982s-1.338-2.982-2.982-2.982h-3.169
		c-5.121,0-9.287-4.167-9.287-9.287v-3.779c0-1.646-1.338-2.982-2.982-2.982H434.349z"/>
</g>
<g>
	<path fill="#E1A954" d="M434.796,222.886h-0.895c-0.327,0-0.592-0.266-0.592-0.593s0.265-0.592,0.592-0.592h0.895
		c0.327,0,0.593,0.265,0.593,0.592S435.123,222.886,434.796,222.886z"/>
</g>
<g>
	<path fill="#E1A954" d="M434.796,221.911h-0.895c-0.327,0-0.592-0.267-0.592-0.594c0-0.326,0.265-0.592,0.592-0.592h0.895
		c0.327,0,0.593,0.266,0.593,0.592C435.388,221.645,435.123,221.911,434.796,221.911z"/>
</g>
<g>
	<g>
		<path fill="#E1A954" d="M457.141,246.085c-0.326,0-0.593-0.266-0.593-0.592c0-0.202,0.103-0.382,0.256-0.488
			c-0.153-0.107-0.256-0.285-0.256-0.487c0-0.328,0.267-0.593,0.593-0.593c0.552,0,0.999,0.485,0.999,1.08
			C458.14,245.621,457.711,246.085,457.141,246.085z"/>
	</g>
	<g>
		<path fill="#E1A954" d="M457.141,242.104c-0.326,0-0.593-0.265-0.593-0.593c0-0.202,0.103-0.38,0.256-0.487
			c-0.153-0.106-0.256-0.286-0.256-0.487c0-0.327,0.267-0.593,0.593-0.593c0.552,0,0.999,0.484,0.999,1.08
			C458.14,241.639,457.711,242.104,457.141,242.104z"/>
	</g>
	<g>
		<path fill="#E1A954" d="M457.141,243.119c-0.568,0-0.999-0.465-0.999-1.08c0-0.597,0.448-1.08,0.999-1.08
			c0.327,0,0.594,0.265,0.594,0.593c0,0.202-0.103,0.38-0.257,0.487c0.154,0.106,0.257,0.286,0.257,0.487
			C457.734,242.854,457.469,243.119,457.141,243.119z"/>
	</g>
	<g>
		<path fill="#E1A954" d="M457.141,244.094c-0.326,0-0.593-0.265-0.593-0.593c0-0.202,0.103-0.38,0.256-0.487
			c-0.153-0.106-0.256-0.286-0.256-0.487c0-0.327,0.267-0.593,0.593-0.593c0.552,0,0.999,0.484,0.999,1.08
			C458.14,243.63,457.711,244.094,457.141,244.094z"/>
	</g>
	<g>
		<path fill="#E1A954" d="M457.141,245.069c-0.568,0-0.999-0.464-0.999-1.08c0-0.596,0.448-1.079,0.999-1.079
			c0.327,0,0.594,0.265,0.594,0.592c0,0.202-0.103,0.381-0.257,0.487c0.154,0.107,0.257,0.286,0.257,0.488
			C457.734,244.804,457.469,245.069,457.141,245.069z"/>
	</g>
</g>
<g>
	<path fill="#E1A954" d="M454.866,244.054c-0.327,0-0.593-0.265-0.593-0.593v-0.854c0-0.327,0.266-0.592,0.593-0.592
		s0.593,0.265,0.593,0.592v0.854C455.459,243.789,455.193,244.054,454.866,244.054z"/>
</g>
<g>
	<path fill="#E1A954" d="M455.801,244.054c-0.327,0-0.593-0.265-0.593-0.593v-0.854c0-0.327,0.266-0.592,0.593-0.592
		s0.593,0.265,0.593,0.592v0.854C456.393,243.789,456.128,244.054,455.801,244.054z"/>
</g>
<g>
	<path fill="#E1A954" d="M450.031,244.907h-3.047c-3.794,0-7.415-1.426-10.195-4.014c-2.766-2.574-4.447-6.058-4.737-9.81
		c-0.043-0.396-0.043-0.78-0.043-1.152c0-0.327,0.267-0.592,0.594-0.592s0.593,0.265,0.593,0.592c0,0.359,0,0.699,0.037,1.032
		c0,0.007,0.001,0.013,0.002,0.02c0.546,7.144,6.586,12.738,13.751,12.738h3.047c0.327,0,0.593,0.266,0.593,0.593
		S450.358,244.907,450.031,244.907z"/>
</g>
<g>
	<path fill="#E1A954" d="M432.602,228.777c-0.327,0-0.594-0.266-0.594-0.593V226.6c0-0.327,0.267-0.592,0.594-0.592
		s0.593,0.265,0.593,0.592v1.584C433.194,228.512,432.929,228.777,432.602,228.777z"/>
</g>
</svg>
