<?xml version="1.0" encoding="utf-8"?>
<!-- Generator: Adobe Illustrator 16.0.0, SVG Export Plug-In . SVG Version: 6.00 Build 0)  -->
<!DOCTYPE svg PUBLIC "-//W3C//DTD SVG 1.1//EN" "http://www.w3.org/Graphics/SVG/1.1/DTD/svg11.dtd">
<svg version="1.1" id="Layer_1" xmlns="http://www.w3.org/2000/svg" xmlns:xlink="http://www.w3.org/1999/xlink" x="0px" y="0px"
	 width="31px" height="30.287px" viewBox="-2.731 0 31 30.287" enable-background="new -2.731 0 31 30.287" xml:space="preserve">
<g>
	<path fill="#E1A955" d="M25.412,20.75c0-0.006,0.002-0.011,0.002-0.017c0-0.03-0.011-0.061-0.021-0.09
		c-0.312-1.593-1.118-3.113-2.429-4.33l-2.152-1.997l0,0l0,0L9.384,3.715c-0.14-0.129-0.363-0.126-0.5,0.006
		c-1.183,1.151-1.822,2.672-1.802,4.28c0.008,0.631,0.12,1.244,0.323,1.827L7.001,9.453c-2.124-1.97-2.165-5.216-0.092-7.235
		c1.322-1.288,3.215-1.815,5.062-1.413c0.19,0.042,0.38-0.072,0.424-0.253c0.044-0.181-0.075-0.361-0.266-0.402
		c-2.089-0.456-4.23,0.142-5.727,1.599C4.057,4.033,4.104,7.705,6.507,9.934l2.092,1.94c-1.095-0.127-2.257,0.177-3.329,0.458
		c-1.567,0.409-3.046,0.796-4.063-0.119c-0.318-0.295-0.496-0.69-0.502-1.113s0.163-0.821,0.474-1.124
		c0.64-0.623,1.696-0.636,2.352-0.027c0.368,0.341,0.547,0.815,0.492,1.301c-0.021,0.185,0.119,0.351,0.314,0.371
		c0.195,0.019,0.368-0.114,0.389-0.298c0.08-0.693-0.176-1.369-0.701-1.854C3.09,8.601,1.587,8.618,0.673,9.507
		c-0.913,0.89-0.896,2.319,0.045,3.191c0.62,0.559,1.338,0.75,2.102,0.75c0.848,0,1.751-0.236,2.638-0.468
		c1.688-0.441,3.282-0.857,4.525,0.177l2.56,2.375h-1.637c-0.195,0-0.354,0.15-0.354,0.335v1.962c0,0.186,0.158,0.336,0.354,0.336
		c0.196,0,0.354-0.15,0.354-0.336v-1.626h2.008l4.114,3.817c0.15,0.141,0.273,0.295,0.377,0.459H15.07
		c-0.195,0-0.354,0.149-0.354,0.336c0,0.186,0.156,0.336,0.354,0.336h2.973c0.166,0.718-0.039,1.498-0.617,2.063
		c-0.916,0.891-2.422,0.908-3.358,0.038l-7.382-6.847c-0.38-0.352-0.977-0.354-1.358-0.002c-0.304,0.281-0.384,0.711-0.198,1.074
		l4.903,9.541c0.011,0.071,0.039,0.142,0.098,0.194c0.035,0.032,0.075,0.056,0.118,0.071l0.746,0.689
		c1.338,1.24,3,1.973,4.722,2.215c0.037,0.014,0.078,0.022,0.121,0.022c0,0,0.002,0,0.004,0c0.007,0,0.012-0.003,0.019-0.004
		c0.372,0.047,0.746,0.078,1.121,0.078c2.037,0,4.069-0.687,5.687-2.05c0.037-0.016,0.071-0.036,0.103-0.064
		c0.015-0.014,0.021-0.029,0.03-0.046c0.107-0.095,0.213-0.19,0.316-0.293C25.106,25.892,25.863,23.239,25.412,20.75z
		 M22.606,27.364c-0.034,0.033-0.071,0.062-0.104,0.093l-4.342-4.026c0.539-0.664,0.736-1.494,0.598-2.283l5.994-0.068
		C25.085,23.298,24.378,25.638,22.606,27.364z M9.151,4.438l10.914,10.126l-3.687,3.589l-2.721-2.522l0,0l-4.173-3.872
		C8.41,10.76,7.808,9.423,7.789,7.994C7.772,6.676,8.254,5.427,9.151,4.438z M16.886,18.623l3.688-3.589l1.898,1.762
		c1.104,1.021,1.813,2.282,2.146,3.612l-6.066,0.069c-0.154-0.342-0.379-0.662-0.676-0.938L16.886,18.623z M5.816,16.886
		c0.104-0.096,0.269-0.096,0.373,0.002l7.191,6.672l-2.894,2.819L5.76,17.181C5.711,17.082,5.733,16.964,5.816,16.886z
		 M10.894,26.946l3.021-2.94c0.449,0.313,0.967,0.494,1.498,0.544l0.063,4.926c-1.457-0.269-2.852-0.926-3.991-1.981L10.894,26.946z
		 M16.184,29.571l-0.063-5.032c0.553-0.067,1.09-0.276,1.545-0.629l4.313,4.001C20.317,29.212,18.22,29.767,16.184,29.571z"/>
	<path fill="#E1A955" d="M11.182,8.776L11.182,8.776c0.519-0.505,0.508-1.317-0.023-1.809c-0.258-0.239-0.603-0.368-0.956-0.364
		c-0.36,0.004-0.696,0.141-0.947,0.385c-0.52,0.505-0.509,1.316,0.021,1.809C9.539,9.04,9.878,9.16,10.217,9.16
		C10.568,9.161,10.918,9.032,11.182,8.776z M9.761,7.458c0.119-0.116,0.278-0.181,0.449-0.183c0.003,0,0.006,0,0.008,0
		c0.168,0,0.326,0.061,0.446,0.173c0.252,0.233,0.257,0.619,0.011,0.858c-0.246,0.24-0.651,0.245-0.903,0.011
		S9.515,7.698,9.761,7.458z"/>
</g>
</svg>
