<?xml version="1.0" encoding="utf-8"?>
<!-- Generator: Adobe Illustrator 16.0.0, SVG Export Plug-In . SVG Version: 6.00 Build 0)  -->
<!DOCTYPE svg PUBLIC "-//W3C//DTD SVG 1.1//EN" "http://www.w3.org/Graphics/SVG/1.1/DTD/svg11.dtd">
<svg version="1.1" id="Layer_1" xmlns="http://www.w3.org/2000/svg" xmlns:xlink="http://www.w3.org/1999/xlink" x="0px" y="0px"
	 width="90px" height="45px" viewBox="5.162 16.574 90 45" enable-background="new 5.162 16.574 90 45" xml:space="preserve">
<g>
	<path fill="#E1A957" d="M79.078,34.499c-0.351-0.655-0.724-1.296-1.115-1.922l-5.456,3.149c0.396,0.625,0.771,1.266,1.115,1.922
		L79.078,34.499z"/>
	<path fill="#E1A957" d="M67.429,22.028c-0.626-0.394-1.267-0.767-1.921-1.118l-3.156,5.468c0.658,0.345,1.299,0.718,1.922,1.114
		L67.429,22.028z"/>
	<path fill="#E1A957" d="M51.111,23.361v-6.313c-0.37-0.012-0.739-0.028-1.111-0.028s-0.741,0.016-1.111,0.028v6.313
		c0.369-0.015,0.739-0.028,1.111-0.028S50.742,23.347,51.111,23.361z"/>
	<path fill="#E1A957" d="M37.648,26.378l-3.156-5.468c-0.654,0.35-1.293,0.726-1.921,1.118l3.154,5.464
		C36.349,27.096,36.99,26.723,37.648,26.378z"/>
	<path fill="#E1A957" d="M27.492,35.725l-5.455-3.149c-0.392,0.627-0.764,1.268-1.114,1.922l5.455,3.148
		C26.723,36.99,27.096,36.349,27.492,35.725z"/>
	<g>
		<path fill="#E1A957" d="M50,30.128c10.548,0,19.23,8.232,19.813,18.761H30.188C30.77,38.36,39.451,30.128,50,30.128 M50,27.906
			c-11.827,0-21.456,9.3-22.038,20.982H17.34v2.222h65.587h0.057v-2.222h-0.057h-10.89C71.455,37.206,61.828,27.906,50,27.906
			L50,27.906z"/>
	</g>
	<rect x="28.281" y="54.12" fill="#E1A957" width="43.762" height="2.222"/>
	<rect x="39.221" y="59.352" fill="#E1A957" width="21.88" height="2.223"/>
</g>
</svg>
