<?xml version="1.0" encoding="utf-8"?>
<!-- Generator: Adobe Illustrator 16.0.0, SVG Export Plug-In . SVG Version: 6.00 Build 0)  -->
<!DOCTYPE svg PUBLIC "-//W3C//DTD SVG 1.1//EN" "http://www.w3.org/Graphics/SVG/1.1/DTD/svg11.dtd">
<svg version="1.1" id="Layer_1" xmlns="http://www.w3.org/2000/svg" xmlns:xlink="http://www.w3.org/1999/xlink" x="0px" y="0px"
	 width="90px" height="75.438px" viewBox="4.52 12.282 90 75.438" enable-background="new 4.52 12.282 90 75.438"
	 xml:space="preserve">
<path fill="#E1A957" d="M55.702,73.079l-1.797,3.712l-0.858,1.774c-0.715,1.479-2.2,2.343-3.743,2.343
	c-0.607,0-1.221-0.134-1.803-0.415l-6.067-2.937c-0.648-0.313-0.918-1.093-0.605-1.74c0.313-0.646,1.094-0.917,1.739-0.604
	l6.067,2.937c0.769,0.373,1.696,0.05,2.069-0.718l0.858-1.772l1.796-3.714c0.313-0.647,1.093-0.918,1.739-0.604
	C55.745,71.653,56.015,72.432,55.702,73.079z"/>
<path fill="#E1A957" d="M28.011,32.45h-6.74c-2.29,0-4.152,1.863-4.152,4.154v6.094c0,0.719,0.582,1.302,1.302,1.302
	s1.302-0.583,1.302-1.302v-6.094c0-0.854,0.694-1.549,1.548-1.549h6.74c0.72,0,1.302-0.583,1.302-1.302S28.73,32.45,28.011,32.45z"
	/>
<path fill="#E1A957" d="M86.925,38.596l-1.48-6.897c-0.001-0.004-0.001-0.008-0.002-0.012l-3.465-16.127
	c-0.483-2.238-2.696-3.665-4.932-3.185l-23.069,4.952c-2.238,0.482-3.668,2.695-3.188,4.932l1.482,6.9c0,0.003,0,0.007,0.001,0.01
	l3.462,16.125c0.42,1.946,2.146,3.281,4.059,3.281c0.289,0,0.581-0.03,0.873-0.093l23.071-4.954
	c1.086-0.233,2.014-0.875,2.617-1.807C86.955,40.791,87.158,39.68,86.925,38.596z M84.166,40.308
	c-0.225,0.348-0.57,0.587-0.977,0.674L60.12,45.936c-0.837,0.177-1.659-0.354-1.839-1.188l-1.479-6.891
	c-0.003-0.007-0.002-0.015-0.003-0.022l-3.464-16.124c-0.181-0.833,0.354-1.659,1.188-1.838l23.069-4.952
	c0.833-0.181,1.659,0.354,1.838,1.188l1.484,6.907c0.001,0.001,0,0.004,0.001,0.006l3.461,16.123
	C84.466,39.548,84.391,39.962,84.166,40.308z"/>
<path fill="#E1A957" d="M79.592,28.723c-0.151-0.703-0.849-1.147-1.547-1c-0.704,0.151-1.151,0.843-1,1.546l1.278,5.96
	c0.088,0.404,0.013,0.818-0.212,1.165c-0.225,0.347-0.57,0.586-0.975,0.672l-6.591,1.415c-0.704,0.151-1.151,0.844-1,1.547
	c0.131,0.611,0.671,1.03,1.271,1.03c0.09,0,0.184-0.01,0.274-0.03l6.591-1.415c1.086-0.233,2.014-0.874,2.617-1.806
	c0.601-0.932,0.804-2.042,0.57-3.125L79.592,28.723z"/>
<path fill="#E1A957" d="M63.75,58.623l-19.83-9.6v-1.027v-9.424v-7.069c0-2.29-1.863-4.152-4.153-4.152H16.171
	c-2.29,0-4.152,1.863-4.152,4.152v7.068v9.423v7.068c0,2.291,1.863,4.152,4.153,4.152h16.463L26.7,71.478
	c-0.997,2.061-0.133,4.55,1.929,5.549l21.239,10.277c0.581,0.282,1.196,0.416,1.803,0.416c1.543,0,3.027-0.863,3.744-2.343
	l3.078-6.357c0.001-0.002,0.002-0.003,0.002-0.005l7.185-14.846C66.677,62.104,65.81,59.618,63.75,58.623z M16.172,56.611
	c-0.854,0-1.549-0.694-1.549-1.549v-7.068v-9.423v-7.068c0-0.854,0.695-1.548,1.548-1.548h23.596c0.854,0,1.549,0.694,1.549,1.548
	v7.069v9.419c-0.658-0.099-1.333-0.057-1.978,0.168c-1.048,0.363-1.89,1.114-2.373,2.113l-3.068,6.339H16.172L16.172,56.611z
	 M63.335,63.035l-3.077,6.357l-0.002,0.006L56.15,77.88v-0.001l-3.079,6.362c-0.373,0.77-1.298,1.093-2.07,0.719L29.765,74.683
	c-0.769-0.374-1.092-1.302-0.72-2.07l3.077-6.356c0-0.002,0.002-0.004,0.004-0.007l3.405-7.034l0.7-1.447l0.56-1.156l2.52-5.207
	c0.18-0.371,0.493-0.65,0.884-0.787c0.371-0.129,0.765-0.108,1.123,0.046c0.02,0.009,0.042,0.013,0.062,0.022l2.542,1.231
	l18.696,9.05C63.385,61.339,63.706,62.266,63.335,63.035z"/>
<path fill="#E1A957" d="M55.097,71.34c-0.646-0.312-1.426-0.043-1.739,0.604l-1.796,3.714l-0.858,1.772
	c-0.373,0.768-1.3,1.091-2.069,0.718l-6.067-2.937c-0.646-0.312-1.426-0.042-1.739,0.604c-0.313,0.647-0.043,1.427,0.605,1.74
	l6.067,2.937c0.581,0.281,1.196,0.415,1.803,0.415c1.543,0,3.028-0.863,3.743-2.343l0.858-1.774l1.797-3.712
	C56.015,72.432,55.745,71.653,55.097,71.34z"/>
</svg>
