<?xml version="1.0" encoding="utf-8"?>
<!-- Generator: Adobe Illustrator 16.0.0, SVG Export Plug-In . SVG Version: 6.00 Build 0)  -->
<!DOCTYPE svg PUBLIC "-//W3C//DTD SVG 1.1//EN" "http://www.w3.org/Graphics/SVG/1.1/DTD/svg11.dtd">
<svg version="1.1" id="Layer_1" xmlns="http://www.w3.org/2000/svg" xmlns:xlink="http://www.w3.org/1999/xlink" x="0px" y="0px"
	 width="90px" height="65.6px" viewBox="64.499 70.7 90 65.6" enable-background="new 64.499 70.7 90 65.6" xml:space="preserve">
<path fill="#E1A957" d="M146.773,90.037l-0.893-0.814c-2.002-1.832-19.746-17.902-26.119-18.474
	c-0.363-0.032-0.723-0.049-1.072-0.049c-3.058,0-5.101,1.254-6.903,2.36c-0.771,0.473-1.503,0.922-2.289,1.271
	c-0.784-0.348-1.517-0.798-2.285-1.27c-1.803-1.105-3.846-2.359-6.903-2.359c-0.35,0-0.709,0.018-1.072,0.049
	c-6.375,0.571-24.117,16.641-26.119,18.473l-0.893,0.813l0.784,0.919c1.667,1.954,16.483,19.107,23.397,19.686
	c0.723,0.061,1.474,0.127,2.248,0.195c2.863,0.254,6.066,0.539,9.404,0.637v0.035h1.25l0.141-0.003l0.236,0.004l1.254-0.011v-0.027
	c0.527-0.017,1.08-0.041,1.644-0.066c2.543,4.998,6.989,8.672,12.321,9.734V136.3h2.5v-17.317l-1.09-0.143
	c-5.058-0.656-9.301-4.054-11.623-8.794l-0.207-0.45c-0.278-0.607-0.522-1.229-0.733-1.859c-0.011-0.032-0.021-0.064-0.03-0.098
	c-0.082-0.248-0.156-0.5-0.228-0.752c-0.026-0.093-0.054-0.187-0.077-0.279c-0.055-0.203-0.104-0.408-0.148-0.613
	c-0.023-0.104-0.051-0.207-0.072-0.313c-0.059-0.274-0.109-0.553-0.155-0.832c-0.022-0.133-0.039-0.268-0.06-0.4
	c-0.023-0.174-0.049-0.348-0.067-0.521c-0.017-0.135-0.029-0.271-0.042-0.406c-0.02-0.192-0.033-0.386-0.046-0.581
	c-0.007-0.112-0.017-0.226-0.021-0.34c-0.016-0.311-0.025-0.621-0.025-0.936c0-0.441,0.02-0.881,0.05-1.32
	c0.007-0.101,0.019-0.199,0.026-0.3c0.031-0.364,0.068-0.728,0.121-1.089c0.01-0.07,0.021-0.143,0.03-0.214
	c0.14-0.897,0.339-1.789,0.604-2.664l0.094-0.312c0.309-0.955,0.686-1.883,1.143-2.769h9.674h16.803
	c1.353,2.629,2.064,5.61,2.064,8.666c0,8.791-5.82,16.174-13.535,17.174l-1.09,0.142V136.3h2.5v-15.159
	c8.411-1.677,14.625-9.843,14.625-19.475c0-2.99-0.615-5.915-1.772-8.583c1.146-1.28,1.838-2.089,1.872-2.127L146.773,90.037z
	 M113.376,90.5l-0.358,0.632c-0.607,1.068-1.108,2.196-1.518,3.36c-0.422,0.009-0.852,0.016-1.289,0.016
	c-0.167,0-0.336-0.001-0.521-0.003l-1.629-0.009v0.01c-1.004-0.011-1.927-0.046-2.748-0.105c-6.83-0.502-14.32-2.492-18.201-3.644
	c3.574-1.883,11.027-5.052,20.949-5.221v0.057l1.412-0.049l1.467,0.028v-0.037c9.463,0.162,16.697,3.066,20.445,4.966L113.376,90.5
	L113.376,90.5z M136.266,90.5l-0.594-0.417c-0.41-0.288-10.215-7.056-25.559-7.056c-0.118,0-0.237,0.002-0.356,0.007l-0.257,0.009
	l-0.033-0.001h-0.008l-0.232-0.007c-0.113-0.004-0.227-0.008-0.338-0.008c-15.345,0-25.15,6.77-25.561,7.058L81.316,91.5
	l2.328,0.792c0.463,0.158,11.451,3.865,21.485,4.601c1.062,0.078,2.272,0.117,3.601,0.117l0.771-0.004l0.71,0.003
	c0.192,0,0.386-0.001,0.576-0.003c-0.007,0.03-0.011,0.061-0.019,0.092c-0.062,0.288-0.117,0.58-0.168,0.873
	c-0.025,0.149-0.049,0.301-0.072,0.451c-0.035,0.242-0.07,0.485-0.098,0.729c-0.027,0.23-0.047,0.461-0.066,0.69
	c-0.016,0.183-0.034,0.364-0.045,0.546c-0.024,0.426-0.041,0.854-0.041,1.28c0,0.306,0.008,0.61,0.02,0.913
	c0.008,0.199,0.023,0.398,0.036,0.598c0.006,0.097,0.011,0.196,0.019,0.294c0.02,0.244,0.045,0.487,0.073,0.73
	c0.005,0.049,0.009,0.099,0.017,0.147c0.029,0.25,0.066,0.5,0.105,0.75c0.006,0.041,0.012,0.082,0.018,0.123
	c0.039,0.238,0.084,0.476,0.132,0.713c0.01,0.053,0.02,0.106,0.03,0.16c0.045,0.215,0.094,0.43,0.145,0.643
	c0.02,0.08,0.037,0.16,0.057,0.238c0.047,0.185,0.096,0.366,0.146,0.549c0.033,0.115,0.064,0.231,0.099,0.347
	c0.043,0.146,0.089,0.289,0.134,0.433c0.051,0.16,0.105,0.32,0.16,0.479c0.02,0.056,0.036,0.112,0.057,0.167
	c-0.642,0.023-1.256,0.041-1.855,0.05l-0.203,0.003l-0.138-0.002c-3.687-0.057-7.28-0.375-10.451-0.656
	c-0.778-0.068-1.535-0.136-2.263-0.197c-4.715-0.392-16.012-12.289-20.911-17.897c7.688-6.935,19.726-16.649,23.757-17.01
	c0.289-0.026,0.574-0.039,0.848-0.039c2.353,0,3.928,0.967,5.596,1.991c0.97,0.595,1.973,1.209,3.148,1.658l0.444,0.168l0.444-0.168
	c1.179-0.449,2.182-1.064,3.152-1.66c1.668-1.024,3.244-1.991,5.596-1.991c0.274,0,0.56,0.013,0.848,0.039
	c4.033,0.36,16.066,10.073,23.755,17.008c-0.118,0.134-0.247,0.28-0.388,0.438L142.8,90.5H136.266z"/>
</svg>
