<?xml version="1.0" encoding="utf-8"?>
<!-- Generator: Adobe Illustrator 16.0.0, SVG Export Plug-In . SVG Version: 6.00 Build 0)  -->
<!DOCTYPE svg PUBLIC "-//W3C//DTD SVG 1.1//EN" "http://www.w3.org/Graphics/SVG/1.1/DTD/svg11.dtd">
<svg version="1.1" id="Layer_1" xmlns="http://www.w3.org/2000/svg" xmlns:xlink="http://www.w3.org/1999/xlink" x="0px" y="0px"
	 width="90px" height="69.432px" viewBox="5 16.75 90 69.432" enable-background="new 5 16.75 90 69.432" xml:space="preserve">
<g>
	<path fill="#E1A957" d="M90.698,59.544l-13.847,5.72L66.266,57.96L78.12,36.117L59.939,17.818H36.9l-2.849,5.029
		c-5.472-2.479-9.834-4.344-10.277-4.533l-0.939-0.4L9.302,37.532l0.709,0.735c0.381,0.396,4.612,4.786,9.741,9.827l-8.467,14.949
		l40.813,21.018L62.8,64.342l9.951,6.864l-0.428,14.976L90.698,59.544z M38.357,20.318h20.542L75.035,36.56L64.193,56.532
		l-2.357-1.626c4.182-8.902-0.945-16.707-4.775-20.004c-0.14-0.119-0.295-0.244-0.461-0.372c-0.031-0.023-0.06-0.047-0.092-0.071
		c-0.145-0.11-0.301-0.224-0.464-0.339c-0.078-0.056-0.155-0.111-0.237-0.168c-0.132-0.09-0.267-0.181-0.406-0.273
		c-2.42-1.611-6.479-3.794-12.132-6.525c-0.243-0.118-0.486-0.235-0.729-0.353c-0.164-0.078-0.326-0.156-0.493-0.236
		c-1.916-0.917-3.852-1.82-5.71-2.675L38.357,20.318z M18.963,43.789c-2.919-2.91-5.309-5.355-6.441-6.521l11.21-16.25
		c2.123,0.917,7.562,3.287,13.397,5.997c0.009,0.004,0.019,0.008,0.027,0.013c0.136,0.063,0.273,0.127,0.409,0.19
		c8.429,3.929,14.328,7.021,16.998,8.914c0.09,0.064,0.18,0.128,0.263,0.189c0.062,0.046,0.122,0.091,0.18,0.135
		c0.152,0.117,0.298,0.232,0.425,0.342c0.217,0.187,3.241,2.853,4.692,6.991H18.963z M51.068,80.718L14.742,62.012l6.859-12.109
		c1.335,1.297,2.705,2.611,4.063,3.888c0.066,0.063,0.132,0.123,0.197,0.186c0.284,0.267,0.567,0.531,0.849,0.793
		c3.581,3.336,6.412,5.771,8.478,7.299c0.028,0.021,0.057,0.043,0.084,0.063c0.18,0.132,0.354,0.259,0.522,0.376
		c0.1,0.07,0.199,0.141,0.296,0.205c0.073,0.051,0.147,0.102,0.219,0.148c0.157,0.104,0.309,0.201,0.455,0.293
		c0.039,0.023,0.077,0.048,0.116,0.07c0.16,0.098,0.315,0.188,0.462,0.269c0.963,0.522,4.455,2.226,8.975,2.226
		c3.438,0,6.583-1.029,9.271-2.998c0.753-0.551,1.473-1.172,2.148-1.869l2.994,2.065L51.068,80.718z M57.331,57.533L56.6,58.387
		c-2.232,2.604-4.936,4.165-8.056,4.659c-0.721,0.113-1.463,0.171-2.227,0.171c-2.929,0-5.7-0.873-7.447-1.748
		c-0.116-0.059-0.229-0.117-0.336-0.175c-0.153-0.084-0.318-0.183-0.49-0.288c-0.03-0.02-0.061-0.037-0.092-0.057
		c-0.142-0.09-0.291-0.188-0.443-0.292c-2.022-1.373-5.847-4.522-13.062-11.483c-0.158-0.152-0.315-0.304-0.473-0.456
		c-0.104-0.101-0.211-0.205-0.316-0.307c-0.24-0.233-0.48-0.467-0.718-0.699c-0.038-0.036-0.077-0.074-0.114-0.111
		c-0.452-0.441-0.898-0.878-1.339-1.312h39.262c0.372,2.492,0.058,5.354-1.619,8.428l-0.538,0.988l17.95,12.38
		c0.116-0.034,0.231-0.067,0.349-0.103c0.006-0.002,0.01-0.006,0.014-0.008c0.193-0.092,0.392-0.162,0.593-0.226
		c0.053-0.026,0.106-0.054,0.157-0.088c0.037-0.022,0.074-0.041,0.111-0.056l0.017-0.023l6.061-2.503l-8.776,12.726l0.188-6.555
		l0.021-0.029c0-0.428,0.019-0.854,0.027-1.289v-0.004L57.331,57.533z M57.394,57.533l-0.731,0.854
		c-2.232,2.604-4.936,4.165-8.056,4.659c-0.721,0.113-1.463,0.171-2.227,0.171c-2.929,0-5.7-0.873-7.447-1.748
		c-0.116-0.059-0.229-0.117-0.336-0.175c-0.153-0.084-0.318-0.183-0.49-0.288c-0.03-0.02-0.061-0.037-0.092-0.057
		c-0.142-0.09-0.291-0.188-0.443-0.292c-2.022-1.373-5.847-4.522-13.062-11.483c-0.158-0.152-0.315-0.304-0.473-0.456
		c-0.104-0.101-0.211-0.205-0.316-0.307c-0.24-0.233-0.48-0.467-0.718-0.699c-0.038-0.036-0.077-0.074-0.114-0.111
		c-0.452-0.441-0.898-0.878-1.339-1.312h39.262c0.372,2.492,0.058,5.354-1.619,8.428l-0.538,0.988 M75.338,71.221 M77.845,67.582
		 M76.953,67.982c0.006-0.002,0.01-0.006,0.014-0.008c0.193-0.092,0.392-0.162,0.593-0.226c0.053-0.026,0.106-0.054,0.157-0.088"/>
</g>
</svg>
