<?xml version="1.0" encoding="utf-8"?>
<!-- Generator: Adobe Illustrator 16.0.0, SVG Export Plug-In . SVG Version: 6.00 Build 0)  -->
<!DOCTYPE svg PUBLIC "-//W3C//DTD SVG 1.1//EN" "http://www.w3.org/Graphics/SVG/1.1/DTD/svg11.dtd">
<svg version="1.1" id="Layer_1" xmlns="http://www.w3.org/2000/svg" xmlns:xlink="http://www.w3.org/1999/xlink" x="0px" y="0px"
	 width="90px" height="86px" viewBox="0 0 90 86" enable-background="new 0 0 90 86" xml:space="preserve">
<path fill="#E1A956" d="M55.358,3c0.42,1.069,0.913,3.421,1.471,7.016c0.171,1.1,0.418,2.321,0.68,3.614
	c1.267,6.248,3,14.803-0.937,23.335c-2.036,4.416-4.424,6.232-6.733,7.989c-1.729,1.315-3.491,2.655-4.739,4.802
	c-1.265-2.154-3.054-3.496-4.81-4.813c-2.343-1.759-4.765-3.576-6.83-7.991c-3.986-8.523-2.229-17.073-0.947-23.315
	c0.265-1.293,0.516-2.514,0.689-3.614C33.769,6.414,34.27,4.06,34.696,3h10.178h0.489H55.358 M56.313,0c-1.68,0-1.9,0-10.95,0
	c-0.168,0-0.326,0-0.489,0c-9.182,0-9.405,0-11.107,0c-1.732,0-2.551,3.333-3.529,9.556c-0.979,6.223-4.778,17.371,0.504,28.666
	c5.282,11.297,13.108,8.24,13.108,19.111s0,14.374,0,19.111c0,4.738-0.284,6.035-6.05,6.035s-7.563,0.617-7.563,2.012
	c0,0.893,0.619,1.509,1.008,1.509c0.345,0,11.194,0,13.628,0c0.308,0,0.489,0,0.489,0c2.414,0,13.096,0,13.437,0
	c0.383,0,0.994-0.616,0.994-1.509c0-1.395-1.772-2.012-7.459-2.012c-5.688,0-5.969-1.297-5.969-6.035c0-4.737,0-8.24,0-19.111
	s7.721-7.814,12.931-19.111c5.21-11.295,1.462-22.443,0.497-28.666C58.829,3.333,58.021,0,56.313,0L56.313,0z"/>
</svg>
