<?xml version="1.0" encoding="utf-8"?>
<!-- Generator: Adobe Illustrator 16.0.0, SVG Export Plug-In . SVG Version: 6.00 Build 0)  -->
<!DOCTYPE svg PUBLIC "-//W3C//DTD SVG 1.1//EN" "http://www.w3.org/Graphics/SVG/1.1/DTD/svg11.dtd">
<svg version="1.1" id="Layer_1" xmlns="http://www.w3.org/2000/svg" xmlns:xlink="http://www.w3.org/1999/xlink" x="0px" y="0px"
	 width="90px" height="58.684px" viewBox="5.001 19.909 90 58.684" enable-background="new 5.001 19.909 90 58.684"
	 xml:space="preserve">
<g>
	<path fill="#E1A957" d="M76.339,30.07l-7.159-7.159c-1.936-1.936-4.51-3.002-7.248-3.002s-5.312,1.066-7.248,3.002L23.661,53.936
		c-1.936,1.936-3.002,4.51-3.002,7.248c0,2.737,1.066,5.312,3.002,7.248l7.16,7.159c1.936,1.937,4.51,3.002,7.248,3.002
		c2.738,0,5.313-1.065,7.248-3.002l31.024-31.024c1.937-1.936,3.002-4.51,3.002-7.248C79.342,34.58,78.275,32.006,76.339,30.07z
		 M43.548,73.822c-1.464,1.463-3.41,2.27-5.48,2.27c-2.07,0-4.016-0.806-5.479-2.27l-7.16-7.16c-1.463-1.464-2.27-3.41-2.27-5.48
		s0.807-4.017,2.27-5.479L53.852,27.28l7.588,7.59l1.769-1.768l-7.589-7.589l0.835-0.835c1.463-1.463,3.409-2.27,5.479-2.27
		c2.069,0,4.016,0.807,5.479,2.27l7.159,7.159c1.463,1.464,2.27,3.41,2.27,5.48c0,0.334-0.027,0.662-0.07,0.988
		c-1.31-1.235-3.015-1.918-4.83-1.918c-1.889,0-3.66,0.732-4.989,2.061c-1.329,1.329-2.062,3.1-2.062,4.989s0.731,3.66,2.062,4.988
		c0.341,0.341,0.712,0.637,1.099,0.895L57.159,60.21L48.1,51.15l-1.768,1.768l9.061,9.061L43.548,73.822z M69.873,47.497
		c-0.406-0.204-0.805-0.49-1.152-0.84c-0.857-0.856-1.328-2-1.328-3.221s0.471-2.364,1.328-3.221c0.855-0.857,2-1.329,3.221-1.329
		c1.22,0,2.363,0.472,3.221,1.329c0.271,0.271,0.494,0.573,0.675,0.912c-0.342,0.603-0.761,1.167-1.265,1.67L69.873,47.497z"/>
	<path fill="#E1A957" d="M36.666,55.652c-1.636,0-3.173,0.637-4.33,1.793c-1.158,1.158-1.794,2.695-1.794,4.332
		c0,1.635,0.638,3.173,1.794,4.328c1.157,1.158,2.695,1.795,4.33,1.795s3.173-0.637,4.33-1.795c1.157-1.156,1.795-2.694,1.795-4.33
		c0-1.635-0.638-3.172-1.795-4.33C39.84,56.29,38.302,55.652,36.666,55.652z M39.229,64.338c-0.686,0.686-1.595,1.063-2.563,1.063
		c-0.967,0-1.877-0.377-2.562-1.063c-0.684-0.684-1.061-1.594-1.062-2.563c0-0.967,0.376-1.877,1.062-2.563
		c0.685-0.686,1.594-1.063,2.562-1.063s1.878,0.377,2.563,1.063s1.063,1.596,1.063,2.563C40.291,62.743,39.914,63.652,39.229,64.338
		z"/>
	<path fill="#E1A957" d="M51.455,45.1c1.335,0,2.59-0.52,3.533-1.464c1.951-1.951,1.951-5.125,0-7.076
		c-0.943-0.943-2.198-1.463-3.533-1.463c-1.336,0-2.593,0.521-3.539,1.467c-1.949,1.948-1.949,5.12,0,7.069
		C48.862,44.579,50.119,45.1,51.455,45.1z M49.684,38.332c0.474-0.474,1.103-0.734,1.771-0.734c0.667,0,1.294,0.26,1.766,0.731
		c0.977,0.976,0.977,2.564,0,3.54c-0.472,0.472-1.099,0.731-1.766,0.731c-0.668,0-1.297-0.261-1.771-0.734
		C48.71,40.892,48.71,39.306,49.684,38.332z"/>
</g>
</svg>
