<?xml version="1.0" encoding="utf-8"?>
<!-- Generator: Adobe Illustrator 16.0.0, SVG Export Plug-In . SVG Version: 6.00 Build 0)  -->
<!DOCTYPE svg PUBLIC "-//W3C//DTD SVG 1.1//EN" "http://www.w3.org/Graphics/SVG/1.1/DTD/svg11.dtd">
<svg version="1.1" id="Layer_1" xmlns="http://www.w3.org/2000/svg" xmlns:xlink="http://www.w3.org/1999/xlink" x="0px" y="0px"
	 width="90px" height="84.2px" viewBox="5.05 7.9 90 84.2" enable-background="new 5.05 7.9 90 84.2" xml:space="preserve">
<path fill="#E1A957" d="M72.9,36.4c0-0.3-0.101-1-0.2-1.9c0-0.1,0-0.1,0-0.2C71.6,28,67.7,11.2,67.2,9c-0.2-0.6-0.7-1.1-1.4-1.1
	H34.3c-0.7,0-1.2,0.5-1.4,1.1c-0.5,2.2-4.4,19-5.5,25.3c0,0.1,0,0.1,0,0.2c-0.1,0.9-0.2,1.6-0.2,1.9c0,12.1,9.5,22.1,21.5,22.8v30.1
	h-8.4c-0.8,0-1.4,0.601-1.4,1.4s0.6,1.399,1.4,1.399H59.9c0.8,0,1.399-0.6,1.399-1.399s-0.6-1.4-1.399-1.4h-8.4V59.2
	C63.4,58.5,72.9,48.5,72.9,36.4z M35.4,10.7h29.2c1.7,7.2,2.397,8.515,3.298,13.715l-35.549-0.078C33.349,19.237,33.7,18,35.4,10.7z
	 M30,36.4c0-0.1,0-0.2,0-0.3h40c0,0.1,0,0.2,0,0.3c0,11-9,20-20,20S30,47.4,30,36.4z M30,36.4c0-0.1,0-0.2,0-0.3h40
	c0,0.1,0,0.2,0,0.3c0,11-9,20-20,20S30,47.4,30,36.4z"/>
</svg>
