<?xml version="1.0" encoding="utf-8"?>
<!-- Generator: Adobe Illustrator 16.0.0, SVG Export Plug-In . SVG Version: 6.00 Build 0)  -->
<!DOCTYPE svg PUBLIC "-//W3C//DTD SVG 1.1//EN" "http://www.w3.org/Graphics/SVG/1.1/DTD/svg11.dtd">
<svg version="1.1" id="Layer_1" xmlns="http://www.w3.org/2000/svg" xmlns:xlink="http://www.w3.org/1999/xlink" x="0px" y="0px"
	 width="90px" height="70px" viewBox="5 11 90 70" enable-background="new 5 11 90 70" xml:space="preserve">
<g transform="translate(0,-952.36218)">
	<path fill="#E1A957" d="M50,963.362c-8.965,0-17.921,3.417-24.753,10.248c-13.663,13.662-13.663,35.843,0,49.506
		c13.662,13.662,35.843,13.662,49.506,0c13.662-13.663,13.662-35.844,0-49.506C67.921,966.778,58.965,963.362,50,963.362z
		 M50,966.492c8.152,0,16.294,3.134,22.521,9.356c12.45,12.444,12.45,32.583,0,45.036c-12.453,12.45-32.591,12.45-45.035,0
		c-12.446-12.453-12.446-32.591,0-45.036C33.708,969.626,41.845,966.492,50,966.492z M49.825,972.865
		c-0.82,0.085-1.436,0.793-1.416,1.616v23.585c-0.027,0.154-0.027,0.313,0,0.472c0.013,0.102,0.034,0.201,0.068,0.297
		c0,0.009,0,0.021,0,0.03c0.02,0.036,0.034,0.076,0.055,0.121c0.01,0.021,0.013,0.028,0.023,0.046
		c0.034,0.091,0.077,0.177,0.127,0.256c0.033,0.041,0.065,0.075,0.101,0.125c0.067,0.08,0.138,0.148,0.22,0.217
		c0.041,0.039,0.084,0.068,0.123,0.102l15.678,15.676c0.615,0.633,1.622,0.636,2.256,0.022c0.618-0.612,0.635-1.615,0.022-2.25
		c-0.019-0.012-0.022-0.017-0.039-0.038l-15.447-15.447V974.48c0.012-0.883-0.677-1.606-1.562-1.629
		C49.965,972.849,49.895,972.855,49.825,972.865z"/>
</g>
</svg>
