<?xml version="1.0" encoding="UTF-8"?>
<svg id="Layer_2" data-name="Layer 2" xmlns="http://www.w3.org/2000/svg" xmlns:xlink="http://www.w3.org/1999/xlink" viewBox="0 0 200 114.86">
  <defs>
    <style>
      .cls-1 {
        fill: url(#linear-gradient-2);
      }

      .cls-2 {
        fill: #001a70;
      }

      .cls-3 {
        fill: url(#linear-gradient-4);
      }

      .cls-4 {
        fill: url(#linear-gradient-3);
      }

      .cls-5 {
        fill: #0079d0;
      }

      .cls-6 {
        fill: url(#linear-gradient-5);
      }

      .cls-7 {
        fill: url(#linear-gradient-8);
      }

      .cls-8 {
        fill: url(#linear-gradient-7);
      }

      .cls-9 {
        fill: #c40e3d;
      }

      .cls-10 {
        fill: url(#linear-gradient-6);
      }

      .cls-11 {
        fill: #1d1d1b;
      }

      .cls-12 {
        fill: url(#linear-gradient);
      }

      .cls-13 {
        fill: #eedab3;
      }
    </style>
    <linearGradient id="linear-gradient" x1="15.91" y1="-26.9" x2="191.37" y2="148.56" gradientTransform="translate(0 114.81) scale(1 -1)" gradientUnits="userSpaceOnUse">
      <stop offset="0" stop-color="#fff8b7"/>
      <stop offset=".1" stop-color="#eac75d"/>
      <stop offset=".18" stop-color="#815524"/>
      <stop offset=".31" stop-color="#d4b063"/>
      <stop offset=".38" stop-color="#ffdf84"/>
      <stop offset=".47" stop-color="#f7d47a"/>
      <stop offset=".62" stop-color="#eec86f"/>
      <stop offset=".73" stop-color="#a07121"/>
      <stop offset=".78" stop-color="#99691d"/>
      <stop offset=".82" stop-color="#fff594"/>
      <stop offset=".99" stop-color="#dab16e"/>
    </linearGradient>
    <linearGradient id="linear-gradient-2" x1="15.83" y1="-26.83" x2="191.29" y2="148.63" xlink:href="#linear-gradient"/>
    <linearGradient id="linear-gradient-3" x1="-48.24" y1="37.24" x2="127.22" y2="212.7" xlink:href="#linear-gradient"/>
    <linearGradient id="linear-gradient-4" x1="44.2" y1="-55.2" x2="219.66" y2="120.26" xlink:href="#linear-gradient"/>
    <linearGradient id="linear-gradient-5" x1="-12.39" y1="1.39" x2="163.07" y2="176.85" xlink:href="#linear-gradient"/>
    <linearGradient id="linear-gradient-6" x1="80.05" y1="-91.05" x2="255.51" y2="84.41" xlink:href="#linear-gradient"/>
    <linearGradient id="linear-gradient-7" x1="-2.5" y1="-8.49" x2="172.96" y2="166.97" xlink:href="#linear-gradient"/>
    <linearGradient id="linear-gradient-8" x1="-.39" y1="-10.6" x2="175.06" y2="164.86" xlink:href="#linear-gradient"/>
  </defs>
  <g id="Layer_2-2" data-name="Layer 2">
    <g id="Layer_1-2" data-name="Layer 1-2">
      <path class="cls-2" d="M.74,14.94v85.35h85.44l13.83,13.82,13.83-13.82h85.43V14.94l-85.18-.13L100.01.74l-14.08,14.08s-85.19.12-85.19.12Z"/>
      <g>
        <g>
          <path class="cls-13" d="M97.29,9.96l-12.95,12.95-66.08.14v69.02l66.08-.11,15.67,15.67h0l15.67-15.67,65.94.11V23.05l-65.94-.14-15.67-15.67-2.72,2.72h0ZM105.07,97.21l-5.06,5.06-5.06-5.06-5.06-5.06h20.25l-5.06,5.06h0ZM100.01,22.8h-10.13l5.06-5.06,5.06-5.06,5.06,5.06,5.06,5.06h-10.12,0Z"/>
          <rect class="cls-2" x="12.29" y="54" width="7.27" height="7.27" transform="translate(-36.09 28.14) rotate(-45)"/>
          <rect class="cls-2" x="180.92" y="54" width="7.27" height="7.27" transform="translate(13.3 147.38) rotate(-45)"/>
        </g>
        <g>
          <g>
            <path class="cls-11" d="M52.13,42.56h.26l9.26,18.27h-3.87l-1.4-2.93h-8.25l-1.48,2.93h-3.79l9.26-18.27h0ZM54.85,54.75l-2.59-5.39-2.59,5.39h5.19Z"/>
            <path class="cls-11" d="M63.59,42.92h3.45v14.68h8.25v3.21h-11.7v-17.9h0Z"/>
            <path class="cls-11" d="M77.73,42.92h5.82c1.96,0,3.44.41,4.46,1.24,1.02.83,1.53,2,1.53,3.5,0,.74-.16,1.4-.47,1.97-.31.57-.79,1.02-1.45,1.35,1.28.22,2.23.71,2.84,1.47.61.76.92,1.78.92,3.07,0,1.67-.56,2.98-1.69,3.9s-2.67,1.39-4.61,1.39h-7.34v-17.9h0ZM83.31,50c1.76,0,2.64-.65,2.64-1.95s-.88-1.95-2.64-1.95h-2.13v3.89h2.13ZM84.74,57.63c2.02,0,3.04-.77,3.04-2.31s-1.01-2.26-3.04-2.26h-3.56v4.56h3.56Z"/>
            <path class="cls-11" d="M93.82,42.92h3.45v17.9h-3.45s0-17.9,0-17.9Z"/>
            <path class="cls-11" d="M101.42,56.75c-.81-1.41-1.22-3.04-1.22-4.87s.41-3.48,1.22-4.89c.81-1.41,1.94-2.52,3.39-3.32,1.44-.81,3.11-1.21,4.99-1.21s3.55.4,4.99,1.21c1.44.81,2.57,1.91,3.39,3.32s1.22,3.04,1.22,4.89-.41,3.46-1.22,4.87c-.81,1.41-1.94,2.53-3.39,3.33-1.44.81-3.11,1.21-4.99,1.21s-3.55-.4-4.99-1.21c-1.44-.81-2.57-1.92-3.39-3.33ZM115.05,55.04c.51-.92.76-1.97.76-3.16s-.25-2.27-.76-3.18-1.21-1.62-2.11-2.14-1.95-.78-3.14-.78-2.21.26-3.13.78-1.61,1.23-2.13,2.14c-.51.91-.76,1.97-.76,3.18s.25,2.25.76,3.16c.51.92,1.22,1.64,2.13,2.16.91.52,1.95.78,3.13.78s2.24-.26,3.14-.78c.9-.52,1.61-1.24,2.11-2.16Z"/>
            <path class="cls-11" d="M122.33,42.58h.26l9.57,7.89v-7.55h3.45v17.9h-3.45v-6.13l-6.39-5.32v11.44h-3.45v-18.24h0Z"/>
            <path class="cls-11" d="M138.29,44.94c0-.73.16-1.29.47-1.69.31-.4.74-.6,1.3-.6.48,0,.87.15,1.16.44.29.3.43.69.43,1.19,0,.31-.09.69-.27,1.13-.19.44-.47,1.01-.87,1.73l-1.64,2.85h-.57v-5.06h0Z"/>
            <path class="cls-11" d="M145.38,49.02c.62-1.54,1.26-2.76,1.9-3.67.65-.91,1.36-1.56,2.16-1.96.79-.4,1.7-.6,2.73-.6.52,0,.93.04,1.24.13v3.24c-.07-.01-.16-.03-.27-.04s-.22-.01-.33-.01c-.84,0-1.57.29-2.16.86-.6.57-1.18,1.55-1.75,2.93l-2,4.9c-.62,1.52-1.25,2.73-1.9,3.63-.64.9-1.35,1.54-2.13,1.93-.78.39-1.7.59-2.78.59-.3,0-.58-.01-.86-.05-.27-.04-.52-.08-.73-.13v-3.24c.24.07.55.1.91.1.88,0,1.62-.28,2.23-.84.61-.56,1.18-1.52,1.71-2.87l2-4.9h0Z"/>
          </g>
          <g>
            <path class="cls-11" d="M78.59,68.47c.84-1.41,2.04-2.5,3.57-3.3s3.32-1.18,5.36-1.18c.9,0,1.76.09,2.59.27s1.51.43,2.05.74v3.19c-1.3-.59-2.81-.88-4.54-.88-1.35,0-2.53.25-3.54.76-1.01.5-1.79,1.21-2.35,2.13-.56.92-.83,1.99-.83,3.21s.25,2.25.76,3.16c.51.92,1.22,1.64,2.13,2.16.91.52,1.95.78,3.13.78.99,0,1.87-.19,2.64-.56s1.4-.89,1.85-1.56c.46-.67.7-1.42.71-2.27h-6.33v-3.04h9.96c.04.22.06.45.07.69s.01.5.01.79c0,1.9-.36,3.55-1.09,4.93-.73,1.39-1.76,2.45-3.09,3.21-1.33.76-2.91,1.13-4.75,1.13-1.4,0-2.68-.23-3.85-.69-1.17-.46-2.19-1.11-3.04-1.96-.87-.84-1.53-1.84-2-3-.47-1.15-.7-2.41-.7-3.78,0-1.88.42-3.53,1.27-4.94h0Z"/>
            <path class="cls-11" d="M98.6,64.46h3.45v17.9h-3.45v-17.9Z"/>
            <path class="cls-11" d="M105.68,64.13h.26l9.57,7.89v-7.55h3.45v17.9h-3.45v-6.13l-6.39-5.32v11.44h-3.45v-18.24h0Z"/>
          </g>
        </g>
      </g>
      <rect class="cls-9" x="5.33" y="19.54" width="4.45" height="4.45"/>
      <rect class="cls-9" x="190.21" y="19.54" width="4.45" height="4.45"/>
      <rect class="cls-9" x="5.33" y="91.25" width="4.45" height="4.45"/>
      <rect class="cls-9" x="190.21" y="91.25" width="4.45" height="4.45"/>
      <rect class="cls-5" x="88.93" y="11.83" width="22.16" height="22.19" transform="translate(13.09 77.43) rotate(-45)"/>
      <g>
        <path class="cls-2" d="M100.02,11.81h0c6.11,0,11.06,4.95,11.06,11.06h0c0,6.11-4.95,11.06-11.06,11.06h0c-6.11,0-11.06-4.95-11.06-11.06h0c0-6.11,4.95-11.06,11.06-11.06Z"/>
        <g>
          <path class="cls-2" d="M100.02,32.7h-.16c-.54,0-1.04-.06-1.47-.12l-.27-.05v-5.72c-1.84-2.19-4.62-2.77-5.93-2.93.22,1.74.99,3.32,2.24,4.56l.11.11-1.34,1.34-.11-.11c-1.85-1.85-2.87-4.31-2.87-6.93,0-5.02,3.76-9.2,8.73-9.74l1.05-.11v19.68h0ZM98.43,32.28h.02c.36.05.8.1,1.27.11V13.36l-.71.07c-4.82.52-8.46,4.57-8.46,9.43,0,2.48.95,4.82,2.67,6.6l.91-.91c-1.28-1.33-2.06-2.99-2.25-4.83l-.02-.19.19.02c1.24.13,4.35.68,6.36,3.1l.04.04v5.57h0ZM98.43,24.85l-.25-.21c-2.19-1.79-4.81-2.26-6.18-2.38h-.16s.01-.17.01-.17c.33-3.56,2.9-6.47,6.38-7.24l.19-.04v10.03h0ZM92.18,21.97c1.39.14,3.82.61,5.94,2.23v-9.01c-3.21.79-5.57,3.47-5.94,6.77h0Z"/>
          <path class="cls-2" d="M100.03,32.72V13.02l1.05.11c2.73.3,5.22,1.73,6.84,3.95l.09.13-1.53,1.12-.09-.13c-1.1-1.5-2.67-2.56-4.47-3v15.33c3.19-.79,5.55-3.44,5.93-6.72h-2.65v-1.9h4.61v.95c0,5.02-3.76,9.2-8.73,9.74l-1.05.11h0ZM100.34,13.37v19.02l.71-.07c4.82-.52,8.46-4.57,8.46-9.43v-.64h-3.99v1.28h2.68v.17c-.36,3.54-2.93,6.43-6.39,7.2l-.19.04V14.83l.19.04c1.89.42,3.57,1.5,4.74,3.04l1.04-.76c-1.58-2.07-3.95-3.42-6.54-3.7l-.71-.07h0Z"/>
        </g>
      </g>
      <g>
        <path class="cls-12" d="M199.27,14.2l-84.87-.13L100.54.22c-.29-.29-.76-.29-1.05,0l-13.87,13.87-84.88.12c-.41,0-.74.33-.74.74v85.35c0,.41.33.74.74.74h85.13l13.62,13.61c.15.15.33.21.53.21s.38-.07.53-.21l13.61-13.61h85.11c.41,0,.74-.33.74-.74V14.94c0-.41-.33-.74-.74-.74h0ZM198.53,99.55h-84.68c-.2,0-.39.08-.53.21l-13.3,13.3-13.3-13.3c-.14-.14-.33-.21-.53-.21H1.48V15.68l84.44-.12c.19,0,.39-.08.53-.21l13.56-13.56,13.55,13.55c.14.14.33.21.53.21l84.44.13v83.87h0Z"/>
        <path class="cls-1" d="M100.54,6.71l-.53-.52-12.47,12.47-34.23.13-3.44,3.44h-8.04s2.07-2.05,2.07-2.05l1.27-1.4H12.19v7.52h-7.6v16.26l5.49,5.34h0l1.99,1.99-1.67,1.67-5.81-5.81v23.83l5.8-5.8,1.66,1.66-7.47,6.8v16.56h7.6v7.63h32.96l-3.67-3.67h7.88s3.69,3.67,3.69,3.67h34.73l12.24,12.23,12.23-12.23h34.59l3.68-3.69h8.01s-3.73,3.75-3.73,3.75l32.82-.06v-7.87h7.81v-15.59l-7.49-7.5,1.69-1.69,5.81,5.81v-23.83l-5.8,5.8-1.67-1.67,1.99-1.99h0l5.47-5.33v-16.17l-7.59-.04v-7.56h-33.09l3.47,3.47h-8.03s-3.56-3.59-3.56-3.59h-34.11l-11.96-11.96h0ZM186.13,87.09h-3.67v-16.14l3.67-3.67v19.82h0ZM100,97.77l2.41-2.41,1.6,1.6-4.01,4.01-4.01-4.01,1.6-1.6,2.41,2.41h0ZM105.07,95.92l-3.27-3.27h6.54l-3.27,3.27h0ZM94.94,95.92l-3.27-3.27h6.53l-3.27,3.27h0ZM94.94,98.01h0l5.06,5.06,5.06-5.06,1.67,1.67-6.73,6.73-6.73-6.73,1.67-1.67h0ZM115.37,91.22l-7.5,7.5-1.76-1.76,5.81-5.81h-23.83l5.8,5.8-1.76,1.76-7.5-7.5-34.68.06-30.81-30.81,1.73-1.73,30.92,30.91h96.37l30.92-30.91,1.67,1.67-30.88,30.87-34.53-.06h0ZM13.67,27.8h3.84v16.65l-3.84,3.84v-20.5h0ZM149.53,23.73l31.25,31.25-1.67,1.67-30.9-30.9-.34-.21h-33.79l1.86-1.86,33.59.07h0ZM180.97,87.09l-14.68.02,14.68-14.68v14.66h0ZM180.97,70.33l-16.79,16.79h-3.06l19.85-19.62v2.84h0ZM180.97,88.58v2.75l-18.86-.03,2.7-2.7,16.17-.02h0ZM17.53,62.12v1.79l-.9-.89s.9-.9.9-.9ZM19.01,72.4l14.93,14.93h-14.93s0-14.93,0-14.93ZM19.01,88.81h16.42l2.48,2.48-18.9.03s0-2.51,0-2.51ZM19.01,70.3v-2.84l20.1,19.87h-3.07s-17.03-17.03-17.03-17.03ZM19.01,27.79h15.19s-15.19,15.17-15.19,15.17v-15.17ZM19.01,45.06l17.29-17.29h3.16l-20.44,20.14v-2.85h0ZM19.01,26.31v-2.51l19.22-.04-2.54,2.54s-16.67.01-16.67.01ZM49.31,24.87h0l1.16-1.14,33.64-.07,1.86,1.86h-33.96s-31.11,31.12-31.11,31.12l-1.68-1.68,30.08-30.08h0ZM85.3,22.91l3.78-3.78s-.04.09-.05.14c-.37,1.13-.58,2.34-.58,3.6,0,.1.01.21.01.3,0,.13.01.24.02.37.04.67.13,1.33.28,1.97.1.42.22.83.36,1.23l-1.23-1.23-2.56-2.56-.04-.04h0ZM114.69,22.97l-2.54,2.54-1.22,1.22c.14-.4.27-.81.36-1.22.15-.64.24-1.3.28-1.96,0-.11.01-.22.01-.34,0-.11.01-.22.01-.34,0-1.24-.2-2.43-.56-3.55-.01-.04-.03-.08-.04-.13l3.73,3.73-.04.04h0ZM91.48,16.74c.2-.27.41-.54.63-.79.33-.37.67-.73,1.05-1.04.24-.2.48-.39.73-.58.1-.07.21-.16.31-.22,1.47-.98,3.2-1.59,5.07-1.73.25-.01.5-.04.76-.04s.48.02.73.04c1.84.13,3.56.72,5.02,1.67.08.05.16.1.24.16.3.21.59.44.87.68.38.33.73.67,1.05,1.04.27.3.53.62.76.96.05.08.1.16.16.24.96,1.47,1.55,3.18,1.67,5.02.01.24.04.48.04.73,0,.23-.02.45-.04.67-.04.67-.15,1.33-.31,1.96-.13.51-.29,1.01-.5,1.48-.36.84-.83,1.62-1.39,2.33-.54.69-1.16,1.31-1.85,1.85-1.79,1.39-4.02,2.23-6.46,2.23s-4.7-.84-6.48-2.24c-.67-.53-1.28-1.13-1.81-1.81-.56-.72-1.04-1.5-1.41-2.36-.2-.47-.36-.98-.5-1.48-.16-.64-.27-1.29-.32-1.97-.01-.22-.04-.44-.04-.67,0-.25.02-.5.04-.76.13-1.86.75-3.59,1.73-5.07.07-.1.15-.21.22-.31h.02ZM100.03,34.45c1.36,0,2.65-.24,3.87-.68l-3.87,3.87-3.87-3.87c1.21.44,2.52.68,3.87.68h0ZM103.57,11.85c-1.12-.36-2.31-.56-3.55-.56s-2.47.21-3.6.58c-.04.01-.09.04-.14.05l3.72-3.72,3.7,3.7s-.08-.03-.13-.04h0ZM17.53,53.26l-.9-.9.9-.89v1.79h0ZM21.95,57.68l30.68-30.68h34.82l12.57,12.57,12.57-12.57h34.78l30.69,30.69h0l-30.48,30.48H52.44l-30.48-30.48h0ZM182.46,62.08l.93.93-.93.93v-1.86ZM182.36,53.39v-2.13l1.07,1.07s-1.07,1.07-1.07,1.07ZM180.87,42.83l-15.12-15.12,15.12.09v15.03ZM180.87,26.32l-16.61-.1-2.47-2.47,19.08.04v2.53ZM180.87,44.94v2.73l-19.88-19.97h2.65s17.23,17.25,17.23,17.25ZM19.01,53.07v-3.07l24.06-23.71h-5.29l2.55-2.54h8.02s-29.34,29.33-29.34,29.33h0ZM17.53,46.55v2.83l-1.95,1.92-1.4-1.4,3.36-3.36h0ZM15.58,64.06l1.95,1.93v2.83l-3.35-3.35,1.41-1.41h0ZM13.67,68.04l.07-.91,3.78,3.78v16.42h-3.84v-19.29h0ZM37.52,88.81h5.2l-23.71-23.45v-2.96l28.87,28.87h-7.88s-2.48-2.47-2.48-2.47h0ZM180.97,62.32v3.09l-23.46,23.21h5.19l-2.69,2.68h-8.01s28.96-28.98,28.96-28.98h0ZM182.46,68.85v-2.82l1.99-1.96,1.4,1.4-3.39,3.39h0ZM182.36,49.15v-2.73l3.48,3.48-1.37,1.37-2.11-2.12h0ZM186.34,48.3l-3.98-3.98v-16.5l3.98.02v20.46ZM162.15,26.22l-4.76-.03,23.47,23.58v3.21l-26.38-26.38h0l-2.85-2.87h8.04s2.47,2.48,2.47,2.48h0ZM53.92,20.28l32.12-.12-2.01,2.01-32.08.07,1.96-1.96h0ZM13.67,20.28h28.02l-1.99,1.99-22.19.04v3.99h-3.84v-6.03h0ZM11.13,46.86l-.48.48.47-.49-5.04-4.9v-14.15h6.11v20.12l-1.07-1.07h0ZM10.4,61.69l-1.81-1.81,2.2-2.2-2.19-2.19,1.81-1.81,2.17,2.17,1.84,1.84-1.79,1.79-2.22,2.22h0ZM6.09,49.35l3.27,3.27-3.27,3.27v-6.54h0ZM6.09,66.01v-6.53l3.27,3.27-3.27,3.27ZM11.45,62.74l2.22-2.22,2.84-2.84-2.89-2.89-2.17-2.17h0l1.67-1.67,1.39,1.39.78.78,2.97,2.97,1.59,1.59-1.59,1.59-2.93,2.92-2.22,2.22-.62-.62h0l-1.05-1.05h.01ZM6.09,87.33v-14.42s6.15-5.62,6.15-5.62l-.05.68v19.35h-6.1,0ZM41.57,94.96H13.67v-6.15h3.84v4l21.86-.04,2.19,2.19h0ZM53.66,94.96l-2.21-2.21,32.58-.05,2.26,2.26h-32.63ZM146.22,94.96h-32.5l2.26-2.26,32.44.05-2.21,2.21h0ZM186.13,94.96h-27.68l2.19-2.19,21.83.04v-4.24h3.67v6.39ZM193.93,73.6v13.47h-6.32v-19.8s6.32,6.33,6.32,6.33ZM189.61,53.67l1.81,1.81-1.94,1.94-.25.25.2.2,1.99,1.99-1.81,1.81-1.99-1.99-2.01-2.01,2.07-2.07,1.94-1.94h0ZM193.93,66.01l-3.27-3.27,3.27-3.27v6.54ZM193.93,49.35v6.53l-3.27-3.27s3.27-3.27,3.27-3.27ZM188.56,52.62l-1.94,1.94-3.12,3.12,3.07,3.07,1.99,1.99-1.67,1.67-1.39-1.39h0l-.6-.6-3.28-3.28-1.45-1.45,1.45-1.45,3.33-3.33.57-.57h0l1.37-1.37h0l1.67,1.67h0ZM193.93,27.88v14.07l-5.04,4.9.59.61-.59-.59-1.07,1.07v-20.08l6.1.04h0ZM158.32,20.28h28.02v6.07l-3.98-.02v-4.01l-22.05-.04-1.99-1.99h0ZM145.99,20.16l2.08,2.08-32.08-.07-2.01-2.01h32.02,0Z"/>
        <path class="cls-4" d="M10.53,18.8h-5.94v5.94h5.94s0-5.94,0-5.94ZM9.04,23.25h-2.97v-2.97h2.97v2.97Z"/>
        <path class="cls-3" d="M195.41,18.8h-5.94v5.94h5.94s0-5.94,0-5.94ZM193.93,23.25h-2.97v-2.97h2.97v2.97Z"/>
        <path class="cls-6" d="M4.59,96.44h5.94v-5.94h-5.94v5.94ZM6.08,91.99h2.97v2.97h-2.97v-2.97Z"/>
        <path class="cls-10" d="M189.47,96.44h5.94v-5.94h-5.94v5.94h0ZM190.96,91.99h2.97v2.97h-2.97v-2.97Z"/>
        <path class="cls-8" d="M90.91,25.51c.15.51.34,1.01.58,1.48.44.9,1.01,1.73,1.72,2.47l.91-.91c-.46-.47-.83-1.01-1.16-1.56-.27-.47-.5-.96-.68-1.48-.19-.58-.35-1.16-.41-1.79l-.02-.19h.19c1.01.12,3.25.53,5.13,1.97.43.33.85.7,1.22,1.15l.04.04v5.57h.02c.36.05.8.1,1.27.11V13.36l-.43.04-.28.03c-.33.04-.64.09-.95.16-1.57.33-2.99,1.05-4.16,2.04-.38.32-.73.67-1.05,1.04-1.02,1.19-1.75,2.63-2.09,4.21-.08.4-.15.81-.18,1.23-.01.23-.03.45-.03.68v.07c0,.23.01.45.03.67.04.67.16,1.33.34,1.97h0ZM92,22.27h-.16s.01-.17.01-.17v-.04c0-.07.03-.15.04-.22.06-.46.16-.9.28-1.33.2-.66.47-1.29.81-1.87.22-.37.47-.72.75-1.05.32-.38.67-.73,1.04-1.05.33-.27.67-.51,1.04-.73.56-.33,1.18-.57,1.81-.76.2-.06.39-.13.59-.18l.19-.04v10.03l-.25-.21c-.54-.44-1.11-.81-1.67-1.1-.61-.32-1.22-.56-1.81-.74-1.07-.33-2.03-.47-2.69-.53h0Z"/>
        <path class="cls-7" d="M108.57,27c.23-.47.42-.97.57-1.48.19-.63.3-1.29.34-1.96.01-.22.03-.44.03-.67v-.64h-3.99v1.28h2.68v.17c-.07.64-.24,1.24-.43,1.83-.18.52-.39,1.01-.67,1.48-1.13,1.93-3,3.38-5.29,3.88l-.19.04V14.82l.19.04c.19.04.37.12.56.18.65.19,1.27.46,1.85.8.35.21.67.45.99.71.39.31.73.66,1.06,1.04.09.1.2.2.28.31l1.04-.76c-.13-.16-.26-.32-.4-.47-.33-.38-.67-.73-1.05-1.04-1.2-1.01-2.63-1.72-4.18-2.04-.3-.06-.61-.11-.91-.15l-.32-.04-.39-.04v19.02l.71-.07c3.36-.36,6.14-2.44,7.52-5.3h0Z"/>
      </g>
    </g>
  </g>
</svg>