<?xml version="1.0" encoding="utf-8"?>
<!-- Generator: Adobe Illustrator 16.0.0, SVG Export Plug-In . SVG Version: 6.00 Build 0)  -->
<!DOCTYPE svg PUBLIC "-//W3C//DTD SVG 1.1//EN" "http://www.w3.org/Graphics/SVG/1.1/DTD/svg11.dtd">
<svg version="1.1" id="Layer_1" xmlns="http://www.w3.org/2000/svg" xmlns:xlink="http://www.w3.org/1999/xlink" x="0px" y="0px"
	 width="270px" height="139px" viewBox="0 0 270 139" enable-background="new 0 0 270 139" xml:space="preserve">
<g>
	<path fill="#FFFFFF" d="M4.396,68.795c-0.456,0.034-0.954,0.093-1.482,0.192c-0.53,0.082-1.074,0.179-1.641,0.284
		C0.991,69.13,0.563,68.899,0,68.58c0.528-1.024,1.135-2.172,1.802-3.44c0.138-0.146,0.458-0.319,0.956-0.532
		c2.788-3.679,7.095-10.412,9.604-13.552c0.35-0.599,1.021-1.646,2.014-3.127c0.136,0,0.314-0.128,0.526-0.373
		c0.354-0.532,0.725-1.104,1.114-1.723c0.389-0.623,0.811-1.245,1.271-1.882c0.178-0.174,0.362-0.4,0.558-0.662
		c0.195-0.264,0.427-0.542,0.71-0.823c1.563-2.334,3.11-4.725,4.66-7.185c1.554-2.457,3.168-4.92,4.825-7.396l0.74-0.747
		c0.85-1.759,1.629-3.229,2.331-4.399c0.744-1.231,1.604-2.5,2.602-3.812c0.207-0.704,0.383-1.253,0.524-1.642
		c0.427-0.711,0.866-1.458,1.325-2.255c0.457-0.794,0.931-1.614,1.431-2.465c0.215-0.492,0.562-1.344,1.06-2.548
		c0.353-0.528,0.744-1.081,1.188-1.669c0.446-0.581,0.896-1.191,1.354-1.823c0-0.141,0-0.304,0-0.483c0-0.175,0-0.369,0-0.579
		c0.915-1.099,2.207-2.563,3.867-4.401c0.278-0.076,0.831-0.37,1.639-0.905c0.604,0,1.08-0.052,1.435-0.156
		c0.173,0.212,0.36,0.416,0.556,0.611c0.191,0.193,0.43,0.415,0.718,0.663c-0.114,0.101-0.242,0.213-0.401,0.317
		c-0.157,0.106-0.327,0.248-0.507,0.426c-0.385,0.738-0.796,1.48-1.242,2.198c-0.442,0.728-0.873,1.495-1.295,2.31
		c-0.105,0.316-0.206,0.603-0.294,0.871c-0.088,0.266-0.184,0.52-0.291,0.767c-0.177,0.212-0.362,0.447-0.55,0.691
		c-0.194,0.254-0.438,0.511-0.723,0.795c-0.214,0.498-0.688,1.415-1.428,2.754c-0.141,0-0.317,0.108-0.534,0.32
		c-0.561,1.199-1.152,2.409-1.773,3.602c-0.612,1.207-1.243,2.388-1.876,3.555l-0.902,0.692c-0.741,1.378-1.522,2.765-2.329,4.16
		c-0.82,1.397-1.625,2.815-2.439,4.268c-1.663,2.369-3.308,4.778-4.951,7.234c-3.634,5.441-6.58,11.665-10.515,16.834
		c-1.487,1.417-2.949,2.935-4.397,4.56c-0.745,1.023-1.516,2.078-2.309,3.154c-0.79,1.08-3.256,5.464-4.069,6.525
		C5.598,67.555,5.063,68.049,4.396,68.795z"/>
	<path fill="#FFFFFF" d="M35.247,66.847c-0.317-0.209-0.953-0.666-1.904-1.373c0-0.955,0.049-1.73,0.162-2.336
		c-0.113,0.146,0.278-0.278,1.162-1.269c0.351-0.669,0.721-1.358,1.107-2.067c0.396-0.703,0.8-1.433,1.222-2.174
		c0.354-0.529,0.752-1.072,1.192-1.619c0.438-0.545,0.876-1.137,1.297-1.771c1.058-1.169,2.14-2.334,3.233-3.502
		c1.096-1.165,2.229-2.332,3.389-3.499c0.883-0.527,1.78-1.059,2.677-1.589c0.897-0.529,1.845-1.061,2.83-1.59
		c1.1,0,2.705,0.104,4.825,0.316c0.488,0.498,0.919,0.868,1.273,1.115c-0.04,0,0.369-0.127,1.217-0.371
		c0.422-0.18,0.796-0.425,1.115-0.744c1.268-0.213,2.154-0.389,2.646-0.535c0.243,0.146,0.724,0.322,1.43,0.535
		c0,0.498,0.05,0.868,0.155,1.115c-0.279,0.172-0.808,0.656-1.585,1.43c-0.104,0.104-0.458,0.579-1.059,1.431
		c-0.496,0.354-1.222,1.007-2.173,1.962c0.072-0.145-0.107,0.313-0.529,1.376c-0.71,0.992-1.29,1.769-1.753,2.338
		c-0.701,0.493-1.302,0.869-1.803,1.114c-0.101,0.102-0.207,0.233-0.315,0.393c-0.098,0.16-0.232,0.31-0.371,0.447
		c-0.208,0.64-0.406,1.281-0.578,1.914c-0.175,0.635-0.357,1.322-0.528,2.065c-0.087,0.377,0.13,1.136,0.228,1.49
		c0.652,2.351,7.121-3.172,8.486-4.083c2.926-1.947,5.144-3.224,8.621-4.173c0.789,2.331-3.763,4.728-5.187,5.72
		c-2.416,1.679-5.376,2.527-7.699,4.35c-1.931,1.517-4.295,2.844-6.94,2.844c-0.246,0-0.834-0.102-1.75-0.311
		c-0.464-0.182-1.006-0.46-1.644-0.851c-0.105-0.427-0.201-0.869-0.293-1.329c-0.084-0.457-0.165-0.917-0.235-1.377
		c-0.705,0.498-1.292,0.92-1.747,1.274c-0.988,0.46-2.012,0.908-3.073,1.353c-1.06,0.437-2.119,0.93-3.179,1.453
		c-0.245,0-0.495-0.066-0.745-0.213C36.763,66.429,35.709,66.672,35.247,66.847z M38.64,62.768c0.425,0,0.854,0,1.292,0
		c0.445,0,0.898,0,1.356,0c1.587-0.776,2.598-1.307,3.021-1.589c0.704-0.705,1.372-1.377,2.012-2.012
		c0.634-0.639,1.271-1.273,1.904-1.906c0.43-0.182,0.726-0.356,0.901-0.531c0.246-0.358,0.498-0.673,0.744-0.955
		c0.25-0.289,0.475-0.567,0.686-0.855c0.392-0.633,0.992-1.765,1.804-3.395c0.422-1.268,0.779-2.219,1.062-2.855
		c-0.282-0.25-0.548-0.46-0.796-0.639c-0.247-0.174-0.461-0.371-0.639-0.582c-0.353,0.106-0.881,0.156-1.587,0.156
		c-0.707,0.502-1.66,1.1-2.857,1.805c-0.214,0.284-0.368,0.525-0.452,0.716c-0.091,0.197-0.188,0.366-0.295,0.499
		c-0.212,0.149-0.562,0.322-1.058,0.535c-1.021,1.024-1.852,1.925-2.487,2.705c-0.354,0.352-0.892,0.778-1.591,1.275
		c-0.921,1.231-1.697,2.346-2.332,3.336c-0.46,0.989-0.866,1.944-1.218,2.858C38.325,62.121,38.498,62.597,38.64,62.768z"/>
	<path fill="#FFFFFF" d="M58.49,67.43c-0.046-0.073-0.139-0.157-0.281-0.25c-0.133-0.092-0.284-0.195-0.447-0.302
		c-0.027-0.191-0.101-0.324-0.219-0.397c0.086-0.143,0.178-0.464,0.271-0.942c0.319-0.442,0.66-0.871,1.021-1.278
		c0.063-0.26,0.216-0.63,0.458-1.111c0.424-0.481,1.178-1.278,2.277-2.39c0.298-0.553,0.627-1.12,0.999-1.696
		c0.368-0.574,0.738-1.135,1.106-1.692c0.805-0.744,1.373-1.355,1.726-1.838c0.726-1,1.243-2.069,1.958-3.07
		c0.701-0.978,1.199-2.169-0.186-3.187c-0.207,0.37-0.131,0.994-0.489,1.192c-0.628,0.346-2.609,0.061-3.265,0.043
		c1.624-2.592,3.829-3.98,6.482-5.371c0.2-0.11,0.398-0.241,0.628-0.39c0.223-0.144,0.455-0.33,0.704-0.557
		c0.604-0.185,1.127-0.336,1.573-0.445c0.049-0.108,0.122-0.201,0.22-0.277c0.174,0,0.357,0.038,0.547,0.116
		c0.049,0.298,0.119,0.538,0.22,0.718c0.287,0,0.649,0.092,1.103,0.282c-0.028,0.924-0.106,1.571-0.22,1.947
		c-0.208,0.481-0.686,1.369-1.435,2.664l0.584,0.328c0.596-0.479,1.35-1.053,2.272-1.718c0.986-0.446,2.569-1.147,4.747-2.11
		c0.536,0,0.986,0.055,1.354,0.16c0.123,0.114,0.242,0.206,0.361,0.285c0.105,0,0.228,0,0.371,0c0.14,0,0.283,0,0.425,0
		c0.057,0.368,0.142,0.701,0.263,0.992c-0.235,0.746-0.406,1.338-0.514,1.785l-1.012,1.282c0.028,0.184,0.022,0.364-0.023,0.552
		c-0.146,0.187-0.3,0.331-0.455,0.445c-0.24,0.736-0.456,1.352-0.667,1.833c-0.353,0-0.744,0.093-1.171,0.281
		c-0.534,0-0.979-0.057-1.353-0.17c-0.125-0.111-0.371-0.244-0.747-0.384c-0.093-0.598-0.124-1.079-0.071-1.453
		c0.032-0.222,0.161-0.53,0.38-0.94c-0.179,0-0.362-0.058-0.555-0.164c-1.038,0.591-1.606,0.924-1.699,0.997
		c-0.885,0.668-2.196,1.741-3.942,3.224c-0.854,0.853-2.186,2.202-4.014,4.056c-1.313,1.556-2.302,2.682-2.968,3.391
		c-0.561,0.892-1.094,1.775-1.588,2.668c-0.113,0.151-0.259,0.295-0.428,0.444c-0.176,0.151-0.33,0.335-0.468,0.556
		c-0.151,0.183-0.363,0.541-0.634,1.061c-0.545,0.108-1.062,0.236-1.547,0.386C59.647,67.13,59.102,67.283,58.49,67.43z"/>
	<path fill="#FFFFFF" d="M78.484,66.32c-0.051-0.066-0.139-0.147-0.279-0.236c-0.137-0.087-0.284-0.186-0.443-0.287
		c-0.03-0.182-0.1-0.309-0.221-0.377c0.088-0.14,0.183-0.443,0.283-0.9c0.324-0.424,0.663-0.829,1.023-1.219
		c0.065-0.246,0.222-0.601,0.471-1.061c0.423-0.46,1.186-1.219,2.291-2.279c0.301-0.529,0.645-1.068,1.014-1.617
		c0.371-0.547,0.747-1.082,1.121-1.613c0.804-0.711,1.384-1.293,1.734-1.754c0.32-0.424,0.667-0.911,1.041-1.457
		c0.061-0.09,3.386-4.932,1.733-4.867c-2.689,0.105-5.347,4.088-8.052,2.387c3.285-1.92,6.483-4.287,9.854-5.975
		c0.196-0.105,0.401-0.232,0.629-0.37c0.225-0.141,0.46-0.319,0.713-0.532c0.603-0.176,1.137-0.322,1.577-0.426
		c0.049-0.104,0.121-0.191,0.218-0.265c0.174,0,0.355,0.036,0.552,0.11c0.044,0.285,0.108,0.51,0.211,0.687
		c0.28,0,0.65,0.088,1.101,0.265c-0.035,0.883-0.114,1.497-0.238,1.857c-0.205,0.461-0.693,1.307-1.448,2.543l0.579,0.313
		c0.598-0.455,1.361-1.004,2.28-1.641c0.994-0.423,2.585-1.091,4.771-2.012c0.531,0,0.98,0.055,1.35,0.155
		c0.121,0.106,0.243,0.194,0.355,0.269c0.11,0,0.231,0,0.373,0c0.141,0,0.283,0,0.427,0c0.058,0.355,0.142,0.672,0.256,0.951
		c-0.241,0.709-0.42,1.273-0.526,1.701l-1.022,1.223c0.028,0.175,0.015,0.346-0.025,0.524c-0.151,0.179-0.301,0.319-0.463,0.427
		c-0.241,0.701-0.466,1.289-0.678,1.746c-0.354,0-0.748,0.091-1.175,0.27c-0.527,0-0.982-0.054-1.349-0.162
		c-0.125-0.107-0.374-0.231-0.744-0.367c-0.09-0.566-0.112-1.026-0.064-1.383c0.037-0.211,0.168-0.509,0.389-0.9
		c-0.179,0-0.362-0.055-0.555-0.154c-1.037,0.564-1.607,0.882-1.706,0.951c-0.885,0.639-2.207,1.66-3.959,3.073
		c-0.861,0.815-2.212,2.103-4.052,3.869c-1.316,1.485-2.313,2.559-2.987,3.235c-0.567,0.849-1.102,1.693-1.608,2.544
		c-0.118,0.144-0.265,0.283-0.438,0.425c-0.172,0.146-0.328,0.318-0.468,0.529c-0.153,0.176-0.365,0.517-0.628,1.012
		c-0.555,0.102-1.074,0.225-1.567,0.367C79.646,66.038,79.091,66.181,78.484,66.32z"/>
	<path fill="#FFFFFF" d="M100.123,65.474c-0.562,0-0.981-0.07-1.244-0.213c-0.094-0.21-0.174-0.466-0.257-0.767
		c-0.081-0.302-0.211-0.608-0.396-0.93c0.269-0.638,0.537-1.271,0.801-1.904c0.27-0.64,0.591-1.29,0.968-1.968
		c0.243-0.312,0.487-0.675,0.756-1.085c0.263-0.403,0.58-0.822,0.932-1.246c0.259-0.53,0.518-1.06,0.776-1.587
		c0.253-0.533,0.516-1.059,0.774-1.596c0.488-1.01,1.623-2.047,2.319-2.948c0.83-1.074,3.108-2.485,1.24-3.041
		c-1.037-0.311-3.563,0.864-4.502,1.389c0.195-0.106,0.651-1.401,1.002-1.722c0.523-0.478,1.657-0.528,2.243-0.862
		c2.259-1.308,4.799-3.267,7.42-3.635c0.636-0.088,0.935-0.045,1.162,0.707c0.537,1.78-1.331,2.123-2.106,3.426
		c-0.379,0.639-0.472,1.261-0.947,1.88c-0.687,0.895-1.521,1.643-2.084,2.633c-0.619,1.099-1.24,2.174-1.869,3.236
		c-0.619,1.061-1.248,2.12-1.868,3.183c-0.098,1.122-0.241,1.985-0.433,2.587c-0.065,0.204,2.952-0.959,3.266-1.097
		c1.68-0.745,3.661-1.256,5.088-2.501c0.115,1.271-1.245,2.635-2.163,3.406c-0.278,0.234-3.157,1.791-3.166,1.895
		c-0.013,0.146-0.168,0.358-0.474,0.64c-1.752,0.563-3.073,0.993-3.983,1.271c-0.116,0.105-0.273,0.223-0.482,0.345
		c-0.203,0.121-0.421,0.291-0.649,0.504c-0.325,0-0.641,0-0.979,0S100.548,65.474,100.123,65.474z M122.784,32.287
		c-0.127-0.143-0.309-0.493-0.537-1.059c0.071-0.851,0.058-1.557-0.029-2.124c0.062-0.707,0.18-1.271,0.362-1.696
		c0.462-0.531,0.956-1.109,1.475-1.746c0.514-0.64,1.068-1.275,1.654-1.909c0.584-0.28,1.102-0.496,1.536-0.643
		c0.267,0.146,0.816,0.362,1.635,0.643c-0.037,0.424,0.006,0.777,0.122,1.06c-1.026,2.438-1.904,4.434-2.642,5.985
		c-0.113,0.11-0.245,0.261-0.386,0.451c-0.142,0.198-0.323,0.404-0.558,0.618C124.889,31.867,124.008,32,122.784,32.287z"/>
	<path fill="#FFFFFF" d="M88.942,126.986c-0.032-0.002-0.286-0.135-0.749-0.404c-0.067-0.004-0.193-0.016-0.371-0.022
		c-0.17-0.009-0.369-0.02-0.578-0.028c-0.02-0.18-0.071-0.323-0.166-0.435c0.378-0.763,0.641-1.329,0.798-1.711
		c0.249-0.304,0.501-0.637,0.751-0.999c0.26-0.359,0.552-0.723,0.882-1.1c0.274-0.514,0.542-1.047,0.802-1.603
		c0.266-0.553,0.539-1.107,0.815-1.659c0.475-0.715,0.948-1.418,1.425-2.098c0.471-0.688,0.952-1.392,1.422-2.115
		c1.658-3.165,3.024-5.673,4.098-7.484c0.18-0.029,0.311-0.092,0.395-0.195c0.284-0.589,0.565-1.172,0.849-1.763
		c0.283-0.589,0.603-1.151,0.954-1.704c0.036-0.036,0.438-0.543,1.192-1.53c0.271-0.521,0.542-1.019,0.791-1.501
		c0.255-0.488,0.501-1.012,0.756-1.608c0.739-1.102,1.286-1.848,1.657-2.253c0.528-0.893,1.037-1.812,1.527-2.764
		c0.485-0.947,1.048-1.885,1.689-2.807c0.121-0.105,0.249-0.237,0.372-0.412c0.131-0.171,0.306-0.35,0.544-0.552
		c0.509-0.963,1.023-1.944,1.554-2.924c0.521-0.977,1.098-1.988,1.715-3.021c0.817-1.157,1.636-2.317,2.47-3.457
		c0.824-1.146,1.663-2.275,2.505-3.404c0.292-0.622,0.565-1.222,0.831-1.793c0.263-0.565,0.534-1.129,0.817-1.682
		c1.136-1.537,2.373-3.115,3.706-4.753c0.3-0.698,0.587-1.379,0.86-2.049c0.281-0.685,0.614-1.348,1.016-1.999
		c0.246-0.271,0.481-0.547,0.71-0.841c0.23-0.29,0.531-0.632,0.898-1.041c0.142-1.161,0.925-1.422,1.113-2.097
		c-0.837,0.424-1.685,0.875-2.535,1.351c-0.842,0.474-1.706,0.946-2.583,1.409c-0.831,0.174-2.1,0.511-3.831,1.007
		c-0.221,0.105-0.44,0.209-0.659,0.315c-0.222,0.105-0.476,0.251-0.771,0.427c-0.919,0-1.644,0.067-2.188,0.21
		c-0.417-0.102-0.848-0.204-1.301-0.289c-0.457-0.088-0.92-0.242-1.404-0.454c-0.096-0.104-0.229-0.209-0.397-0.32
		c-0.174-0.104-0.332-0.261-0.496-0.472c-0.096-0.107-0.271-0.445-0.519-1.009c0.056-0.776,0.051-1.433-0.018-1.96
		c0.24-0.39,0.465-0.824,0.676-1.299c0.206-0.479,0.494-0.961,0.837-1.459c1.69-1.835,2.974-3.284,3.853-4.35
		c0.248,0,0.452-0.07,0.606-0.213c0.191-0.277,0.443-0.569,0.749-0.875c0.302-0.297,0.628-0.662,0.975-1.084
		c1.226-0.88,2.511-1.776,3.841-2.676c1.337-0.899,2.674-1.851,4.014-2.84c0.98-0.391,1.984-0.779,3.025-1.162
		c1.029-0.39,2.056-0.797,3.078-1.225c1.301,0,2.291,0.07,2.946,0.215c0.068,0.105,0.177,0.213,0.353,0.315
		c0.171,0.108,0.35,0.268,0.542,0.479c1.311,0,2.299,0.055,2.962,0.157c0.474,0.251,0.845,0.516,1.11,0.8
		c-0.097,1.345-0.184,2.412-0.379,3.179c-0.601,0.818-0.918,1.263-0.959,1.329c-0.273,0.488-0.541,1.014-0.804,1.582
		c-0.265,0.575-0.533,1.134-0.813,1.685c-0.655,0.71-0.946,1.029-0.863,0.967c-0.268,0.478-0.54,1.009-0.805,1.577
		c-0.261,0.575-0.533,1.135-0.815,1.687c-2.618,4.116-5.369,8.381-8.243,12.805c-0.152,0.104-0.39,0.284-0.705,0.55
		c-2.115,3.432-4.264,6.907-6.442,10.431c-2.178,3.514-4.372,7.057-6.57,10.629c-0.73,1.025-1.457,2.071-2.193,3.129
		c-0.73,1.062-1.492,2.122-2.291,3.178c-0.272,0.483-0.547,1.001-0.803,1.553c-0.264,0.555-0.531,1.122-0.816,1.711
		c-0.528,0.857-1.061,1.718-1.592,2.604c-0.529,0.872-1.122,1.802-1.771,2.8c-0.078,0.633-0.208,1.142-0.4,1.521
		c-1.312,2.06-2.274,3.602-2.896,4.627c-1.267,2.561-2.399,4.734-3.394,6.523c-0.721,1.276-1.849,3-3.391,5.191
		c-1.755,0.726-3.017,1.313-3.775,1.771C89.098,127.169,89.033,127.094,88.942,126.986z M117.902,61.603c0.176,0,0.354,0,0.529,0
		c0.173,0,0.316,0,0.428,0c1.011,0,2.652-1.158,3.556-1.586c0.854-0.411,1.721,0.506,1.492-0.879c-0.1-0.613-0.715-0.503-0.312-1.16
		c0.267-0.439,1.184-0.896,1.612-1.22c1.074-0.801,2.546-1.296,3.405-2.349c0.392-0.487,2.243-2.838,2.568-3.375
		c0.852-1.404,1.39-2.146,1.501-3.853c-0.399,0.146-0.864,0.21-1.387,0.21c-1.132,0.501-2.263,0.996-3.396,1.484
		c-1.127,0.498-2.236,0.977-3.328,1.436c-0.513,0.775-0.935,1.305-1.273,1.592c-0.153,0.143-0.349,0.211-0.599,0.211l-0.656,1.006
		c-0.147,0.105-0.345,0.158-0.589,0.158c-0.009,0.109-0.02,0.25-0.03,0.422c-0.558,0.429-1.101,0.827-1.619,1.201
		c-0.524,0.367-1.025,0.747-1.513,1.137c-0.354,0.53-0.683,1-1,1.404c-0.307,0.407-0.566,0.8-0.772,1.193
		c0.08,0.421,0.149,0.822,0.212,1.196c0.063,0.369,0.132,0.747,0.213,1.135C117.417,61.215,117.739,61.428,117.902,61.603z"/>
	<path fill="#FFFFFF" d="M152.495,65.958c-0.889-0.297-0.924-4.749-0.932-5.582c-0.674,0.771-1.769,0.517-2.351,1.07
		c-0.105,0.104-0.201,0.199-0.291,0.291c-0.091,0.088-0.222,0.217-0.396,0.397c-0.529,0.21-1.048,0.395-1.563,0.556
		c-0.516,0.163-1.034,0.322-1.563,0.504c-0.353,0.174-0.708,0.354-1.062,0.529c-0.354,0.177-0.688,0.338-1.005,0.479
		c-0.247,0-1.185,0.127-2.81,0.37c-0.527,0.105-1.06,0.24-1.585,0.396c-0.532,0.158-1.08,0.31-1.646,0.449
		c-0.565-0.246-0.968-0.406-1.216-0.474c0.176-0.53,0.352-1.06,0.531-1.592c0.175-0.532,0.347-1.114,0.527-1.751
		c1.06-1.519,2.541-3.428,4.449-5.722c0.672-0.674,1.359-1.362,2.064-2.072c0.896-0.897,2.673-2.095,2.624-3.515
		c-1.33,0.093-2.67,0.57-3.973,0.859c-1.524,0.339-5.893,3.573-7.383,4.033c-1.178,0.363-1.319,0.012-2.591-0.1
		c-2.284-0.2,0.882-1.907,1.613-2.236c1.6-0.719,10.657-4.98,12.676-5.959c1.203-0.584,2.419-1.187,3.659-1.828
		c0.599,0,1.46-0.105,2.595-0.321c0.033,0.073,0.338,0.252,0.899,0.533c0,0.354,0,0.708,0,1.063c0,0.35,0,0.684,0,1.002
		c-0.25,0-0.426,0.051-0.526,0.157c-0.357,0.678-0.709,1.435-1.062,2.282c-0.638,0.711-1.29,1.406-1.962,2.096
		c-0.673,0.691-1.341,1.389-2.012,2.091c-0.07,0.079-0.37,0.249-0.9,0.534c0,0.215-0.055,0.44-0.162,0.688
		c-0.456,0.281-0.972,0.741-1.538,1.38c0,0.247-0.067,0.43-0.208,0.53c-0.106,0.103-0.236,0.201-0.402,0.287
		c-0.151,0.088-0.306,0.222-0.446,0.399c-0.708,0.917-1.234,1.68-1.587,2.28c0,0.145,0.122,0.421,0.369,0.849
		c0.243-0.067,0.51-0.15,0.795-0.236c0.282-0.09,0.602-0.191,0.956-0.291c0.071-0.073,0.185-0.154,0.339-0.243
		c0.16-0.087,0.328-0.234,0.506-0.451c0.743-0.21,2.014-0.673,3.816-1.377c0.418-0.311,0.85-0.645,1.302-0.992
		c2.229-1.71,4.749-3.077,6.799-5.02c1.085-1.031,2.96-5.293,4.083-5.773c0.319-0.138,0.663-0.334,1.035-0.584
		c0.365-0.244,0.779-0.51,1.244-0.793c0.919,0,1.604-0.054,2.063-0.159c0.141,0.146,0.369,0.313,0.689,0.529
		c0,0.209,0.056,0.388,0.162,0.53c-0.541,1.547-0.638,3.201-1.66,4.498c-1.513,1.914-2.528,4.161-4.021,6.087
		c-1.147,1.478-3.447,2.966-3.163,5.116c0.133,1.007,5.785-3.261,6.106-3.537c2.161-1.871,3.837-2.775,6.63-2.705
		c-0.847,2.976-2.969,2.96-5.069,4.588c-1.146,0.884-2.261,1.877-3.494,2.629c-0.162,0.101-2.962,1.901-2.667,1.992
		c-0.344-0.104-1.354,0.371-1.354,0.371s-2.57,1.898-4.089,2.263C153.19,67.632,153.042,66.14,152.495,65.958z"/>
	<path fill="#FFFFFF" d="M171.318,68.39c-1.479-0.4-2.634-0.771-3.441-1.104c-0.958-0.373-1.749-0.724-2.384-1.063
		c-0.21-0.199-0.371-0.379-0.479-0.545c-0.033-0.406-0.302-1.542-0.793-3.426c0.103-0.436,0.197-0.888,0.263-1.363
		c0.072-0.463,0.143-0.932,0.211-1.401c0.779-1.309,1.467-2.397,2.066-3.268c0.147-0.134,0.301-0.289,0.477-0.454
		c0.178-0.169,0.39-0.372,0.639-0.604c0.279-0.402,0.616-0.977,1.002-1.709c0.961-1.011,1.954-2.015,2.997-3.022
		c1.044-1.004,2.091-2.061,3.15-3.17c0.813-0.396,1.964-1.122,3.445-2.165c0.391-0.128,0.782-0.302,1.188-0.521
		c0.408-0.219,0.88-0.445,1.405-0.684c0.64-0.196,1.184-0.351,1.644-0.456c0.843,0,1.484-0.047,1.908-0.151
		c0.563,0.242,1.171,0.479,1.828,0.711c0.653,0.237,1.298,0.506,1.938,0.806c0.064,0.128,0.227,0.552,0.475,1.256
		c0,0.672,0.117,1.442,0.37,2.314c-0.289,0.538-0.553,1.107-0.797,1.712c-0.245,0.6-0.53,1.206-0.85,1.806
		c-1.384,1.096-2.898,2.413-4.509,3.187c-1.526,0.734-9.923,2.39-12.358,2.365c-0.912,0.799-1.424,3.303-0.928,4.492
		c0.709,1.693,3.096,1.911,4.606,2.639c2.188,0,3.813,0.049,4.872,0.146c1.204-0.199,2.409-0.419,3.627-0.648
		c1.223-0.242,2.447-0.476,3.688-0.71c0.174,0,0.343,0,0.503,0c0.155,0,0.328,0,0.499,0c0,0.101,0,0.191,0,0.276s0,0.191,0,0.33
		c-1.054,0.572-1.868,1.092-2.438,1.559c-1.305,0.269-2.065,0.455-2.272,0.553c-0.784,0-1.378,0.053-1.806,0.146
		c-0.92,0.307-1.855,0.642-2.808,1.011c-0.952,0.372-1.906,0.757-2.861,1.157c-0.877,0-1.533-0.047-1.959-0.149
		C172.557,68.241,171.848,68.291,171.318,68.39z M177.697,54.058c1.213-0.149,2.407-0.344,3.533-0.605
		c1.406-0.871,2.321-1.492,2.752-1.863c0.249-0.567,0.635-1.594,1.161-3.07c-0.208-1.004-0.314-1.723-0.314-2.158
		c-1.134-0.202-1.89-0.306-2.276-0.306c-0.466,0.104-1.06,0.15-1.803,0.15c-0.21,0.2-0.315,0.352-0.315,0.456
		c-0.353,0.163-0.694,0.314-1.011,0.449c-0.318,0.135-0.579,0.252-0.796,0.354c-0.171,0.17-0.308,0.317-0.394,0.452
		c-0.091,0.133-0.168,0.232-0.24,0.303c-0.178,0.1-0.352,0.185-0.527,0.247c-1.458,0.573-2.383,2.471-3.021,3.757
		c-0.362,0.729-1.102,1.471-1.312,2.189C174.604,54.347,176.164,54.244,177.697,54.058z"/>
	<path fill="#FFFFFF" d="M107.637,139c-0.685-0.185-1.338-0.357-1.965-0.514c0-0.092,0-0.216,0-0.369c0-0.159,0-0.329,0-0.513
		c0.839-1.157,1.665-2.331,2.48-3.515c0.807-1.176,1.645-2.389,2.521-3.601c1.056-1.868,2.137-3.745,3.223-5.612
		c1.092-1.869,2.199-3.785,3.322-5.752l0.892-0.885c0-0.095,0.117-0.391,0.371-0.891c0.063,0,0.232-0.109,0.512-0.332
		c0.372-0.562,0.748-1.111,1.122-1.656c0.373-0.545,0.765-1.131,1.17-1.756c0-0.213,0.122-0.796,0.373-1.732
		c0.469-0.65,0.916-1.289,1.356-1.912c0.438-0.623,0.872-1.294,1.308-2.011c0.372-0.811,0.772-1.621,1.189-2.436
		c0.426-0.812,0.848-1.653,1.286-2.528c0.374-0.559,0.751-1.141,1.116-1.75c0.376-0.607,0.77-1.207,1.171-1.795
		c0.346-0.759,0.693-1.502,1.053-2.249c0.359-0.751,0.77-1.53,1.242-2.341c0.344-0.589,0.727-1.209,1.145-1.848
		c0.421-0.637,0.862-1.313,1.331-2.036c0.937-1.184,1.655-2.069,2.147-2.665c0-0.343,0.114-0.933,0.328-1.778
		c-0.032-0.155-0.095-0.281-0.189-0.37c-0.122,0-0.228,0-0.322,0c0,0.126-0.127,0.309-0.372,0.559
		c-0.278,0.191-0.584,0.373-0.911,0.563c-0.334,0.187-0.681,0.405-1.055,0.651c-0.379,0.375-0.736,0.77-1.097,1.199
		c-0.362,0.423-0.756,0.842-1.191,1.283c0,0.091,0,0.197,0,0.306c0,0.105,0,0.237,0,0.394c0.28-0.156,0.55-0.322,0.818-0.486
		c0.26-0.174,0.58-0.354,0.958-0.537c0.03,0.148,0.092,0.266,0.184,0.324c-0.436,0.216-0.793,0.451-1.074,0.699
		c-0.281,0.561-0.514,0.926-0.699,1.076c-0.44,0.247-1.204,0.607-2.295,1.077c-1.87,0.247-3.283,0.481-4.247,0.704
		c0-0.16-0.108-0.457-0.331-0.89c0.098-0.155,0.188-0.361,0.281-0.606c0.098-0.257,0.233-0.517,0.424-0.801
		c0.251-0.245,0.484-0.434,0.7-0.561c0.221-0.372,0.403-0.777,0.562-1.211c0.813-0.719,1.631-1.469,2.476-2.247
		c0.839-0.781,1.708-1.577,2.616-2.384c0.246-0.102,0.503-0.183,0.771-0.265c0.262-0.075,0.53-0.156,0.816-0.253
		c0-0.25,0.066-0.485,0.188-0.701c0.252-0.188,0.536-0.376,0.861-0.563c0.334-0.185,0.683-0.42,1.059-0.7
		c0.559-0.779,0.976-1.312,1.263-1.589c0.249-0.188,0.515-0.377,0.793-0.557c0.282-0.193,0.606-0.427,0.978-0.707
		c0.341,0,0.64-0.053,0.894-0.142c0.341-0.378,0.716-0.741,1.144-1.106c0.419-0.352,0.859-0.762,1.33-1.23
		c1.247-0.37,2.307-0.781,3.176-1.217c0.374,0.093,0.91,0.391,1.588,0.888c0,0.251,0.126,0.714,0.376,1.403
		c-0.307,0.596-0.481,0.951-0.512,1.073l0.886,0.331c1.96-0.438,3.487-0.84,4.576-1.21c1.435-0.254,2.56-0.442,3.366-0.572
		c1.56,0,2.746-0.042,3.558-0.136c0.959,0,1.675,0.046,2.146,0.136c1.437,0.5,2.494,0.925,3.179,1.263
		c0,0.248,0.066,0.427,0.19,0.52l0.884,0.887c0,1.187,0.062,2.076,0.187,2.666c0,0.719-0.061,1.309-0.187,1.781
		c-0.377,0.65-0.771,1.32-1.19,2.009c-0.423,0.684-0.852,1.384-1.286,2.101c-0.906,0.814-1.839,1.627-2.805,2.434
		c-0.968,0.813-1.915,1.658-2.85,2.523c-0.563,0.383-1.103,0.742-1.633,1.084c-0.537,0.342-1.067,0.682-1.592,1.023
		c-1.275,0.694-2.76,1.387-4.442,2.11c-1.335,0.15-2.931,0.447-4.769,0.89c-1.059,0-1.879,0.055-2.476,0.182
		c-0.591-0.127-1.604-0.308-3.035-0.56c-0.374-0.282-0.73-0.554-1.073-0.817c-0.338-0.266-0.706-0.51-1.078-0.725
		c-0.158-0.439-0.321-0.971-0.514-1.592c-1.246,1.995-2.494,4.008-3.739,6.053c-1.244,2.051-2.479,4.099-3.689,6.15
		c-0.097,0.253-0.179,0.507-0.258,0.775c-0.075,0.266-0.162,0.537-0.256,0.818c-0.158,0.185-0.323,0.396-0.515,0.636
		c-0.185,0.228-0.424,0.484-0.702,0.763c-1.524,2.564-3.131,5.352-4.814,8.372c-0.154,0.156-0.326,0.356-0.512,0.607
		c-0.188,0.248-0.42,0.514-0.701,0.803c-0.154,0.303-0.343,0.793-0.562,1.452c-0.683,1.306-1.389,2.633-2.102,3.991
		c-0.715,1.354-1.494,2.737-2.34,4.139c-0.688,1.068-1.377,2.168-2.074,3.298c-0.709,1.14-1.428,2.305-2.177,3.48
		c-0.495,0.377-0.796,0.615-0.883,0.705c-0.475,0.096-1.295,0.268-2.483,0.514c-0.031,0.156-0.094,0.278-0.184,0.38
		C108.119,138.866,107.882,138.91,107.637,139z M143.813,96.628c1.836-0.213,3.314-0.32,4.434-0.32
		c1.004-0.531,1.99-1.018,2.994-1.457c2.056-1.404,3.766-2.652,5.138-3.742c0.438-0.405,0.835-0.792,1.2-1.165
		c0.354-0.373,0.718-0.751,1.096-1.127c0.494-0.593,1.084-1.478,1.769-2.663c0.255-1.186,0.377-1.949,0.377-2.293
		c-0.251-0.748-0.377-1.275-0.377-1.595c-0.341-0.376-0.81-0.854-1.401-1.446c-0.928-0.093-2.238-0.266-3.925-0.517
		c-0.62,0.188-1.243,0.337-1.87,0.424c-2.727,0.409-4.921,1.73-7.46,2.657c-1.04,0.378-2.404,0.543-3.187,1.427
		c-0.29,0.331-1.094,3.096-0.795,2.98c4.911-1.929,10.465-3.62,15.741-4.733c0.909-0.191,17.852-1.795,15.817,0.838
		c-0.499,0.647-4.412,0.132-5.23,0.132c-3.57-0.001-7.002,0.563-10.504,1.246c-3.704,0.727-7.484,1.621-10.908,3.25
		c-0.826,0.393-8.854,5.647-5.749,7.218c0.184,0.095,0.354,0.189,0.521,0.279c0.173,0.094,0.354,0.187,0.537,0.287
		C143.122,96.52,143.715,96.628,143.813,96.628z"/>
	<path fill="#FFFFFF" d="M165.729,97.521c-0.47,0-0.875-0.051-1.215-0.146c-0.095-0.092-0.217-0.183-0.374-0.286
		c-0.157-0.084-0.314-0.222-0.469-0.41c-0.437-0.688-0.763-1.181-0.982-1.499c0-0.495,0.04-1.043,0.119-1.637
		c0.078-0.589,0.144-1.181,0.208-1.773c0.75-1.963,1.482-3.732,2.197-5.292c0.121-0.12,0.4-0.278,0.842-0.47
		c0.409-0.402,0.826-0.854,1.265-1.35c0.435-0.502,0.913-1.021,1.444-1.545c0.408-0.346,0.825-0.689,1.266-1.032
		c0.429-0.339,0.914-0.734,1.446-1.163c0.748-0.375,1.487-0.787,2.193-1.223c1.123-0.431,2.032-0.762,2.714-0.972
		c2.276,0,3.965-0.072,5.094-0.194c0.033,0,0.314,0.109,0.836,0.324c0.161,0,0.358,0,0.587,0c0.235,0,0.492,0,0.773,0
		c0.747,0.345,1.59,0.799,2.526,1.36c0.154,0.124,0.666,0.571,1.541,1.355c0.092,0.373,0.177,0.729,0.257,1.052
		c0.073,0.329,0.16,0.662,0.256,1.008c0,0.432-0.061,0.823-0.189,1.166c0.033,0.158,0.094,0.278,0.189,0.371
		c-0.342,0.688-0.729,1.358-1.162,2.013c-0.192,0.191-0.381,0.397-0.563,0.634c-0.194,0.23-0.409,0.475-0.66,0.727
		c-0.094,0.187-0.177,0.366-0.258,0.541c-0.074,0.174-0.16,0.328-0.252,0.491c-0.283,0.182-0.582,0.364-0.893,0.533
		c-0.304,0.175-0.637,0.381-0.978,0.633c-0.345,0.44-0.516,0.673-0.516,0.7c-0.842,0.498-1.726,1.046-2.641,1.64
		c-0.923,0.594-1.844,1.165-2.775,1.726c-0.973,0.315-2.147,0.774-3.557,1.357c-0.436,0.098-0.869,0.185-1.285,0.259
		c-0.42,0.083-0.834,0.168-1.238,0.26c-0.683,0.403-1.074,0.641-1.169,0.696C168.248,97.375,166.726,97.427,165.729,97.521z
		 M169.935,94.482c0.344-0.13,0.792-0.189,1.356-0.189c0.84-0.313,1.69-0.638,2.541-0.986c0.861-0.338,1.708-0.683,2.551-1.021
		c0.342-0.25,0.641-0.494,0.892-0.729c0.246-0.235,0.507-0.447,0.793-0.63c0.247-0.099,0.491-0.181,0.747-0.26
		c0.241-0.078,0.512-0.166,0.789-0.257c0.127-0.122,0.188-0.296,0.188-0.512c0.472-0.314,0.859-0.53,1.171-0.662
		c0.187-0.563,0.357-0.965,0.514-1.215c0.437-0.34,0.997-0.732,1.685-1.168c0.091-0.344,0.181-0.676,0.252-1.004
		c0.083-0.329,0.173-0.684,0.26-1.055c-0.402-0.654-0.796-1.382-1.167-2.198c-0.438-0.212-0.734-0.33-0.887-0.33
		c-0.752-0.089-1.475-0.177-2.178-0.253c-0.699-0.071-1.374-0.163-2.034-0.256c-0.245,0.249-0.589,0.466-1.024,0.65
		c-0.281,0.689-0.626,1.443-1.026,2.25c-0.564,0.092-1.357,0.137-2.383,0.137c-0.528-0.212-0.863-0.328-0.982-0.328
		c-0.472,0.191-0.873,0.361-1.214,0.518c-0.53,0.965-1.027,1.76-1.501,2.386c-0.246,0.373-0.647,1.212-1.212,2.528
		c-0.221,1.62-0.328,2.519-0.328,2.71c0.159,0.278,0.283,0.538,0.398,0.775c0.105,0.23,0.211,0.423,0.303,0.583
		c0.22,0.096,0.452,0.18,0.705,0.258C169.388,94.303,169.647,94.382,169.935,94.482z M184.844,90.41c0.152,0,0.278,0,0.373,0
		C185.06,90.41,184.936,90.41,184.844,90.41z"/>
	<path fill="#FFFFFF" d="M188.398,97.47c-0.503,0-0.874-0.06-1.124-0.188c-0.092-0.194-0.184-0.407-0.286-0.674
		c-0.09-0.265-0.229-0.537-0.417-0.818c0.188-0.564,0.376-1.125,0.563-1.684c0.188-0.564,0.421-1.139,0.698-1.732
		c0.188-0.28,0.382-0.6,0.582-0.962c0.205-0.357,0.445-0.725,0.729-1.096c0.185-0.468,0.372-0.94,0.56-1.406
		c0.19-0.466,0.372-0.933,0.563-1.396c0.365-0.517,3.607-5.676,3.527-5.662c-1.177,0.221-5.32,2.46-6.574,1.22
		c-0.716-0.709,0.213-0.705,0.594-0.915c1.289-0.717,2.765-0.896,4.158-1.865c1.415-0.98,4.111-4.055,6.208-3.32
		c1.992,0.696,0.254,3.99-0.347,5.066c-0.402,0.558-0.828,1.126-1.282,1.701c-0.454,0.58-0.911,1.2-1.38,1.855
		c-0.467,0.965-0.93,1.92-1.403,2.85c-0.463,0.932-0.935,1.872-1.4,2.808c0,0.991-0.64,1.517-0.642,2.063
		c0.246-0.061,0.82-0.318,1.736-0.79l1.056-1.247c0.185-0.045,0.401-0.094,0.666-0.155c0.254-0.061,0.512-0.117,0.791-0.182
		c0.022,0.093,0.222,0.323,0.585,0.674c-0.441,1.008-0.748,1.652-0.938,1.951c-0.123,0.028-0.399,0.222-0.831,0.58
		c0.024,0.115-0.047,0.327-0.238,0.625c-1.347,0.825-2.374,1.44-3.073,1.859c-0.072,0.108-0.182,0.241-0.323,0.382
		c-0.141,0.15-0.707,0.27-0.89,0.457c-0.279,0-0.572,0-0.865,0C189.105,97.47,188.762,97.47,188.398,97.47z M205.818,68.195
		c-0.117-0.131-0.303-0.441-0.556-0.938c0-0.754-0.063-1.372-0.183-1.878c0-0.616,0.063-1.117,0.183-1.49
		c0.373-0.472,0.767-0.985,1.173-1.546c0.4-0.56,0.838-1.121,1.31-1.681c0.491-0.25,0.933-0.438,1.309-0.561
		c0.243,0.122,0.741,0.311,1.495,0.561c0,0.371,0.063,0.686,0.185,0.931c-0.716,2.151-1.341,3.92-1.871,5.29
		c-0.091,0.094-0.193,0.229-0.302,0.396c-0.108,0.176-0.26,0.353-0.444,0.535C207.645,67.813,206.883,67.938,205.818,68.195z"/>
	<path fill="#FFFFFF" d="M217.627,95.367c-0.84,0.11-1.688,0.182-1.852,0.141c-1.91-0.518-1.021-2.401-0.698-3.881
		c0.903-2.148,1.109-2.447,2.012-4.541c0.31-0.463,0.634-0.875,0.982-1.216c0.061-0.25,0.279-0.838,0.655-1.778
		c-0.127,0-0.222-0.043-0.281-0.133c-0.279,0.153-0.563,0.297-0.843,0.441c-0.281,0.137-0.575,0.306-0.888,0.49
		c-0.184,0.183-0.328,0.377-0.418,0.557c-1.778,1.312-3.555,2.607-5.331,3.887c-1.775,1.28-3.572,2.573-5.371,3.886
		c-0.747,0.624-1.531,1.269-2.339,1.938c-0.813,0.67-1.619,1.331-2.432,1.991c-0.688,0.118-1.482,0.321-2.381,0.6
		c-0.122,0-0.289,0-0.496,0c-0.202,0-0.388,0-0.579,0c-0.185-0.307-0.325-0.557-0.418-0.744c0.093-0.094,0.233-0.326,0.418-0.696
		c-0.03,0.061,0.191-0.119,0.655-0.518c0.279,0,0.498-0.052,0.652-0.146c0.22-0.562,0.531-1.104,0.934-1.639
		c0.121-0.124,0.28-0.281,0.465-0.464c1.139-1.116,2.007-2.414,2.78-3.79c0.786-1.407,1.966-2.61,2.688-4.046
		c0.521-1.034,0.86-3.324,1.909-3.892c-3.123-0.391,0.725-4.61,2.527-1.837c0.737,1.133,0.769,3.639,0.215,4.875
		c0.017,0.019,0.108-0.069,0.108-0.077c-0.197,0.283-0.419,0.551-0.642,0.819c0,0.274-0.049,0.509-0.141,0.7
		c-0.344,0.279-0.625,0.593-0.842,0.934c0,0.19,0.043,0.325,0.143,0.422c0.403-0.347,0.84-0.682,1.304-1.007
		c0.469-0.323,0.938-0.68,1.403-1.049c0.748-0.381,1.291-0.643,1.638-0.801c0.654-0.654,1.103-1.078,1.354-1.266
		c0.284,0,0.508-0.031,0.7-0.092c0.12-0.121,0.249-0.309,0.378-0.56c1.769-0.778,3.003-1.371,3.688-1.778
		c0.81-0.623,1.484-1.166,2.013-1.639c0.371,0,0.65-0.047,0.84-0.134l0.516-0.517c0.092-0.027,0.539-0.266,1.357-0.701
		c0.183,0,0.372,0.042,0.557,0.137c0,0.195-0.045,0.329-0.141,0.424c0,0.124,0.045,0.215,0.141,0.275
		c0.257,0,0.657,0.096,1.215,0.278c-0.191,0.317-0.454,0.893-0.795,1.737c-0.618,0.93-1.258,1.837-1.918,2.712
		c-0.371,0.814-1.011,2.091-1.916,3.843c-0.806,1.893-0.917,2.056-1.727,4.113c0,1.038-0.379,2.354,0.021,3.332
		C219.491,95.072,218.563,95.246,217.627,95.367z"/>
	<path fill="#FFFFFF" d="M230.857,97.714c-0.066,0-0.206-0.074-0.422-0.232c-0.874,0-1.543-0.046-2.011-0.142
		c-0.376-0.183-1.024-0.561-1.961-1.12c0,0.061-0.191-0.42-0.567-1.451c0.227-1.093,0.409-1.834,0.567-2.245
		c0.777-1.245,1.479-2.429,2.103-3.548c0.188-0.197,0.375-0.338,0.56-0.428c0.279-0.342,0.567-0.722,0.867-1.122
		c0.727-0.978,2.341-2.401,2.483-3.64c-1.019-0.012-2.112,0.116-3.111-0.081c-0.066-1.053-2.97-0.956-1.098-2.206
		c2.174-0.694,6.096-1.895,8.244-2.636c0.746-1.118,1.373-2.012,1.871-2.666c0.559-0.372,1.025-0.697,1.4-0.975
		c0.465-0.781,0.744-1.267,0.84-1.454c0.871-0.65,1.541-1.171,2.01-1.544c2.558-2.77,4.816-5.286,6.777-7.53
		c1.617-1.965,3.276-3.955,4.976-5.965c1.7-2.013,3.401-4.044,5.115-6.104c0.092-0.188,0.233-0.565,0.419-1.123
		c0.125-0.117,0.291-0.272,0.493-0.444c0.204-0.173,0.413-0.367,0.632-0.587c0.376-0.745,0.676-1.303,0.893-1.682
		c0.649,0,1.634-0.092,2.941-0.275c0,0.094,0.094,0.234,0.275,0.418c0.068,0,0.16,0,0.287,0c0.118,0,0.26,0,0.41,0
		c0,0.185,0.051,0.328,0.148,0.421c0,0.188-0.051,0.373-0.148,0.56c-0.15,0.156-0.329,0.312-0.529,0.473
		c-0.203,0.154-0.395,0.322-0.584,0.514c0,0.218-0.049,0.367-0.139,0.466c-0.466,0.372-1.17,1.03-2.104,1.962
		c-1.026,1.213-2.034,2.457-3.018,3.721c-0.978,1.259-1.975,2.533-2.96,3.809c-0.782,0.782-1.575,1.57-2.368,2.362
		c-0.798,0.795-1.562,1.615-2.313,2.458c-1.275,1.625-2.6,3.18-3.973,4.679c-0.65,0.655-1.295,1.304-1.937,1.942
		c-0.639,0.639-1.268,1.27-1.896,1.89c0,0.192-0.044,0.345-0.139,0.471c-0.185,0-0.327,0.035-0.422,0.089
		c-0.182,0.314-0.466,0.753-0.839,1.314c-0.155,0.155-0.318,0.309-0.492,0.469c-0.17,0.152-0.349,0.321-0.538,0.519
		c-0.091,0.148-0.167,0.303-0.228,0.436c-0.07,0.142-0.131,0.27-0.19,0.405c0.369,0,0.654,0.039,0.84,0.135
		c0.995-0.12,2.014-0.292,3.061-0.489c1.044-0.199,2.114-0.413,3.198-0.635c0.189,0,0.472,0.094,0.842,0.284
		c0,0.188,0.044,0.324,0.142,0.424c-0.098,0.185-0.229,0.557-0.422,1.12c-0.215,0.182-0.461,0.36-0.724,0.509
		c-0.266,0.161-0.536,0.331-0.813,0.519c-1.096,0.313-2.135,0.597-3.135,0.844c-0.37,0.183-0.701,0.37-0.98,0.558
		c-0.373,0-0.715,0.051-1.028,0.139c-0.157,0-0.34-0.046-0.562-0.139c-1.119,0-1.962,0.051-2.524,0.139
		c-0.556,0.193-0.996,0.372-1.307,0.561c-1.403,1.904-3.099,4.182-5.098,6.83c-0.366,0.97-0.886,2.201-1.535,3.696
		c0.094,0.281,0.233,0.798,0.417,1.55l0.56,0.274c0.277,0,0.589,0,0.913,0c0.325,0,0.677,0,1.051,0
		c0.403-0.09,1.075-0.234,2.012-0.419c0.059-0.066,0.155-0.13,0.277-0.21c0.122-0.078,0.267-0.189,0.423-0.351
		c0.467-0.629,0.992-1.277,1.592-1.963c0.095,0,0.416-0.097,0.973-0.28l0.565,0.28c0.184,0.369,0.327,0.701,0.424,0.979
		c-0.375,0.436-0.735,0.869-1.081,1.284c-0.339,0.427-0.682,0.833-1.023,1.241c-0.623,0.44-1.063,0.775-1.313,1.031
		c-1.307,0.559-2.332,1.028-3.081,1.4C232.536,97.389,231.539,97.556,230.857,97.714z"/>
	<path fill="#FFFFFF" d="M36.506,46.735c-0.008-0.013-0.19-0.315-0.19-0.587c-0.682-0.391-1.741-0.872-3.176-1.439
		c-0.472-0.1-1.187-0.155-2.149-0.155c-0.811,0.107-1.997,0.155-3.557,0.155c-0.804,0.147-1.934,0.363-3.363,0.648
		c-1.09,0.421-2.618,0.883-4.577,1.378l-0.886-0.374l-2.784,5.186c0.724-0.402,1.574-0.598,2.283-0.892
		c2.536-1.055,4.731-2.552,7.459-3.019c0.628-0.101,1.249-0.268,1.868-0.481c1.192,0.202,2.186,0.354,3.001,0.468
		c-0.547,0.113-1.104,0.219-1.626,0.346c-5.279,1.266-10.832,3.186-15.742,5.375c-0.126,0.061-0.053-0.467,0.09-1.115L7.592,62.597
		c0.192,0.703,0.356,1.306,0.514,1.804c0.372,0.246,0.74,0.521,1.076,0.821c0.346,0.304,0.701,0.609,1.075,0.934
		c1.432,0.286,2.444,0.492,3.035,0.634c0.598-0.142,1.418-0.209,2.476-0.209c1.84-0.5,3.434-0.839,4.769-1.011
		c1.683-0.821,3.168-1.605,4.442-2.396c0.523-0.387,1.055-0.771,1.592-1.161c0.529-0.391,1.069-0.797,1.631-1.234
		c0.937-0.982,1.883-1.938,2.852-2.864c0.964-0.92,1.898-1.84,2.804-2.764c0.435-0.814,0.864-1.612,1.285-2.387
		c0.422-0.788,0.814-1.545,1.191-2.285c0.056-0.237,0.089-0.518,0.118-0.813c0.014-0.128,3.519-0.964,3.897-1.078
		c1.414-0.43,3.679-0.346,5.084-0.66c0.966-0.218,1.806-0.424,2.629-1.035c1.007-0.756-0.422-0.622-1.038-0.625
		C44.992,46.256,36.798,47.208,36.506,46.735z M29.936,54.513c-0.377,0.425-0.741,0.855-1.097,1.282
		c-0.365,0.42-0.763,0.864-1.199,1.319c-1.372,1.239-3.082,2.66-5.138,4.252c-1.004,0.503-1.99,1.053-2.994,1.655
		c-1.119,0-2.598,0.122-4.435,0.366c-0.095,0-0.689-0.126-1.781-0.366c-0.184-0.112-0.363-0.218-0.539-0.324
		c-0.167-0.099-0.338-0.208-0.521-0.314c-3.104-1.786,4.922-7.759,5.748-8.207c4.332-2.345,9.209-3.619,13.998-4.295
		c-0.063,0.429-0.154,0.958-0.274,1.604C31.02,52.831,30.431,53.84,29.936,54.513z"/>
	<path fill="#FFFFFF" d="M217.026,98.755c-0.996,0.293-1.925-1.303-2.245-2.064c-0.522-1.255-0.205-2.621,0.098-3.888
		c0.394-1.65,1.395-2.864,3.071-3.263c0.064,0.635-0.413,0.908-0.52,1.431c-0.119,0.579-0.003,1.317,0.048,1.901
		c0.246,2.911,4.831-0.393,5.793-1.08c2.797-1.986,13.982-8.42,16.811-9.6c2.209-0.925,5.691-3.656,8.191-3.442
		c0.286,1.264-3.597,2.785-4.431,3.144c-1.683,0.727-3.195,1.251-4.83,2.182c-3.693,2.108-7.524,4.051-10.768,6.84
		c-1.099,0.943-2.163,1.989-3.356,2.807c-0.155,0.107-2.86,2.05-2.561,2.128c-0.346-0.089-1.332,0.436-1.332,0.436
		S218.524,98.311,217.026,98.755z"/>
	<path fill="#FFFFFF" d="M198.651,90.974c-1.489,0.873-3.034,3.56-4.573,4.369c-0.58,0.305-2.1,0.469-2.016,1.322
		c-0.758,0.328-1.497,0.478-2.325,0.421c-0.299-1.396,0.324-1.807,1.495-2.129c0.466-0.135,0.862-0.274,1.3-0.503
		c0.615-0.313,0.386,0.119,0.604-0.527c0.185-0.55-0.475-0.475,0.314-1.198c1.149-1.056,9.542-8.481,10.418-9.205
		c0.941-0.774,2.091-1.26,3.017-2.054c0.325-0.281,0.81-1.265,1.253-1.376C209.713,81.171,199.717,90.355,198.651,90.974z"/>
	<path fill="#FFFFFF" d="M240.658,91.058c-1.136-0.273-2.063,0.154-2.76,1.076c-0.528,0.706-1.249,1.145-1.048,2.09
		c0.158,0.739,0.254,0.944,0.996,0.858c0.624-0.072,1.333-0.301,1.89-0.579c0.849-0.425,1.095-1.043,1.696-1.66
		c0.715-0.744,1.893-3.405,2.577-2.459C244.693,91.33,241.069,91.157,240.658,91.058z"/>
	<path fill="#FFFFFF" d="M250.91,87.047c-0.192-0.026-0.326,0.027-0.4,0.154l-0.051,0.074c-0.006,0.226,0.051,0.385,0.163,0.478
		c0.167,0.143,0.332,0.108,0.493-0.084c0.104-0.171,0.058-0.363-0.138-0.566L250.91,87.047z"/>
	<path fill="#FFFFFF" d="M259.926,79.805c-0.336-0.065-0.691,0.008-0.828,0.253c-0.149,0.276,0.103,0.884,0.357,1.066
		c0.365,0.261,0.482,0.157,0.817-0.188c0.176-0.185,0.324,0.029,0.373-0.424C260.683,80.14,260.316,79.878,259.926,79.805z"/>
	<path fill="#FFFFFF" d="M245.372,96.541c-0.154-0.139-0.299-0.171-0.452-0.084l-0.086,0.051c-0.151,0.223-0.201,0.412-0.166,0.579
		c0.057,0.238,0.218,0.311,0.478,0.205c0.205-0.11,0.281-0.327,0.241-0.651L245.372,96.541z"/>
	<path fill="#FFFFFF" d="M243.296,95.882c-0.139-0.013-0.236,0.02-0.298,0.104l-0.033,0.05c-0.011,0.142,0.027,0.243,0.107,0.302
		c0.12,0.086,0.243,0.064,0.361-0.063c0.084-0.113,0.052-0.229-0.088-0.359L243.296,95.882z"/>
</g>
</svg>
