<?xml version="1.0" encoding="utf-8"?>
<!-- Generator: Adobe Illustrator 16.0.0, SVG Export Plug-In . SVG Version: 6.00 Build 0)  -->
<!DOCTYPE svg PUBLIC "-//W3C//DTD SVG 1.1//EN" "http://www.w3.org/Graphics/SVG/1.1/DTD/svg11.dtd">
<svg version="1.1" id="Layer_1" xmlns="http://www.w3.org/2000/svg" xmlns:xlink="http://www.w3.org/1999/xlink" x="0px" y="0px"
	 width="270px" height="33.009px" viewBox="0 0 270 33.009" enable-background="new 0 0 270 33.009" xml:space="preserve">
<g>
	<path fill-rule="evenodd" clip-rule="evenodd" fill="#FFFFFF" d="M251.172,27.408c0.574,1.191,1.169,2.244,1.808,3.16
		c0.63,0.924,1.307,1.737,2.02,2.44h-10.834c0.401-0.417,0.712-0.824,0.903-1.229c0.201-0.406,0.292-0.832,0.292-1.258
		c0-0.36-0.036-0.739-0.118-1.136c-0.082-0.398-0.191-0.75-0.329-1.063l-1.26-2.515H222.99l-1.041,2.163
		c-0.137,0.341-0.255,0.722-0.348,1.127c-0.092,0.407-0.127,0.806-0.127,1.203c0,0.545,0.1,1.045,0.301,1.506
		c0.209,0.452,0.503,0.86,0.895,1.202h-10.888c0.73-0.739,1.398-1.544,2.009-2.422c0.604-0.879,1.216-1.942,1.818-3.179
		l12.442-24.969c0.164-0.36,0.273-0.647,0.337-0.84c0.063-0.204,0.092-0.379,0.092-0.547c0-0.101-0.037-0.259-0.108-0.443
		c-0.074-0.194-0.156-0.388-0.267-0.583L239.187,0c-0.146,0.285-0.247,0.518-0.31,0.692c-0.066,0.167-0.094,0.305-0.094,0.416
		c0,0.148,0.038,0.324,0.103,0.546c0.071,0.212,0.172,0.452,0.301,0.701L251.172,27.408L251.172,27.408z M225.246,20.854h16.287
		l-8.339-16.843L225.246,20.854L225.246,20.854z M8.349,4.334v22.74c0,1.59,0.201,2.846,0.604,3.771
		c0.401,0.915,1.05,1.636,1.964,2.163H0c0.914-0.527,1.57-1.248,1.982-2.163c0.411-0.926,0.611-2.182,0.611-3.771V5.952
		c0-1.618-0.2-2.894-0.611-3.818C1.57,1.22,0.914,0.508,0,0h13.428c-0.101,0.212-0.183,0.406-0.237,0.572
		c-0.055,0.157-0.083,0.323-0.083,0.48c0,0.148,0.028,0.315,0.083,0.519c0.055,0.194,0.137,0.433,0.237,0.702l9.929,24.754
		l10.14-24.809c0.092-0.25,0.155-0.463,0.201-0.639c0.046-0.165,0.073-0.305,0.073-0.415c0-0.129-0.027-0.277-0.082-0.462
		C33.634,0.526,33.533,0.285,33.396,0h13.703c-0.905,0.508-1.571,1.22-1.983,2.134c-0.41,0.925-0.611,2.201-0.611,3.818v21.122
		c0,1.57,0.183,2.782,0.539,3.632c0.356,0.852,0.959,1.62,1.817,2.303H35.908c0.858-0.683,1.461-1.451,1.817-2.294
		c0.356-0.831,0.539-2.051,0.539-3.641V4.898L27.02,30.893c-0.009,0.055-0.045,0.147-0.101,0.277
		c-0.146,0.379-0.219,0.656-0.219,0.841c0,0.102,0.027,0.239,0.082,0.415c0.056,0.176,0.137,0.369,0.237,0.583h-7.591
		c0.064-0.231,0.129-0.435,0.184-0.592c0.055-0.167,0.081-0.269,0.081-0.305c0-0.194-0.118-0.573-0.347-1.138
		c-0.019-0.056-0.036-0.093-0.055-0.129L8.349,4.334L8.349,4.334z M53.063,31.373c0.822-0.458,1.415-1.1,1.785-1.934
		c0.371-0.823,0.551-1.931,0.551-3.313V6.881c0-1.365-0.188-2.465-0.567-3.306c-0.378-0.841-0.963-1.482-1.769-1.94h30.226
		c-0.14,0.507-0.238,0.874-0.287,1.099c-0.05,0.225-0.074,0.416-0.074,0.558c0,0.283,0.189,0.949,0.567,2.015
		c0.379,1.066,0.676,1.982,0.881,2.749c-1.268-0.75-2.766-1.291-4.485-1.633c-1.72-0.341-3.843-0.516-6.386-0.516H61.209v7.978
		h13.842c0.699,0,1.383-0.059,2.033-0.184c0.65-0.125,1.292-0.316,1.917-0.574l-2.024,3.463c-0.305,0.509-0.707,0.883-1.193,1.126
		c-0.493,0.24-1.078,0.364-1.77,0.364H61.209v9.045h12.706c2.478,0,4.725-0.25,6.74-0.757c2.017-0.508,3.638-1.225,4.855-2.15
		c-0.239,0.666-0.634,1.624-1.169,2.883c-0.543,1.248-0.807,2.089-0.807,2.515c0,0.242,0.017,0.507,0.058,0.807
		c0.042,0.292,0.099,0.608,0.182,0.95H53.063L53.063,31.373z M100.285,5.782l0.361,20.245c0.033,1.548,0.223,2.705,0.568,3.463
		c0.346,0.769,0.922,1.392,1.744,1.883h-9.974c0.84-0.477,1.433-1.114,1.794-1.924c0.362-0.816,0.543-1.957,0.543-3.422V6.998
		c0-1.458-0.181-2.599-0.543-3.423c-0.361-0.824-0.954-1.466-1.794-1.94l11.81,0.024c-0.083,0.15-0.141,0.275-0.182,0.392
		c-0.041,0.108-0.065,0.209-0.065,0.292c0,0.1,0.024,0.2,0.074,0.316c0.049,0.118,0.156,0.308,0.313,0.583l14.525,23.276
		l-0.099-19.521c0-1.44-0.182-2.59-0.552-3.439c-0.371-0.842-0.954-1.482-1.762-1.923h9.72c-0.791,0.474-1.35,1.041-1.68,1.707
		c-0.329,0.666-0.494,1.815-0.494,3.439v0.317v21.519c0,0.649,0.05,1.174,0.157,1.574c0.106,0.399,0.28,0.792,0.519,1.183h-9.571
		c0.1-0.167,0.173-0.316,0.231-0.467c0.057-0.141,0.082-0.274,0.082-0.391c0-0.076-0.033-0.192-0.1-0.343
		c-0.065-0.141-0.164-0.333-0.313-0.557L100.285,5.782L100.285,5.782z M167.571,26.328c0.518,1.073,1.053,2.021,1.629,2.846
		c0.567,0.834,1.178,1.566,1.818,2.199h-9.759c0.361-0.375,0.642-0.741,0.813-1.107c0.182-0.367,0.264-0.749,0.264-1.133
		c0-0.324-0.033-0.666-0.107-1.024c-0.073-0.357-0.173-0.674-0.295-0.957l-1.137-2.267h-18.614l-0.938,1.949
		c-0.123,0.308-0.23,0.65-0.313,1.016c-0.083,0.366-0.115,0.726-0.115,1.083c0,0.491,0.091,0.94,0.272,1.357
		c0.188,0.409,0.451,0.775,0.807,1.083h-9.811c0.658-0.667,1.259-1.391,1.812-2.183c0.541-0.791,1.094-1.748,1.638-2.862
		l11.208-22.494c0.147-0.326,0.247-0.584,0.304-0.758c0.057-0.184,0.082-0.342,0.082-0.492c0-0.092-0.033-0.233-0.099-0.4
		c-0.065-0.175-0.14-0.349-0.238-0.525l9.981-0.024c-0.131,0.258-0.222,0.466-0.278,0.625c-0.059,0.149-0.083,0.274-0.083,0.374
		c0,0.133,0.033,0.292,0.09,0.492c0.066,0.191,0.157,0.408,0.271,0.632L167.571,26.328L167.571,26.328z M144.217,20.423h14.672
		l-7.513-15.174L144.217,20.423L144.217,20.423z M192.385,1.635c3.054,0,5.563,0.233,7.53,0.691
		c1.975,0.466,3.646,1.208,5.028,2.215c1.753,1.283,3.11,2.932,4.074,4.947c0.963,2.015,1.447,4.23,1.447,6.637
		c0,10.908-8.049,15.248-17.866,15.248h-15.667c0.838-0.477,1.431-1.114,1.793-1.934c0.362-0.807,0.543-1.947,0.543-3.412V7.006
		c0-1.466-0.181-2.606-0.543-3.431s-0.955-1.466-1.793-1.94H192.385L192.385,1.635z M185.077,27.126h6.435
		c4.52,0,7.787-0.858,9.803-2.564c2.017-1.708,3.028-4.447,3.028-8.221c0-3.722-1.021-6.387-3.061-8.011
		c-2.042-1.615-5.481-2.423-10.321-2.423h-5.884V27.126L185.077,27.126z"/>
</g>
</svg>
