<?xml version="1.0" encoding="utf-8"?>
<!-- Generator: Adobe Illustrator 16.0.0, SVG Export Plug-In . SVG Version: 6.00 Build 0)  -->
<!DOCTYPE svg PUBLIC "-//W3C//DTD SVG 1.1//EN" "http://www.w3.org/Graphics/SVG/1.1/DTD/svg11.dtd">
<svg version="1.1" id="Layer_1" xmlns="http://www.w3.org/2000/svg" xmlns:xlink="http://www.w3.org/1999/xlink" x="0px" y="0px"
	 width="270px" height="52.603px" viewBox="0 0 270 52.603" enable-background="new 0 0 270 52.603" xml:space="preserve">
<path fill-rule="evenodd" clip-rule="evenodd" fill="#FFFFFF" d="M228.728,32.786l3.049-18.608l3.05,18.608H228.728z
	 M225.614,51.386l0.039-0.26l0.028,0.26l1.599-9.768h8.977l0.313,1.831l1.3,7.937l0.024-0.211l0.034,0.211h11.912L238.937,1.202
	h-14.185l-10.977,50.184H225.614z M255.22,8.546c0.543,0,1.165,0.311,1.165,0.896v3.935c0,0.555-0.611,0.854-1.165,0.854
	c-0.583,0-1.169-0.299-1.169-0.854V9.442C254.051,8.873,254.648,8.546,255.22,8.546z M260.812,12.128l1.726-2.456l-0.027,2.456
	H260.812z M255.22,16.292c1.433,0,3.011-0.692,3.389-2.223h3.726v2.088h2.318v-2.088h0.897v-1.967h-0.897v-5.55h-1.994l-3.966,5.397
	V9.373c0-2.048-1.832-2.957-3.473-2.957c-1.628,0-3.475,0.909-3.475,2.957v3.976C251.745,15.385,253.592,16.292,255.22,16.292z
	 M258.646,0C264.917,0,270,5.084,270,11.354c0,6.271-5.083,11.354-11.354,11.354c-6.271,0-11.353-5.083-11.353-11.354
	C247.293,5.084,252.375,0,258.646,0z M154.426,31.249h3.882c2.744,0.204,3.681,2.21,4.01,5.289
	c0.242,2.202,0.174,9.346,0.188,14.849h12.004c-0.272-6.414-0.378-15.771-0.612-18.598c-0.198-3.481-2.545-5.755-5.824-6.489
	l0.005-0.133c4.947-2.272,6.22-6.089,6.22-11.444c0.003-9.968-4.82-13.85-14.453-13.85L142.65,0.87v50.185h11.775V31.249z
	 M154.426,9.905c5.757-0.131,8.229,0.137,8.229,6.087c0,3.083-0.801,6.227-4.217,6.227h-4.012V9.905z M199.421,35.71l0.002-1.451
	h-4.112v-9.031h15.992c0,4.603-0.008,8.133-0.008,12.737c0,10.318-6.003,14.638-16.128,14.638c-10.856,0-15.918-5.128-15.918-16.124
	V15.993C179.249,5.086,184.27,0,195.036,0c9.465,0,15.301,3.809,15.936,12.817c0.026,0.365,0.046,2.353,0.055,2.738l-11.574,3.812
	v-5.474c0-2.335-1.909-4.245-4.244-4.245l0,0c-2.337,0-4.246,1.91-4.246,4.245V38.71c0,2.337,1.909,4.245,4.246,4.245l0,0
	c2.335,0,4.244-1.908,4.244-4.245v-3H199.421z M66.436,15.559c-0.006-0.252-0.016-2.108-0.028-2.351C65.908,3.919,59.976,0,50.379,0
	C39.614,0,34.59,5.086,34.59,15.993l0.003,20.605c0,10.237,4.212,16.005,15.051,16.005c12.045,0,16.994-6.033,16.994-14.662
	l0.002-6.156H54.873v6.925c0,2.337-1.91,4.245-4.245,4.245h-0.001c-1.312,0-2.49-0.602-3.27-1.544
	c-0.741-0.771-1.056-1.93-1.056-3.405c0.026-8.036,0.081-16.078,0.081-24.113c0-2.335,1.91-4.245,4.245-4.245h0.001
	c2.334,0,4.245,1.91,4.245,4.245v5.476L66.436,15.559z M137.228,51.386V41.352h-15.987V30.51h14.722V20.478h-14.722v-9.235h15.19
	V1.202h-26.965v50.184H137.228z M83.698,51.386V30.51h8.163v20.876h11.783V1.202H91.86v19.275h-8.163V1.202H71.927v50.184H83.698z
	 M0,11.243h9.23v40.143h11.78V11.243h9.5V1.202H0V11.243z"/>
</svg>
