<?xml version="1.0" encoding="utf-8"?>
<!-- Generator: Adobe Illustrator 16.0.0, SVG Export Plug-In . SVG Version: 6.00 Build 0)  -->
<!DOCTYPE svg PUBLIC "-//W3C//DTD SVG 1.1//EN" "http://www.w3.org/Graphics/SVG/1.1/DTD/svg11.dtd">
<svg version="1.1" id="Layer_1" xmlns="http://www.w3.org/2000/svg" xmlns:xlink="http://www.w3.org/1999/xlink" x="0px" y="0px"
	 width="72.025px" height="72.025px" viewBox="0 0 72.025 72.025" enable-background="new 0 0 72.025 72.025" xml:space="preserve">
<g>
	<path fill="#171717" d="M36.013,0C16.148,0,0,16.148,0,36.013c0,19.864,16.148,36.013,36.014,36.013
		c19.864,0,36.013-16.148,36.013-36.013C72.025,16.148,55.877,0,36.013,0z M36.013,67.63c-17.438,0-31.616-14.181-31.616-31.618
		c0-17.439,14.178-31.615,31.616-31.615c17.438,0,31.615,14.176,31.615,31.615C67.629,53.45,53.451,67.63,36.013,67.63z"/>
	<path fill="#171717" d="M52.692,24.641L31.388,45.944L20.546,35.102c-1.062-1.06-2.806-1.06-3.866,0
		c-1.062,1.063-1.062,2.807,0,3.869l12.736,12.737c0.531,0.529,1.213,0.833,1.973,0.833c0.759,0,1.439-0.304,1.971-0.833
		l23.201-23.2c1.062-1.063,1.062-2.805,0-3.866C55.498,23.579,53.83,23.579,52.692,24.641z"/>
</g>
</svg>
